<?xml version="1.0" encoding="UTF-8" standalone="no"?>
<svg
   xmlns:dc="http://purl.org/dc/elements/1.1/"
   xmlns:cc="http://creativecommons.org/ns#"
   xmlns:rdf="http://www.w3.org/1999/02/22-rdf-syntax-ns#"
   xmlns:svg="http://www.w3.org/2000/svg"
   xmlns="http://www.w3.org/2000/svg"
   xmlns:sodipodi="http://sodipodi.sourceforge.net/DTD/sodipodi-0.dtd"
   xmlns:inkscape="http://www.inkscape.org/namespaces/inkscape"
   width="161.6459mm"
   height="144.29213mm"
   viewBox="0 0 161.64591 144.29214"
   version="1.1"
   id="svg8"
   inkscape:version="1.0.1 (3bc2e813f5, 2020-09-07)"
   sodipodi:docname="Bonfire.svg">
  <defs
     id="defs2" />
  <sodipodi:namedview
     id="base"
     pagecolor="#ffffff"
     bordercolor="#666666"
     borderopacity="1.0"
     inkscape:pageopacity="0.0"
     inkscape:pageshadow="2"
     inkscape:zoom="4"
     inkscape:cx="357.18996"
     inkscape:cy="455.10453"
     inkscape:document-units="mm"
     inkscape:current-layer="layer1"
     inkscape:document-rotation="0"
     showgrid="false"
     showguides="true"
     inkscape:window-width="1920"
     inkscape:window-height="1001"
     inkscape:window-x="-9"
     inkscape:window-y="-9"
     inkscape:window-maximized="1" />
  <metadata
     id="metadata5">
    <rdf:RDF>
      <cc:Work
         rdf:about="">
        <dc:format>image/svg+xml</dc:format>
        <dc:type
           rdf:resource="http://purl.org/dc/dcmitype/StillImage" />
        <dc:title></dc:title>
      </cc:Work>
    </rdf:RDF>
  </metadata>
  <g
     inkscape:label="Laag 1"
     inkscape:groupmode="layer"
     id="layer1"
     transform="translate(397.37387,11.925814)">
    <path
       style="fill:#1c4b4f;fill-opacity:1;stroke-width:0.264583;stroke-opacity:0.0627451"
       d="m -245.73851,132.36632 0,0 -34.33077,-0.60804 -1.12253,0.93544 -43.21748,1.02899 -2.47892,-1.49671 -17.67988,0.28064 -1.02899,-3.77972 z"
       id="path2298"
       sodipodi:nodetypes="ccccccccc" />
    <path
       style="fill:#1c4b4f;fill-opacity:1;stroke-width:0.264583;stroke-opacity:0.0627451"
       d="m -376.6538,104.39657 7.20292,-7.998043 32.13247,-1.075762 63.02742,-1.45742 23.92204,-0.319921 3.22728,7.810956 -11.03823,1.68379 0.79513,3.32083 17.42347,-0.58935 4.23333,19.71146 -11.50938,0.85984 1.49884,6.02337 -40.128,-0.66561 -38.76146,-0.0661 -28.77344,0.16536 -0.69453,-0.79375 h -7.40833 l 4.56406,-8.46667 -40.43366,-1.305 12.02403,-13.14786 14.86997,-0.0419 1.07576,-1.4967 0.52458,-2.95931 z"
       id="path2294" />
    <path
       style="fill:#143538;fill-opacity:1;stroke-width:0.264583;stroke-opacity:0.0627451"
       d="m -282.50143,126.96414 25.14377,0.70173 21.62969,-2.18276 -10.45104,-0.13235 -8.26823,-0.13229 -7.73906,1.65365 -19.77761,-2.57969 z"
       id="path2292" />
    <path
       style="fill:#1a464a;fill-opacity:1;stroke-width:0.264583;stroke-opacity:0.0627451"
       d="m -273.89535,103.41435 13.23653,0.23386 1.12253,-2.89987 9.45467,-1.16138 -11.01328,-0.727604 -2.05052,1.819014 -11.80703,-0.33073 z"
       id="path2282" />
    <path
       style="fill:#1a464a;fill-opacity:1;stroke-width:0.264583;stroke-opacity:0.0627451"
       d="m -371.78995,100.81066 4.89479,-2.976565 24.73854,-1.455208 10.71563,2.976562 37.57393,-0.758632 -1.44994,-2.712783 40.5721,-1.456449 4.14209,2.204802 -36.85647,2.525696 -3.96345,3.173947 -50.24549,1.55004 -8.09517,-1.94693 -17.1618,1.19858 1.21608,-1.21608 9.4012,-1.02899 -5.89329,-1.543477 z"
       id="path2268" />
    <path
       style="fill:#1a464a;fill-opacity:1;stroke-width:0.264583;stroke-opacity:0.0627451"
       d="m -269.26391,120.45597 0.26459,-0.0661 8.73125,-6.35 14.61822,0.19844 -0.39687,-1.98437 -23.8125,-0.66146 -9.19427,3.57187 -5.42398,-2.05052 12.50158,-6.15156 32.01459,-1.19062 4.23333,19.71145 -16.40417,-1.19062 6.68073,-1.25677 1.78594,-2.4474 -7.0776,-3.30729 z"
       id="path2278" />
    <path
       style="fill:#143235;fill-opacity:1;stroke-width:0.264583;stroke-opacity:0.0627451"
       d="m -281.23858,113.47036 11.41241,-11.22531 -3.73725,-0.59099 -7.81548,8.02776 c 0,0 0.28064,7.57708 0.14032,3.78854 z"
       id="path2280" />
    <path
       style="fill:#25605b;fill-opacity:1;stroke-width:0.264583;stroke-opacity:0.0627451"
       d="m -281.23858,113.47036 1.26285,-1.96442 -1.40317,-1.82412 2.47893,0.37417 6.59487,-8.60607 -0.46772,-2.432153 -4.74278,1.577913 -12.70323,-3.168165 -1.40317,1.309619 0.65481,1.637026 -2.57247,-0.561265 -10.81606,8.641155 z"
       id="path2266" />
    <path
       style="fill:#34716c;fill-opacity:1;stroke-width:0.264583;stroke-opacity:0.0627451"
       d="m -274.03562,45.510405 -0.98298,-1.254434 6.0524,-11.707815 7.30911,0.363802 -2.74351,15.591866 0.6268,1.837561 11.44042,-18.581992 -8.83994,-8.325445 1.26285,-0.982218 -8.7464,-7.764182 -7.85772,-0.04677 1.82411,-8.5593101 2.57247,-0.093543 2.24507,2.7127861 4.57778,-3.073908 -3.37344,-0.8598958 -2.97656,-9.5911457 -6.35,-5.4570345 -1.62057,2.4473965 -2.2075,1.6142678 -5.86991,-1.7305707 -0.86528,-3.9756346 -2.26903,2.4713646 -2.05052,15.2135441 8.33437,11.1124993 -7.01145,17.4625 -29.63334,-12.369271 -9.95494,-5.754687 -6.31539,-1.475814 -2.29184,-7.2029132 7.58202,1.4026832 3.59653,-2.5953746 -3.39098,-5.1449366 -7.53126,-6.0345558 -4.23189,-1.7062423 2.79322,8.1223881 -17.23099,40.0347642 -0.33073,21.298959 5.95318,2.64583 0.33068,-1.85208 -3.32383,-2.811198 0.44278,-12.80877 3.74099,-8.58941 59.58853,36.044666 3.41436,-5.98683 3.46114,-14.21874 19.36368,33.535643 3.46912,10.553385 -1.22406,-13.406487 2.47893,-0.04677 -2.29184,-8.512534 -1.96443,0.374176 -2.8531,-2.899873 -2.70109,-18.024824 1.74257,0.182981 -4.27991,-10.782729 z"
       id="path2252" />
    <path
       style="fill:#102c2f;fill-opacity:1;stroke-width:0.264583;stroke-opacity:0.0627451"
       d="m -262.05401,99.421592 -0.42995,-0.694528 -3.40651,-18.454687 -5.33886,-5.295503 -1.07729,-18.748508 3.43959,0.859896 2.77812,-5.423958 2.31511,-1.322917 -0.6268,-1.83756 10.33665,-16.510574 -9.82215,-8.606078 1.02898,-1.309621 -9.35443,-2.899873 3.55468,-4.49013 -3.27405,-0.374177 -2.75956,-8.2319015 2.57247,-0.093543 2.24507,2.7127861 0.98221,-2.6192427 -4.11595,-4.8175332 -0.62285,-4.1368742 -4.36563,-7.4083335 -1.62057,2.4473961 -4.59714,1.6867187 -6.44921,1.0583333 -0.16537,-4.3656249 -2.64583,3.8695312 -2.74505,13.5598957 -2.31511,0.9921875 2.21589,2.6127604 6.31692,-0.694532 0.85756,7.286681 -2.84193,3.528163 -6.18464,3.505729 -25.20156,0.330729 0.13229,-4.167187 -9.0289,-2.711979 -7.90443,0.132291 -0.0661,-10.384895 8.0698,0.5291666 0.49609,-3.4065103 -7.65711,-8.8005469 -4.39658,-3.2740521 0.70158,3.2740521 -2.38538,3.04019206 -4.44336,-0.046773 -1.54348,-2.85310266 -4.8643,5.5658887 -2.01121,8.4657615 v 2.478926 l 7.29646,-1.028988 0.32741,2.057974 -2.10475,3.274052 0.51449,1.122532 1.21608,-1.964431 0.14031,4.162724 -8.79316,10.149559 0.42019,24.845502 -0.56051,9.298181 4.49013,4.162721 1.54348,-4.723987 -2.75956,-3.507915 -0.49766,-13.728739 5.68854,-8.003646 0.66146,14.75052 -1.85208,11.310938 1.12448,8.929687 1.12448,11.972396 71.62644,-43.612617 9.69986,-10.296237 7.30911,0.363803 -3.91276,11.896867 -5.47235,-1.356394 -2.3386,0.09354 -0.65482,1.964434 0.88868,0.795125 -2.05798,1.449938 -3.64823,-5.285255 -15.85576,7.857725 1.91766,21.889373 7.01582,-14.125194 13.27043,22.047962 -1.7177,0.496221 2.66601,7.483546 3.13374,-1.449935 c 0,0 12.73798,25.503356 6.36899,12.751675 z"
       id="path2250" />
    <path
       style="fill:#102c2f;fill-opacity:1;stroke-width:0.264583;stroke-opacity:0.0627451"
       d="m -350.22752,110.75759 16.93152,-12.347859 22.73127,-2.899876 12.90912,2.057977 -1.12253,-2.33861 6.36101,-0.467723 13.18975,5.472341 -9.44797,-7.623858 10.85114,-0.841899 15.7702,7.653512 -12.03854,-13.49375 1.85208,-1.322916 -12.7,-9.525 -45.08148,-0.383694 -16.69873,25.122235 z"
       id="path2248" />
    <path
       style="fill:#13373b;fill-opacity:1;stroke-width:0.264583;stroke-opacity:0.0627451"
       d="m -312.39099,78.71795 -18.12396,5.423958 -3.98529,1.5875 -0.12877,1.712248 -4.23288,0.958829 -7.53032,-4.630444 0.18709,9.354434 2.33861,1.449938 -6.36101,16.183177 0.8419,-16.6509 -3.22728,-2.338607 3.60145,-10.570511 1.07576,1.824114 3.18051,-1.028986 3.36759,2.338607 4.34982,-0.982215 -0.0918,-2.944424 -2.54662,-5.258593 -5.35781,1.455208 1.5875,-4.960938 30.79089,-1.653648 z"
       id="path2240" />
    <path
       style="fill:#113134;fill-opacity:1;stroke-width:0.264583;stroke-opacity:0.0627451"
       d="m -293.98399,75.16396 2.22168,0.374179 -1.3564,-1.309618 1.11084,-6.092076 -12.33616,-4.431665 -3.54904,2.114727 z"
       id="path2226" />
    <path
       style="fill:#3a463b;fill-opacity:1;stroke-width:0.264583;stroke-opacity:0.0627451"
       d="m -303.78276,87.418267 0.0468,1.356397 2.80633,-0.233863 -1.60562,-17.231187 -1.78592,1.190622 z"
       id="path2224" />
    <path
       style="fill:#1d3b3a;fill-opacity:1;stroke-width:0.264583;stroke-opacity:0.0627451"
       d="m -312.65557,73.42628 -0.5284,7.537432 4.67722,0.701582 0.61368,-3.741097 0.88303,9.634389 3.22728,-0.140316 -0.53844,-14.918031 -5.42396,-2.315105 z"
       id="path2222" />
    <path
       style="fill:#9c9b81;fill-opacity:1;stroke-width:0.264583;stroke-opacity:0.0627451"
       d="m -336.00879,77.993679 h -0.0935 l -6.50133,-5.30864 0.72497,-4.045793 4.64994,-0.769216 5.47623,2.336078 -5.1455,-0.847796 1.5875,6.680729 z"
       id="path2214" />
    <path
       style="fill:#9c9b81;fill-opacity:1;stroke-width:0.264583;stroke-opacity:0.0627451"
       d="m -294.6143,63.024848 2.52594,2.980698 3.55332,-7.539246 -2.40876,-5.028007 -8.66455,2.607545 -0.43264,3.426063 1.24297,1.254379 z"
       id="path2212" />
    <path
       style="fill:#0c2a2e;fill-opacity:1;stroke-width:0.264583;stroke-opacity:0.0627451"
       d="m -296.43953,57.063132 -7.76418,-8.676238 -9.27869,1.326103 -17.4625,17.561721 -0.80762,2.931395 1.73057,4.490128 2.88044,2.764935 5.51517,-4.682596 8.97077,-2.79188 v 3.439583 l 1.98437,-0.859896 0.92604,-2.38125 1.85209,7.739063 0.59531,-5.159375 2.97656,-0.264584 2.77813,-1.918229 -1.25678,-3.902604 -5.09322,-0.859896 2.64583,-3.638021 0.79375,-6.945312 3.83646,4.696354 2.3151,-1.785937 -1.30642,-2.100755 z"
       id="path2202" />
    <path
       style="fill:#343229;fill-opacity:1;stroke-width:0.264583;stroke-opacity:0.0627451"
       d="m -316.80881,77.011458 0.35079,0.233866 0.0702,1.075761 -2.03459,1.134224 0.8419,0.339095 -1.44994,2.782946 -5.28525,1.286235 -1.10598,0.112958 0.24069,-0.861314 2.59586,-4.88769 1.54348,-1.356392 z"
       id="path2190" />
    <path
       style="fill:#163031;fill-opacity:1;stroke-width:0.264583;stroke-opacity:0.0627451"
       d="m -335.57511,82.488259 3.86954,0.727607 2.05052,3.108854 1.9513,-0.959114 -1.99079,-5.267172 -5.46715,-2.653786 z"
       id="path2188" />
    <path
       style="fill:#48584a;fill-opacity:1;stroke-width:0.264583;stroke-opacity:0.0627451"
       d="m -325.42172,83.976543 1.10598,-0.112956 2.31522,-2.806332 1.96969,-0.32186 0.0649,2.169361 0.93544,-0.327404 1.44994,-2.782945 1.51847,-0.216562 -0.13869,3.046278 -3.5313,3.110349 -6.50133,0.514495 -1.47035,-0.883361 -0.89165,-0.0053 -0.35079,0.420949 -1.77734,-3.040192 1.02899,-2.642627 -5.46715,-2.653786 4.84518,-0.942578 3.04271,-0.429948 2.18632,6.318149 z"
       id="path2186" />
    <path
       style="fill:#194447;fill-opacity:1;stroke-width:0.264583;stroke-opacity:0.0627451"
       d="m -305.5449,43.759877 5.15938,-1.835547 -0.56224,-2.811198 -4.20026,-1.504817 z"
       id="path2152" />
    <path
       style="fill:#12363a;fill-opacity:1;stroke-width:0.264583;stroke-opacity:0.0627451"
       d="m -337.24825,44.691893 -1.19269,12.605102 1.07576,2.806329 7.9045,-17.118613 -0.74836,17.352476 3.55469,6.68842 -0.46773,-3.274052 5.0514,0.608037 7.43677,-15.200953 -1.96443,-0.982215 1.44576,-4.796885 3.97982,0.493844 2.75955,-5.238482 -4.0224,-4.069178 z"
       id="path2142" />
    <path
       style="fill:#849682;fill-opacity:1;stroke-width:0.264583;stroke-opacity:0.0627451"
       d="m -316.11892,41.160595 1.11517,-6.925718 5.92005,-1.521354 -0.77944,-4.181411 -10.10155,0.675682 z"
       id="path2136" />
    <path
       style="fill:#387974;fill-opacity:1;stroke-width:0.264583;stroke-opacity:0.0627451"
       d="m -319.17081,52.058509 1.12254,-13.797785 1.12253,3.227277 1.6838,2.712786 -0.87698,-3.04019 -0.61973,-3.507914 -1.96443,-2.666013 -1.16931,13.657471 z"
       id="path2134" />
    <path
       style="fill:#12363a;fill-opacity:1;stroke-width:0.264583;stroke-opacity:0.0627451"
       d="m -316.59834,48.176421 1.96443,0.982215 7.0626,-4.81753 2.19174,-7.890346 -3.70413,-3.73724 -5.94777,10.049023 z"
       id="path2150"
       sodipodi:nodetypes="ccccccc" />
    <path
       style="fill:#194447;fill-opacity:1;stroke-width:0.264583;stroke-opacity:0.0627451"
       d="m -292.04295,54.443889 -4.39658,2.619246 -7.76418,-8.676238 -1.12254,3.554685 -3.88208,0.140317 2.40876,3.274052 -7.54272,8.346895 -0.92604,4.233333 -7.54063,3.505729 -0.89297,-3.108854 3.80339,-1.389063 6.44922,-14.552083 0.19843,-4.365625 14.37921,-8.245467 z"
       id="path2200" />
    <path
       style="fill:#cead88;fill-opacity:1;stroke-width:0.264583;stroke-opacity:0.0627451"
       d="m -316.11892,41.160592 4.58782,-0.112694 1.71476,-3.956481 0.0712,-4.146384 -5.25859,1.289842 z"
       id="path2138" />
    <path
       style="fill:#103235;fill-opacity:1;stroke-width:0.264583;stroke-opacity:0.0627451"
       d="m -343.72758,66.051023 -2.11667,4.373893 3.24059,3.172179 0.6782,-2.829716 -0.37418,-2.61924 9.54152,-1.894274 z"
       id="path2192" />
    <path
       style="fill:#194447;fill-opacity:1;stroke-width:0.264583;stroke-opacity:0.0627451"
       d="m -341.92546,70.767377 -0.37418,-2.61924 9.54152,-1.894274 1.81322,1.020858 0.26459,3.373437 -6.54844,-2.778125 z"
       id="path2194" />
    <path
       style="fill:#79724e;fill-opacity:1;stroke-width:0.264583;stroke-opacity:0.0627451"
       d="m -334.40684,66.826821 8.60478,1.258186 0.52749,-1.784371 4.04579,-0.795129 7.74638,-15.792508 4.0349,-2.116666 10.17825,-5.055955 0.39757,-2.759559 -2.10472,0.304017 0.59088,1.839492 -5.15938,1.835546 -2.02641,0.581229 -1.09898,0.708615 -5.96362,4.108918 -7.43677,15.200953 -5.0514,-0.608036 0.46773,3.274052 -8.0682,-1.099148 z"
       id="path2170" />
    <path
       style="fill:#387974;fill-opacity:1;stroke-width:0.264583;stroke-opacity:0.0627451"
       d="m -300.74252,36.764011 5.42555,2.946648 -8.70657,-1.407813 -1.06884,5.757627 0.0935,4.77076 -5.05136,3.648226 4.67067,-16.028696 v -7.639844 l 0.66137,0.563091 z"
       id="path2132" />
    <path
       style="fill:#0e2e31;fill-opacity:1;stroke-width:0.264583;stroke-opacity:0.0627451"
       d="m -331.91622,39.546959 -5.33203,5.144937 8.34883,-0.58465 2.99342,-3.110352 0.0234,-2.993416 z"
       id="path2140" />
    <path
       style="fill:#102b2e;fill-opacity:1;stroke-width:0.264583;stroke-opacity:0.0627451"
       d="m -324.50283,53.27459 0.23386,-9.354434 1.82411,-2.291836 0.65481,-4.022408 0.79513,11.599497 1.82411,2.853103 -0.70158,-3.414368 1.16931,-13.657472 1.44993,6.828737 2.01121,2.38538 -1.6838,-2.712786 0.18709,-3.835318 -1.02899,-9.681839 7.9045,0.561268 0.0468,8.559305 0.93544,2.666013 -1.30962,3.975635 2.71279,-4.864306 -0.88867,-5.285254 1.91765,5.098167 -3.60145,13.797787 4.0224,-5.519115 0.93545,-7.623863 3.32082,2.712786 -1.35639,-3.133735 2.15152,1.169304 5.65943,-0.374176 -7.39,-2.057977 -2.43216,-4.72399 1.16931,-5.191709 -19.78463,-0.748356 -2.52569,8.044815 -3.60146,3.180506 -2.38538,0.748356 -1.73057,-0.561266 0.88867,1.075758 2.5257,0.795129 3.97563,-1.262851 -0.60804,4.022407 z"
       id="path2130" />
    <path
       style="fill:#377872;fill-opacity:1;stroke-width:0.264583;stroke-opacity:0.0627451"
       d="m -298.49746,28.345022 3.92881,-4.115948 -5.09816,0.514493 -3.04019,-1.870885 -3.83532,-14.6864623 -3.78855,-2.5257019 0.70159,5.3787992 -3.08697,4.77076 -1.77734,-0.140311 -3.27405,-2.057974 -1.22967,-1.742474 -0.22027,0.760256 0.90654,13.204782 z"
       id="path2126" />
    <path
       style="fill:#174043;fill-opacity:1;stroke-width:0.264583;stroke-opacity:0.0627451"
       d="m -338.34741,123.85378 13.71944,7.78084 38.76146,0.0661 7.14373,-10.18646 -7.42688,-5.61178 -41.37219,-1.71387 -5.82094,3.63154 z"
       id="path2120" />
    <path
       style="fill:#143538;fill-opacity:1;stroke-width:0.264583;stroke-opacity:0.0627451"
       d="m -332.13839,127.06936 22.39323,-4.09985 17.29714,4.29948 0.0992,-6.21771 4.98307,-2.85692 1.21607,-2.29184 7.4269,5.61178 2.24896,-4.96093 -8.00365,-3.43959 -21.43125,-4.7625 -16.6026,-0.26458 -2.31511,-1.38906 -22.7351,2.32936 18.1476,0.74838 0.98222,0.60803 -7.10937,2.80633 -7.0626,8.23191 4.25627,2.43213 5.00462,-6.03359 5.82092,-3.63154 0.90951,1.52136 2.38125,3.55533 z"
       id="path2118" />
    <path
       style="fill:#3a3d36;fill-opacity:1;stroke-width:0.264583;stroke-opacity:0.0627451"
       d="m -316.36448,121.79582 -1.28623,7.03921 3.20389,2.12813 5.70621,-0.44435 1.333,-3.64823 -1.82411,-8.41899 16.7837,8.8174 3.20807,-0.59531 1.87422,-4.66738 -7.41339,-3.57807 7.41339,-0.23387 1.21607,-2.29184 -1.68379,-3.43776 -2.01121,-0.35081 -29.88852,1.8928 -3.74066,-3.99756 -3.53538,1.021 -0.51263,3.15846 0.90951,1.52136 5.60585,1.4552 -12.71046,3.2742 -0.39756,3.65993 1.97612,2.97002 z"
       id="path2116" />
    <path
       style="fill:#7b6948;fill-opacity:1;stroke-width:0.264583;stroke-opacity:0.0627451"
       d="m -301.97302,112.18774 12.12836,-0.0738 1.77735,0.93544 0.28063,1.30963 -11.88013,0.56126 -0.70159,1.35639 12.114,5.56591 -5.19171,0.70157 -8.83994,-4.06919 -7.53032,-0.37417 0.46772,7.67064 -3.22728,-1.30964 -2.61924,1.40317 0.3274,-6.78196 -2.99342,-1.12252 -3.36759,4.06919 -10.66406,0.1403 -1.82411,-1.73056 12.06722,-3.5547 1.35431,-1.42277 -3.64615,-1.57065 -1.4967,-3.08694 1.96443,-0.79516 3.5753,1.02098 z"
       id="path2114" />
    <path
       style="fill:#ce723d;fill-opacity:1;stroke-width:0.264583;stroke-opacity:0.0627451"
       d="m -318.47641,109.07889 0.1475,-2.01631 -1.87088,-1.35639 2.19829,-6.127157 2.0112,4.770767 2.29184,1.02898 -1.16931,-1.96443 4.2095,-3.648228 -1.87089,-3.835318 5.42557,-5.144936 -0.74835,1.496708 3.18051,2.478926 -1.77735,0.795126 -0.79512,7.202912 4.58367,2.24506 -0.66878,2.48679 -14.34509,3.68715 z"
       id="path2108" />
    <path
       style="fill:#f9ce7c;fill-opacity:1;stroke-width:0.264583;stroke-opacity:0.0627451"
       d="m -304.98266,117.01639 3.00964,-4.82865 -2.0836,-2.05052 0.72761,-2.64583 -6.64766,-2.71198 -2.8112,3.04271 -3.63802,-1.7198 -0.59531,3.86954 -1.45521,-0.89297 -1.42213,1.9513 -0.39688,4.43177 3.14193,0.89297 z"
       id="path2106" />
    <path
       style="fill:#feecca;fill-opacity:1;stroke-width:0.264583;stroke-opacity:0.0627451"
       d="m -317.15349,116.35493 0.79375,-0.66146 -1.12448,-0.7276 1.85208,-4.63021 2.57969,-1.05834 -1.19062,1.5875 0.26458,2.05052 3.04271,-0.85989 -1.85209,-4.23333 1.78594,-5.15938 1.91823,1.05833 -0.33073,0.66146 2.71198,5.68854 -1.12448,4.63021 2.84427,2.31511 -8.73125,0.66145 z"
       id="path2104" />
    <path
       style="fill:#ce723d;fill-opacity:1;stroke-width:0.264583;stroke-opacity:0.0627451"
       d="m -314.77422,98.175868 -0.70158,-1.590252 0.79512,-1.321313 0.12863,-2.209985 1.21607,2.420458 z"
       id="path2110" />
    <path
       style="fill:#ce723d;fill-opacity:1;stroke-width:0.264583;stroke-opacity:0.0627451"
       d="m -303.52745,97.222246 -0.0992,0.06615 -1.24023,2.645833 1.24023,1.934761 0.71107,-2.182808 -0.82682,-0.661458 z"
       id="path2112" />
    <path
       style="fill:#14373a;fill-opacity:1;stroke-width:0.264583;stroke-opacity:0.0627451"
       d="m -333.52986,24.088757 5.33203,1.870888 7.06259,-7.015827 4.2095,6.594877 9.35443,-1.91766 2.05798,-4.630444 1.26285,5.659432 5.84652,1.917658 -0.0935,1.777344 -1.87089,3.320822 -0.37417,5.098166 -3.97564,-7.39 -13.47038,1.075759 -11.31887,-1.216075 z"
       id="path2122" />
    <path
       style="fill:#194447;fill-opacity:1;stroke-width:0.264583;stroke-opacity:0.0627451"
       d="m -321.13524,18.943815 1.91766,-6.314238 1.63703,3.086962 4.8643,0.09354 3.08697,-4.770761 -0.70159,-5.3787989 2.71279,4.4901269 2.10475,8.839938 -2.05798,4.630444 -9.35443,1.917661 z"
       id="path2124" />
    <path
       style="fill:#174144;fill-opacity:1;stroke-width:0.264583;stroke-opacity:0.0627451"
       d="m -337.36518,60.103322 0.14032,5.472348 2.50231,0.350789 4.51351,-5.589275 0.74836,-17.352475 z"
       id="path2144" />
    <path
       style="fill:#153c44;fill-opacity:1;stroke-width:0.264583;stroke-opacity:0.0627451"
       d="m -344.31085,64.523295 2.6894,-13.259909 3.49973,-8.826426 6.2055,-2.890004 -5.33203,5.144934 -1.19269,12.605102 1.07576,2.806327 0.14032,5.472348 z"
       id="path2146" />
    <path
       style="fill:#12363a;fill-opacity:1;stroke-width:0.264583;stroke-opacity:0.0627451"
       d="m -330.20904,60.337184 -4.51351,5.589273 8.0682,1.099148 z"
       id="path2148" />
    <path
       style="fill:#f1d366;fill-opacity:1;stroke-width:0.264583;stroke-opacity:0.0627451"
       d="m -344.61486,66.557885 0.30401,-2.034593 9.5883,1.403165 0.31571,0.900366 z"
       id="path2154" />
    <path
       style="fill:#f1d366;fill-opacity:1;stroke-width:0.264583;stroke-opacity:0.0627451"
       d="m -327.12208,63.751553 1.84751,2.549085 4.04579,-0.795128 -0.8419,-1.145921 z"
       id="path2156" />
    <path
       style="fill:#f1d366;fill-opacity:1;stroke-width:0.264583;stroke-opacity:0.0627451"
       d="m -314.63391,49.158636 1.15151,0.554366 4.0349,-2.116667 0.77721,-2.546614 z"
       id="path2158" />
    <path
       style="fill:#f1d366;fill-opacity:1;stroke-width:0.264583;stroke-opacity:0.0627451"
       d="m -300.53435,64.926543 0.92604,-1.686718 4.99401,-0.214974 -0.46302,0.74414 z"
       id="path2160" />
    <path
       style="fill:#79724e;fill-opacity:1;stroke-width:0.264583;stroke-opacity:0.0627451"
       d="m -337.85714,82.289824 2.28203,0.198438 0.41342,-5.043622 4.84518,-0.942579 3.04271,-0.429945 -0.52917,-1.752864 -5.27513,1.190622 -2.23242,0.529167 z"
       id="path2172" />
    <path
       style="fill:#47453a;fill-opacity:1;stroke-width:0.264583;stroke-opacity:0.0627451"
       d="m -329.25021,78.414629 0.35079,-2.782943 2.73618,0.654809 3.42043,3.688223 0.46165,0.638204 -1.42655,0.46772 0.58466,0.795128 -2.05798,1.239462 -1.28623,-1.613641 -1.44994,1.145918 -0.72497,-1.894271 0.81851,-2.385382 z"
       id="path2182" />
    <path
       style="fill:#f1d366;fill-opacity:1;stroke-width:0.264583;stroke-opacity:0.0627451"
       d="m -335.31052,76.039043 0.14883,1.405599 4.84518,-0.942578 -2.76159,-0.992187 z"
       id="path2162" />
    <path
       style="fill:#79724e;fill-opacity:1;stroke-width:0.264583;stroke-opacity:0.0627451"
       d="m -327.14151,77.461179 1.35244,-1.73595 0.86344,0.148447 4.0349,-0.926042 0.0361,-0.672343 1.14591,-1.075759 2.09218,1.781175 -3.63802,2.711979 0.0992,1.223698 -4.00183,-0.09922 z"
       id="path2176" />
    <path
       style="fill:#fffade;fill-opacity:1;stroke-width:0.264583;stroke-opacity:0.0627451"
       d="m -325.52094,73.889301 3.8946,-1.110718 0.73561,2.169049 z"
       id="path2180" />
    <path
       style="fill:#f1d366;fill-opacity:1;stroke-width:0.264583;stroke-opacity:0.0627451"
       d="m -325.52094,73.889304 0.59531,1.984375 1.78594,0.826823 2.24896,-1.752865 -2.94349,-1.289844 z"
       id="path2164" />
    <path
       style="fill:#fffade;fill-opacity:1;stroke-width:0.264583;stroke-opacity:0.0627451"
       d="m -320.1962,77.990343 1.77375,-0.09021 1.61364,-0.888672 -0.23386,-1.707184 -0.57387,-0.323575 z"
       id="path2178" />
    <path
       style="fill:#f1d366;fill-opacity:1;stroke-width:0.264583;stroke-opacity:0.0627451"
       d="m -321.25453,77.692689 -0.33073,-1.686719 2.38125,-1.918229 1.5875,0.892969 -0.3638,1.157552 -0.92605,1.322917 -1.28984,0.529166 z"
       id="path2166" />
    <path
       style="fill:#f1d366;fill-opacity:1;stroke-width:0.264583;stroke-opacity:0.0627451"
       d="m -324.39646,77.262741 2.08359,-0.23151 1.15756,1.885156 -0.16537,0.396875 -1.42213,0.661458 -2.41433,-1.157552 z"
       id="path2168" />
    <path
       style="fill:#79724e;fill-opacity:1;stroke-width:0.264583;stroke-opacity:0.0627451"
       d="m -295.07732,63.768989 2.68358,4.659783 1.37978,-1.169305 -3.60034,-4.234619 z"
       id="path2174" />
    <path
       style="fill:#4d4f3f;fill-opacity:1;stroke-width:0.264583;stroke-opacity:0.0627451"
       d="m -324.26417,85.762481 2.64584,-1.124479 1.5875,-3.902605 0.59531,0.06615 -0.99219,4.431771 2.57969,-1.322917 1.78594,-4.332552 2.01744,0.959115 -1.48828,3.075781 -4.36562,2.612761 -0.95912,-0.363803 -6.25078,0.959115 -0.59531,-1.455208 2.28203,-1.389063 0.69453,1.785938 z"
       id="path2184" />
    <path
       style="fill:#278583;fill-opacity:1;stroke-width:0.264583;stroke-opacity:0.0627451"
       d="m -298.87168,39.780816 6.82873,14.663076 2.43215,-1.216075 z"
       id="path2196" />
    <path
       style="fill:#194447;fill-opacity:1;stroke-width:0.264583;stroke-opacity:0.0627451"
       d="m -281.28535,44.808826 -0.65481,-0.374177"
       id="path2198" />
    <path
       style="fill:#247a78;fill-opacity:1;stroke-width:0.264583;stroke-opacity:0.0627451"
       d="m -307.89307,65.81951 3.54904,-2.114728 1.35639,-6.68842 -1.46585,-1.780186 -0.79375,6.945313 c 0,0 -5.29166,7.276041 -2.64583,3.638021 z"
       id="path2204" />
    <path
       style="fill:#cfae89;fill-opacity:1;stroke-width:0.264583;stroke-opacity:0.0627451"
       d="m -268.0956,79.607317 -0.74835,0.374179"
       id="path2206" />
    <path
       style="fill:#cfae89;fill-opacity:1;stroke-width:0.264583;stroke-opacity:0.0627451"
       d="m -294.6143,63.024848 0.14883,-3.290752 -4.33255,0.992187 -0.81029,2.513539 z"
       id="path2208" />
    <path
       style="fill:#cfae89;fill-opacity:1;stroke-width:0.264583;stroke-opacity:0.0627451"
       d="m -335.31052,76.039041 -1.5875,-6.680727 5.1455,0.847797 1.73057,4.490127 z"
       id="path2210" />
    <path
       style="fill:#174246;fill-opacity:1;stroke-width:0.264583;stroke-opacity:0.0627451"
       d="m -295.07732,63.768989 -2.79466,9.558075 1.65365,0.661458 -3.70417,1.951303 0.0992,3.439583 -1.12448,0.463021 -0.92604,-1.091407 -0.66146,-7.441406 0.99219,-0.727607 1.00872,-5.655468 z"
       id="path2216" />
    <path
       style="fill:#153537;fill-opacity:1;stroke-width:0.264583;stroke-opacity:0.0627451"
       d="m -296.21833,73.98852 2.23434,1.175443 -4.56029,4.209494 -0.1637,1.169305 -1.98782,0.912059 -0.25198,-1.612395 1.12448,-0.463021 -0.0992,-3.439583 z"
       id="path2218" />
    <path
       style="fill:#102c2f;fill-opacity:1;stroke-width:0.264583;stroke-opacity:0.0627451"
       d="m -292.39374,68.428769 -3.18051,3.203896 1.59026,3.531295 -2.23434,-1.17544 -1.65365,-0.661458 2.79466,-9.558076 z"
       id="path2220" />
    <path
       style="fill:#3f493f;fill-opacity:1;stroke-width:0.264583;stroke-opacity:0.0627451"
       d="m -298.70798,80.54276 0.81851,4.536903 5.33203,0.467722 v -3.414368 l -2.38538,-1.543482 3.18051,-5.051398 -2.22168,-0.374179 -4.56029,4.209497 z"
       id="path2228" />
    <path
       style="fill:#194447;fill-opacity:1;stroke-width:0.264583;stroke-opacity:0.0627451"
       d="m -292.55744,82.133014 2.15152,-1.216075 2.10474,-10.336649 -3.70669,-2.443848 -1.11084,6.092076 1.3564,1.309619 -3.18051,5.051396 z"
       id="path2230" />
    <path
       style="fill:#26615c;fill-opacity:1;stroke-width:0.264583;stroke-opacity:0.0627451"
       d="m -290.40592,80.916936 4.77076,-1.192686 1.89427,-10.453579 -8.26698,-1.134232 3.70669,2.443848 z"
       id="path2232" />
    <path
       style="fill:#2e776a;fill-opacity:1;stroke-width:0.264583;stroke-opacity:0.0627451"
       d="m -283.74089,69.270668 4.42282,10.770198 -0.52917,1.058333 -0.66146,-0.892968 -5.12646,-0.481984 z"
       id="path2234" />
    <path
       style="fill:#2e3930;fill-opacity:1;stroke-width:0.264583;stroke-opacity:0.0627451"
       d="m -292.55744,82.133014 2.15152,-1.216078 4.77076,-1.192691 0.98221,7.834341 1.82412,0.374179 -0.88867,0.888669 4.49012,11.412406 -7.29645,-10.383417 -5.94007,-0.374177 z"
       id="path2236" />
    <path
       style="fill:#102b2e;fill-opacity:1;stroke-width:0.264583;stroke-opacity:0.0627451"
       d="m -285.63516,79.724247 5.12646,0.481981 0.66146,0.892969 2.91042,5.027086 -3.40652,2.116666 1.11596,11.990891 -4.49012,-11.412408 0.88867,-0.88867 -1.82412,-0.374179 z"
       id="path2238" />
    <path
       style="fill:#2d6b65;fill-opacity:1;stroke-width:0.264583;stroke-opacity:0.0627451"
       d="m -349.01145,81.197569 v 0 l 1.34819,-3.604099 7.98707,-2.447398 2.54662,5.258594 -0.72757,1.885156 0.87644,0.09922 -0.0571,0.960046 -4.34982,0.982215 -3.36759,-2.338607 -3.18051,1.028986 z"
       id="path2244" />
    <path
       style="fill:#313a32;fill-opacity:1;stroke-width:0.264583;stroke-opacity:0.0627451"
       d="m -346.39221,83.770039 0.18709,9.354433 2.33861,1.449938 -6.36101,16.18318 8.13705,-15.900057 1.62057,0.892968 2.24896,-6.978385 -0.64095,-0.371634 z"
       id="path2246" />
    <path
       style="fill:#1a4649;fill-opacity:1;stroke-width:0.264583;stroke-opacity:0.0627451"
       d="m -290.13292,103.48956 0.0331,-1.05833 -1.32291,-0.0992 -0.0331,-1.05833 1.4552,0.0331 0.1323,-1.455207 1.55442,0.562237 -0.23151,0.89297 1.16215,-0.003 -0.16169,1.42513 -1.08314,-0.0496 -0.1571,0.87643 z"
       id="path2254" />
    <path
       style="fill:#1a4649;fill-opacity:1;stroke-width:0.264583;stroke-opacity:0.0627451"
       d="m -287.4242,103.78853 0.76005,0.1637 0.61973,0.78344 0.59635,-0.52619 -0.80682,-0.85359 -0.99391,-0.0585 z"
       id="path2256" />
    <path
       style="fill:#1a4649;fill-opacity:1;stroke-width:0.264583;stroke-opacity:0.0627451"
       d="m -285.71768,105.24243 -0.0414,0.0248 -0.37207,1.32292 0.62839,-0.008 0.30592,-1.26504 z"
       id="path2258" />
    <path
       style="fill:#1a4649;fill-opacity:1;stroke-width:0.264583;stroke-opacity:0.0627451"
       d="m -286.06495,107.16891 -0.0248,0.0331 -0.0496,0.85989 0.57878,0.90951 0.64492,-0.39688 -0.52917,-0.64492 -0.0496,-0.65318 z"
       id="path2260" />
    <path
       style="fill:#1a4649;fill-opacity:1;stroke-width:0.264583;stroke-opacity:0.0627451"
       d="m -293.40714,100.95949 1.09141,0.39687 -7.83828,6.33346 17.59479,3.53881 -0.7276,0.79375 -18.91771,-4.00183 z"
       id="path2262" />
    <path
       style="fill:#1a4649;fill-opacity:1;stroke-width:0.264583;stroke-opacity:0.0627451"
       d="m -279.79763,108.25206 0.0165,-0.0661 4.49792,-6.43268 -2.16627,0.7276 -4.05144,-0.8599 0.89297,-1.15755 3.12539,0.76068 3.70417,-1.19063 0.21497,1.62058 -4.89479,7.11067 z"
       id="path2264" />
    <path
       style="fill:#1a464a;fill-opacity:1;stroke-width:0.264583;stroke-opacity:0.0627451"
       d="m -393.81918,118.52176 0.65481,-0.0935 13.65747,-2.61924 2.05797,-3.08698 30.589,1.12253 12.53494,-3.55468 -11.41241,-0.74835 -4.49012,1.21608 -33.86305,-1.96443 z"
       id="path2270" />
    <path
       style="fill:#1a464a;fill-opacity:1;stroke-width:0.264583;stroke-opacity:0.0627451"
       d="m -392.88374,120.72005 3.18051,-1.82412 11.78658,-0.18708 3.08697,-3.46115 32.27619,1.30567 -6.35,3.43958 -16.00729,-0.99219 -1.71979,1.98438 z"
       id="path2272" />
    <path
       style="fill:#1a464a;fill-opacity:1;stroke-width:0.264583;stroke-opacity:0.0627451"
       d="m -357.83318,128.79034 3.77031,-5.35781 13.62605,-0.66146 15.80885,8.86355 -29.63333,-1.38907 1.85208,-2.24896 7.2099,1.05834 6.01927,-1.85209 -8.86354,-1.52135 z"
       id="path2274" />
    <path
       style="fill:#1a464a;fill-opacity:1;stroke-width:0.264583;stroke-opacity:0.0627451"
       d="m -276.47382,116.55337 10.91408,-2.64584 -5.88698,6.15156 2.4474,2.84428 7.34218,-0.39688 6.94532,-2.97656 -7.47448,7.34219 -15.1474,-3.04271 -1.38908,-2.31516 z"
       id="path2276" />
    <path
       style="fill:#1a464a;fill-opacity:1;stroke-width:0.264583;stroke-opacity:0.0627451"
       d="m -283.48364,130.82285 -0.42095,-0.42095 2.66601,-2.43216 29.04552,0.8419 z"
       id="path2284" />
    <path
       style="fill:#143538;fill-opacity:1;stroke-width:0.264583;stroke-opacity:0.0627451"
       d="m -340.43682,122.77107 v 0 l -16.50339,-0.23151 5.82083,-2.08359 8.5157,0.96568 z"
       id="path2286" />
    <path
       style="fill:#143538;fill-opacity:1;stroke-width:0.264583;stroke-opacity:0.0627451"
       d="m -370.47987,108.04479 1.07576,-1.4967 19.22336,2.38538 z"
       id="path2288" />
    <path
       style="fill:#143538;fill-opacity:1;stroke-width:0.264583;stroke-opacity:0.0627451"
       d="m -358.92715,102.85308 h 0.28064 l 9.16734,0.8419 -0.28422,-1.75984 z"
       id="path2290" />
    <path
       style="fill:#143538;fill-opacity:1;stroke-width:0.264583;stroke-opacity:0.0627451"
       d="m -257.38477,106.361 -14.59112,0.60127 14.31048,-1.95767 z"
       id="path2296" />
  </g>
</svg>
