<?xml version="1.0" encoding="UTF-8" standalone="no"?>
<svg
   xmlns:dc="http://purl.org/dc/elements/1.1/"
   xmlns:cc="http://creativecommons.org/ns#"
   xmlns:rdf="http://www.w3.org/1999/02/22-rdf-syntax-ns#"
   xmlns:svg="http://www.w3.org/2000/svg"
   xmlns="http://www.w3.org/2000/svg"
   xmlns:sodipodi="http://sodipodi.sourceforge.net/DTD/sodipodi-0.dtd"
   xmlns:inkscape="http://www.inkscape.org/namespaces/inkscape"
   width="3227.938"
   height="2426.9231"
   version="1.1"
   viewBox="0 0 3227.938 2426.9231"
   id="svg12166"
   sodipodi:docname="Dive.svg"
   inkscape:version="1.0.1 (3bc2e813f5, 2020-09-07)">
  <defs
     id="defs12170">
    <pattern
       id="EMFhbasepattern"
       patternUnits="userSpaceOnUse"
       width="6"
       height="6"
       x="0"
       y="0" />
  </defs>
  <sodipodi:namedview
     pagecolor="#ffffff"
     bordercolor="#666666"
     borderopacity="1"
     objecttolerance="10"
     gridtolerance="10"
     guidetolerance="10"
     inkscape:pageopacity="0"
     inkscape:pageshadow="2"
     inkscape:window-width="1920"
     inkscape:window-height="991"
     id="namedview12168"
     showgrid="false"
     inkscape:zoom="0.25"
     inkscape:cx="1405.8702"
     inkscape:cy="1546.6376"
     inkscape:window-x="-9"
     inkscape:window-y="-9"
     inkscape:window-maximized="1"
     inkscape:current-layer="svg12166"
     inkscape:document-rotation="0" />
  <metadata
     id="metadata12070">
    <rdf:RDF>
      <cc:Work
         rdf:about="">
        <dc:format>image/svg+xml</dc:format>
        <dc:type
           rdf:resource="http://purl.org/dc/dcmitype/StillImage" />
        <dc:title></dc:title>
      </cc:Work>
    </rdf:RDF>
  </metadata>
  <rect
     style="fill:#e5dcb9;fill-opacity:1;stroke-opacity:0.0627451"
     id="rect2429"
     width="238.42619"
     height="868.18231"
     x="-3412.1101"
     y="3235.8442" />
  <path
     style="fill:#d9cda5;fill-opacity:1;stroke-opacity:0.0627451"
     d="m 2831.938,680 -273,49 -68,10 -40.1059,5.716 L 2426.938,592 1016.8195,888.25866 1638.938,1860 l 1118,-700 z"
     id="path2695" />
  <path
     style="fill:#ccbc8f;fill-opacity:1;stroke-opacity:0.0627451"
     d="m 2426.938,592 -4,-60 80,-166 -580,-366 -426,524 -334,42 -86,-132 -918.54614,242.1266 50.9117,108.89447 L 82.02436,1091.9054 0,1089.7841 93.15325,2092.4609 586.93796,2208 l 211.032,-6.9976 -165.8165,225.9206 558.78454,-0.923 732,-16 339.5,4.5 -155.5,-122 591.3815,-32.4542 -16.9706,53.7401 430.1499,-94.7903 L 3227.938,2062 l -333,-1391 -63,9 -235.2411,430.1572 -641.3464,809.9979 -799.938,-263.9785 L 1138.938,944 Z"
     id="path2693"
     sodipodi:nodetypes="cccccccccccccccccccccccccccccc" />
  <path
     style="fill:#8c6b3f;fill-opacity:1;stroke-opacity:0.0627451"
     d="M 1203.8824,2016.6735 972.93796,2128 l -106,-24 -248,26 -32,78 -493.78471,-115.5391 v 0 L 86.87909,1995 l 276.05887,-9 190,-102 85.5,15 z"
     id="path2691"
     sodipodi:nodetypes="cccccccccccc" />
  <path
     style="fill:#8c6b3f;fill-opacity:1;stroke-opacity:0.0627451"
     d="m 1997.938,2373 -75,37 -732,16 44,-68 108,-76 -108,-2 60,-126 z"
     id="path2689" />
  <path
     style="fill:#8c6b3f;fill-opacity:1;stroke-opacity:0.0627451"
     d="m 2159.5041,1931.2412 38.8909,106.066 356.543,20.6928 279.146,81.8377 292.854,-5.8377 101,-72 -109,-10 -62,42 -110,-57 -153,-52 -120,-114 -438,2 z"
     id="path2685" />
  <path
     style="fill:#ccbc8f;fill-opacity:1;stroke-opacity:0.0627451"
     d="m 2490.938,739 68,-10 -530,890 -320.568,83.8457 z"
     id="path2681" />
  <path
     style="fill:#8c6b3f;fill-opacity:1;stroke-opacity:0.0627451"
     d="m 2655.1859,1639.9132 -14.1421,110.3086 -70.7107,89.8026 149.9067,-40.3051 z"
     id="path2677" />
  <path
     style="fill:#997a4b;fill-opacity:1;stroke-opacity:0.0627451"
     d="m 2655.1859,1639.9132 10.6067,52.3259 54.4472,107.4802 31.1127,-108.1873 -7.7782,-77.0747 z"
     id="path2675" />
  <path
     style="fill:#a68a5b;fill-opacity:1;stroke-opacity:0.0627451"
     d="m 2320.187,1917.2325 549.2523,-205.9015 16.9706,100.4091 50.9117,-87.6812 10.6164,-133.0589 89.7927,35.4781 -22.6274,124.4508 -113.1371,176.0696 -130.1076,117.3798 141.4213,-30.4056 113.1371,-93.3381 16.9706,-45.2549 46.669,97.5808 -33.9411,65.0538 -222.0315,101.8234 -62.2254,-95.4594 -64.6706,-90.8783 z"
     id="path2669" />
  <path
     style="fill:#a68a5b;fill-opacity:1;stroke-opacity:0.0627451"
     d="m 1694.9349,2040.8427 82.7315,69.2965 29.6985,98.9949 135.7645,49.4975 54.8086,114.3684 -409.7762,-40.8293 -138.5929,-210.7178 48.0833,-184.5549 40.305,3.5356 z"
     id="path2667" />
  <path
     style="fill:#997a4b;fill-opacity:1;stroke-opacity:0.0627451"
     d="m 267.93796,1551.5 34.5,137 50,-20.5 49,98.5 135.8105,13.9317 396.6895,-46.9317 13.8615,-39.7149 -95.4888,-110.8024 -148.1992,41.7011 -34.0024,-121.8954 -80.515,9.3026 55.4944,144.9913 -203.6934,56.7775 -25.3415,-146.5952 173.5405,-55.1736 80.515,-9.3026 70.8919,-32.3984 88.2136,-8.0195 23.0961,120.6122 95.4888,110.8024 -333.4307,174.6542 24.0692,30.5607 39.6774,153.8635 241.1234,-41.0122 462.69924,35.6487 -87,106.5 8,56 223,41 -134.3519,69.1499 57.9828,70.7107 548.3691,-17.8606 -298.5,-60.5 -19,-48.5 -67,-9 -8.5,-35.5 98,6 -179.83,-99.8045 -25.4558,-188.7975 40.305,3.5356 156.9777,100.4091 95.4595,-3.5355 12.7279,29.6985 158.3157,-24.5057 41.0918,33.7099 58.0668,4.5364 137.7984,-43.4391 508.793,-83.8072 64.6706,90.8783 130.1076,-117.3798 57.9828,-168.9985 -12.011,-167 -45,169 -42,40 -540.751,117.2325 -130.6309,51.4853 -0.3535,-15.5563 111.0962,-67.3651 248.2814,-231.6011 9.3578,-223.1953 80.2774,-101.5067 -28.9914,-28.6378 271.529,-422.49633 -27.2236,-14.84925 -256.8325,246.64728 -367.8963,476.723 -697.2073,130.1076 -319.6123,-428.5067 -577.65204,99.092 -131.5577,58.0668 z"
     id="path2665" />
  <path
     style="fill:#a68a5b;fill-opacity:1;stroke-opacity:0.0627451"
     d="m 647.01316,607.1786 56.9248,29.8214 6,51 361.00004,209 23,-42 80,40 -8,20 87.9856,209.2714 -30.7944,73.1372 -111.5629,137.995 L 871.93796,1350 644.30936,998.34353 Z"
     id="path2659" />
  <path
     style="fill:#8c6b3f;fill-opacity:1;stroke-width:0.999999;stroke-opacity:0.0627451"
     d="m 1796.1202,1616.2114 18.1459,-34.0236 76.6663,-30.848 7.7122,-53.0768 81.2029,-18.1459 -0.9074,-27.2188 132.465,-49.9012 120.5681,-173.5108 22.7754,16.0388 -52.6077,191.8248 105.215,189.9001 -146.5032,232.1164 -71.6253,9.7496 -141.7836,-4.4909 -5.1322,-13.4726 -123.1786,-26.3038 -21.8129,-98.7994 z"
     id="path2501" />
  <path
     style="fill:#805c33;fill-opacity:1;stroke-width:0.999999;stroke-opacity:0.0627451"
     d="m 2046.0799,144.579 36.2917,10.8875 11.7951,30.8481 -166.0351,344.7721 204.1413,126.114 9.9802,37.1991 -21.7749,4.5364 -205.956,-142.4453 -233.9649,494.6433 69.2879,52.6074 24.3791,-5.1324 29.5113,37.2101 102.6487,67.3632 -0.3206,21.1713 38.1725,25.983 18.9259,25.6622 9.6233,45.5503 -40.0973,-12.8311 -264.9619,-226.7894 -171.9365,352.8549 -100.2403,-87.5853 191.4394,-354.75229 -227.2773,-167.84951 -6.8049,-37.19912 25.4044,-6.35107 24.4969,14.51673 -3.1756,17.23861 205.0488,139.72339 240.8867,-435.04794 -165.652,-129.0687 1.2832,-19.8882 25.662,-4.4909 13.4726,17.3221 146.2746,98.7993 z"
     id="path2495" />
  <path
     style="fill:#b29a6b;fill-opacity:1;stroke-width:0.999999;stroke-opacity:0.0627451"
     d="m 1253.9236,1124.2714 -35.7944,77.6372 53.7579,397.4338 147.8783,14.7557 2.887,85.006 229.6765,123.1784 166.8041,2.5662 -21.8129,-98.7994 135.8017,-12.7574 -17.6924,-50.8085 -29.487,-6.8047 -15.1642,-42.8637 -73.4581,-22.4544 -61.5892,-8.9818 -26.9452,-65.1177 27.2661,3.8493 1.2831,-26.3037 -20.8506,-6.4156 0.9623,-7.6986 57.4193,0.3208 19.2464,47.1542 66.0802,-17.322 -5.7741,-37.2101 -55.5762,-89.1452 -463.4411,-109.0951 31.5685,124.9728 153.5198,42.1521 17.5056,2.759 12.2485,54.4376 45.8182,5.4438 16.785,55.7987 -87.2248,-2.3178 -3.8495,25.0206 -12.1894,18.9259 -86.289,-3.2078 -56.3244,-199.0121 -30.7667,-124.8124 z"
     id="path2497"
     sodipodi:nodetypes="cccccccccccccccccccccccccccccccccccccc" />
  <path
     style="fill:#e5dcb9;fill-opacity:1;stroke-width:0.999999;stroke-opacity:0.0627451"
     d="m 1179.6131,926.66722 121.5778,268.55928 65.3253,-5.4437 11.869,-116.8358 71.2125,-11.548 6.4155,23.7376 -26.3037,12.831 3.8493,75.7035 103.2904,-27.5869 -10.2651,-112.272 52.6076,-14.7557 7.6988,28.8699 -7.6988,-1.2831 -5.1325,26.9453 116.1214,-31.4362 -22.4425,-238.87726 80.2957,-208.67784 25.404,7.2584 -6.8047,106.6071 48.5404,9.5266 6.8045,-173.7469 19.0534,166.9422 -2.0103,289.2667 23.0961,-8.9818 10.9063,-27.58681 42.9841,18.60507 54.7669,-24.06528 9.9802,9.98023 9.9804,-61.69602 -29.0335,-58.06689 -27.6726,0.90732 -0.4537,17.23856 -25.8578,0.90731 -1.3609,-40.82826 21.775,-59.42785 14.9704,58.06688 18.3559,23.40036 27.9161,58.3696 21.5836,0.63333 -4.1182,31.46223 55.7988,7.25836 -2.9489,26.31156 -32.6627,5.44379 -3.6291,49.44751 14.0631,22.2287 16.7849,-31.7553 3.6292,238.6186 46.2722,-308.48031 2.0413,-313.47029 -13.6093,-2.9488 -5.6707,50.5817 -66.4594,40.8283 -107.6488,-84.1769 -62.8725,-176.4274 -57.0982,-36.5686 -192.2311,304.4313 -245.8771,151.51822 z"
     id="path2485" />
  <path
     style="fill:#805c33;fill-opacity:1;stroke-width:0.999999;stroke-opacity:0.0627451"
     d="m 1521.7724,1582.6619 v -1.9246 l 3.8495,-23.096 8.9818,0.6416 -7.0571,-41.3803 -67.0424,-31.4361 73.137,-4.8117 -13.1518,-39.1348 -153.5198,-42.1521 56.3244,199.0121 86.289,3.2078 z"
     id="path2493" />
  <path
     style="fill:#000000;fill-opacity:0;stroke-width:0.999999;stroke-opacity:0.0627451"
     d="m 1366.9696,1399.3679 49.9014,207.7705 114.7729,3.6292 2.7217,-34.4772 -16.7848,0.9073 -9.5268,17.6922 -70.3151,-2.7219 z"
     id="path2487" />
  <path
     style="fill:#d2c89d;fill-opacity:1;stroke-width:0.999999;stroke-opacity:0.0627451"
     d="m 1708.7857,1516.2611 8.0193,79.8735 79.232,3.2078 11.5481,32.0777 63.1931,-18.6051 -73.4581,-22.4544 -61.5892,-8.9818 z"
     id="path2489" />
  <path
     style="fill:#000000;fill-opacity:0;stroke-width:0.999999;stroke-opacity:0.0627451"
     d="m 1422.6524,1699.1041 49.3997,137.2926 180.2768,-14.1142 -220.0533,-120.6122 z"
     id="path2527" />
  <path
     style="fill:#805c33;fill-opacity:1;stroke-width:0.999999;stroke-opacity:0.0627451"
     d="m 1432.2756,1701.6703 62.8725,110.9889 157.1808,9.6233 -20.5297,-109.7058 z"
     id="path2491" />
  <path
     style="fill:#b29a6b;fill-opacity:1;stroke-width:0.999999;stroke-opacity:0.0627451"
     d="m 2068.6977,1807.5267 20.5297,61.5893 109.0643,3.2078 398.4052,-762.1666 -222.6193,217.4869 -124.4616,27.5868 -14.7558,-21.1713 44.2672,-74.4203 -24.3788,-14.1142 -249.5648,411.2364 7.6986,28.2284 104.5734,-10.2649 152.6899,-84.6852 17.3219,67.3632 -111.6304,66.0801 1.283,48.7582 z"
     id="path2499" />
  <path
     style="fill:#bba778;fill-opacity:1;stroke-width:0.999999;stroke-opacity:0.0627451"
     d="m 2089.2274,1869.116 24.3791,91.7423 58.3815,1.283 14.114,-23.0959 12.1897,-66.7216 z"
     id="path2503" />
  <path
     style="fill:#bba778;fill-opacity:1;stroke-width:0.999999;stroke-opacity:0.0627451"
     d="m 1964.4234,1972.7782 -9.0729,-52.6231 -60.7887,20.8678 9.9802,27.2189 z"
     id="path2505" />
  <path
     style="fill:#805c33;fill-opacity:1;stroke-width:0.999999;stroke-opacity:0.0627451"
     d="m 1947.4438,1864.6251 7.9067,55.53 9.0729,52.6231 42.643,10.8876 -4.5366,92.5441 15.424,15.424 42.6428,-10.8876 53.0099,-119.888 -24.3791,-91.7423 z"
     id="path2507" />
  <path
     style="fill:#805c33;fill-opacity:1;stroke-width:0.999999;stroke-opacity:0.0627451"
     d="m 2284.26,1798.2242 6.0946,44.588 129.2733,-73.4579 9.6233,-61.91 -95.2709,46.1919 1.9248,22.7752 z"
     id="path2509" />
  <path
     style="fill:#8c6b3f;fill-opacity:1;stroke-width:0.999999;stroke-opacity:0.0627451"
     d="m 906.74426,1261.6859 -71.9029,-141.7648 -147.8892,-116.1338 -42.6428,-5.44377 -64.418,17.23857 -12.702,-37.19901 -240.4334,145.16711 2.7222,48.0867 -57.16,40.8282 4.1974,20.229 50.6828,1.2831 2.2455,-41.0595 93.0254,-14.1142 79.3951,108.9671 0.9069,157.8693 131.5577,-58.0668 90.9539,-0.2644 171.295,-109.0642 z"
     id="path2515" />
  <path
     style="fill:#b29a6b;fill-opacity:1;stroke-opacity:0.0627451"
     d="m 1223.1292,1197.4086 -219.0376,181.5822 163.2734,208.6408 104.5221,11.7108 z"
     id="path2661" />
  <path
     style="fill:#805c33;fill-opacity:1;stroke-width:0.999999;stroke-opacity:0.0627451"
     d="m 1044.4262,1497.8094 -2.7217,49.4475 125.6605,40.3747 -1.361,-45.8184 -19.9605,-10.4339 2.2681,-42.1892 49.4479,2.7219 -91.6371,-41.7356 -2.268,-33.1163 -20.8681,-13.6094 -8.1657,-38.1064 53.5307,27.2189 -16.785,-57.1596 -75.3057,-12.2485 -15.2211,-41.0614 -51.96614,-9.6233 -1.9247,-51.9659 25.6622,-3.8493 -50.0412,-60.9477 -30.1529,1.9247 14.114,64.797 -30.1529,55.8152 -130.8772,38.4933 -10.9064,-24.3791 -28.8699,20.5297 -0.6415,74.4203 110.3474,1.9247 z"
     id="path2511" />
  <path
     style="fill:#8c6b3f;fill-opacity:1;stroke-width:0.999999;stroke-opacity:0.0627451"
     d="m 741.00096,1470.39 -70.8919,32.3984 34.0024,121.8954 148.1992,-41.7011 -9.6233,-55.1736 z"
     id="path2517" />
  <path
     style="fill:#805c33;fill-opacity:1;stroke-width:0.999999;stroke-opacity:0.0627451"
     d="m 741.00096,1470.39 10.2648,66.7216 91.4216,-9.3025 -13.4728,-65.4386 z"
     id="path2513" />
  <path
     style="fill:#8c6b3f;fill-opacity:1;stroke-width:0.999999;stroke-opacity:0.0627451"
     d="m 441.39506,1713.8598 -5.1325,-27.5868 89.8178,-20.8505 -11.8688,-86.9306 -96.2333,-1.6039 -1.9247,-9.6234 173.5405,-55.1736 22.7751,59.6645 -42.6632,5.774 8.6608,78.5904 66.7217,0.9624 z"
     id="path2519" />
  <path
     style="fill:#997a4b;fill-opacity:1;stroke-width:0.999999;stroke-opacity:0.0627451"
     d="m 389.74986,804.7773 v 48.11657 l 178.9936,-117.40447 -1.283,-87.2514 64.1555,-46.1919 15.3972,5.1325 -2.7038,391.16493 -371.9912,214.12157 4.1974,20.229 -1.0213,90.9146 37.6524,51.2622 -16.785,13.1558 -16.3314,-10.4339 -8.6191,99.3488 -2.7222,-174.2006 -18.5993,36.2918 -14.5165,-14.5167 29.033,-49.4476 -1.8143,-175.1079 -35.8383,45.1379 -14.0628,-24.9506 47.4063,-87.7808 -19.0538,15.6508 6.723,-66.1716 -28.2283,0.32077 2.8871,-25.34141 40.7387,-6.73632 2.887,-112.59277 65.4386,-41.05949 z"
     id="path2521" />
  <path
     style="fill:#8c6b3f;fill-opacity:1;stroke-width:0.999999;stroke-opacity:0.0627451"
     d="m 537.24846,1780.4317 77.1203,88.0076 211.3994,-69.8617 378.11424,218.0959 -81.4773,-147.5575 -174.60564,-175.3309 -130.6502,-2.2683 z"
     id="path2523" />
  <path
     style="fill:#8c6b3f;fill-opacity:1;stroke-width:0.999999;stroke-opacity:0.0627451"
     d="m 2300.2988,1885.7964 19.8882,31.4361 144.9912,-52.6074 83.402,-210.4298 z"
     id="path2525" />
  <rect
     style="fill:#d9cda5;fill-opacity:1;stroke-opacity:0.0627451"
     id="rect2429-0"
     width="238.42619"
     height="868.18231"
     x="-3173.6838"
     y="3235.8442" />
  <rect
     style="fill:#ccbc8f;fill-opacity:1;stroke-opacity:0.0627451"
     id="rect2429-0-7"
     width="238.42619"
     height="868.18231"
     x="-2935.2576"
     y="3235.8445" />
  <rect
     style="fill:#bfab7c;fill-opacity:1;stroke-opacity:0.0627451"
     id="rect2429-0-7-7"
     width="238.42619"
     height="868.18231"
     x="-2696.8313"
     y="3235.8442" />
  <rect
     style="fill:#b29a6b;fill-opacity:1;stroke-opacity:0.0627451"
     id="rect2429-0-7-7-4"
     width="238.42619"
     height="868.18231"
     x="-2458.405"
     y="3235.8442"
     inkscape:transform-center-x="227.68839"
     inkscape:transform-center-y="-35.355339" />
  <rect
     style="fill:#a68a5b;fill-opacity:1;stroke-opacity:0.0627451"
     id="rect2429-0-7-7-4-6"
     width="238.42619"
     height="868.18231"
     x="-2219.979"
     y="3235.8442"
     inkscape:transform-center-x="227.68839"
     inkscape:transform-center-y="-35.355339" />
  <rect
     style="fill:#997a4b;fill-opacity:1;stroke-width:0.999999;stroke-opacity:0.0627451"
     id="rect2429-0-7-7-4-6-1"
     width="238.42619"
     height="868.18231"
     x="-1981.5527"
     y="3235.8445"
     inkscape:transform-center-x="227.68839"
     inkscape:transform-center-y="-35.355306" />
  <rect
     style="fill:#8c6b3f;fill-opacity:1;stroke-opacity:0.0627451"
     id="rect2429-0-7-7-4-6-1-0"
     width="238.42619"
     height="868.18231"
     x="-1743.1265"
     y="3235.8445"
     inkscape:transform-center-x="227.68839"
     inkscape:transform-center-y="-35.355339" />
  <rect
     style="fill:#805c33;fill-opacity:1;stroke-opacity:0.0627451"
     id="rect2429-0-7-7-4-6-1-0-3"
     width="238.42619"
     height="868.18231"
     x="-1504.7004"
     y="3235.8445"
     inkscape:transform-center-x="227.68839"
     inkscape:transform-center-y="-35.355339" />
  <path
     style="fill:#d9cda5;fill-opacity:1;stroke-opacity:0.0627451"
     d="m 1366.9696,1399.3679 45.2184,209.8821 97.395,-7.6622 -86.289,-3.2078 z"
     id="path2651" />
  <path
     style="fill:#d9cda5;fill-opacity:1;stroke-opacity:0.0627451"
     d="m 1432.2756,1701.6703 39.7765,134.7264 180.2768,-14.1142 -157.1808,-9.6233 z"
     id="path2653" />
  <path
     style="fill:#8c6b3f;fill-opacity:1;stroke-opacity:0.0627451"
     d="m 1129.938,1128 -27,-50 -339.00004,-164 z"
     id="path2655" />
  <path
     style="fill:#8c6b3f;fill-opacity:1;stroke-opacity:0.0627451"
     d="m 721.93796,879 1,-115 L 1024.938,941 744.93796,802 Z"
     id="path2657" />
  <path
     style="fill:#a68a5b;fill-opacity:1;stroke-opacity:0.0627451"
     d="m 94.75226,1830.1249 162.6346,135.7645 -101.8234,-247.4874 z"
     id="path2671" />
  <path
     style="fill:#a68a5b;fill-opacity:1;stroke-opacity:0.0627451"
     d="m 369.43796,1887.5 12.5,61 90.5,66 -49.5,-142.5 z"
     id="path2673" />
  <path
     style="fill:#997a4b;fill-opacity:1;stroke-opacity:0.0627451"
     d="M 94.75226,1830.1249 196.93796,2058 l 30,12 245.5,-55.5 -90.5,-66 -12.5,-61 -44.5,8.5 34,112 z"
     id="path2679" />
  <path
     style="fill:#8c6b3f;fill-opacity:1;stroke-opacity:0.0627451"
     d="m 1856.938,2156 150,146 336,-114 -206,-52 z"
     id="path2687" />
</svg>
