<?xml version="1.0" encoding="UTF-8" standalone="no"?>
<svg
   xmlns:dc="http://purl.org/dc/elements/1.1/"
   xmlns:cc="http://creativecommons.org/ns#"
   xmlns:rdf="http://www.w3.org/1999/02/22-rdf-syntax-ns#"
   xmlns:svg="http://www.w3.org/2000/svg"
   xmlns="http://www.w3.org/2000/svg"
   xmlns:sodipodi="http://sodipodi.sourceforge.net/DTD/sodipodi-0.dtd"
   xmlns:inkscape="http://www.inkscape.org/namespaces/inkscape"
   width="811.90302"
   height="577.4491"
   version="1.1"
   viewBox="0 0 811.903 577.4491"
   id="svg12166"
   sodipodi:docname="Into the Fog.svg"
   inkscape:version="1.0.1 (3bc2e813f5, 2020-09-07)">
  <defs
     id="defs12170">
    <pattern
       id="EMFhbasepattern"
       patternUnits="userSpaceOnUse"
       width="6"
       height="6"
       x="0"
       y="0" />
  </defs>
  <sodipodi:namedview
     pagecolor="#ffffff"
     bordercolor="#666666"
     borderopacity="1"
     objecttolerance="10"
     gridtolerance="10"
     guidetolerance="10"
     inkscape:pageopacity="0"
     inkscape:pageshadow="2"
     inkscape:window-width="1920"
     inkscape:window-height="991"
     id="namedview12168"
     showgrid="false"
     inkscape:zoom="0.1767767"
     inkscape:cx="-775.90709"
     inkscape:cy="1283.1754"
     inkscape:window-x="-9"
     inkscape:window-y="-9"
     inkscape:window-maximized="1"
     inkscape:current-layer="svg12166"
     inkscape:document-rotation="0" />
  <metadata
     id="metadata12070">
    <rdf:RDF>
      <cc:Work
         rdf:about="">
        <dc:format>image/svg+xml</dc:format>
        <dc:type
           rdf:resource="http://purl.org/dc/dcmitype/StillImage" />
        <dc:title></dc:title>
      </cc:Work>
    </rdf:RDF>
  </metadata>
  <g
     transform="matrix(3.7795278,0,0,3.7795278,1686.4555,595.78057)"
     stroke-opacity="0.06275"
     stroke-width="0.2646"
     id="g2911">
    <path
       d="m -362.7,-32.32 -19.28,-1.403 -19.71,-10.57 4.258,-57.77 17.57,-1.455 12.97,4.101 59.87,-6.35 13.45,5.292 16.6,1.72 13.45,9.393 3.309,33.23 3.6,6.361 -18.85,8.092 -26.23,5.332 -2.743,3.274 z"
       fill="#7c9578"
       id="path2705"
       style="fill:#a68a5b;fill-opacity:1" />
    <g
       transform="translate(38.34,-12.02)"
       id="g2711" />
    <path
       d="m -355.7,-33.44 -24.68,-1.38 -21.35,-9.471 -2.954,-18.94 12.61,-26.26 11.82,-1.621 59.01,7.577 15.94,2.76 6.942,-3.555 11.66,0.6548 11.66,11.13 16.46,21.7 -15.77,9.261 -35.47,3.749 3.182,9.922 z"
       fill="#3c6962"
       id="path2713"
       style="fill:#b29a6b;fill-opacity:1" />
    <path
       d="m -392.6,-47.42 2.182,-8.202 -6.909,1.257 9.591,-19.72 7.863,-5.218 -1.697,4.895 9.575,-1.72 0.1212,-2.249 11.65,-0.8998 -1.114,3.929 h 4.671 l -0.2143,5.847 -8.399,1.637 -3.257,5.051 6.482,1.965 -0.0541,8.419 5.314,-4.022 4.371,1.31 -5.399,7.484 29.05,2.152 4.288,-10.64 8.915,-2.607 h 7.708 l -6.849,-7.476 2.393,-2.518 -0.0857,-1.777 5.142,-0.3274 v -4.116 l 12.23,1.624 2.303,2.249 6.424,0.6615 -0.7878,-3.506 5.878,0.7938 4,20.57 -2.182,3.175 3.757,5.292 2.303,-0.1323 2.666,5.424 -42.91,-0.926 5.575,9.79 -59.27,0.1323 5.697,-6.085 -19.15,-0.1323 z"
       fill="#728e77"
       id="path2715"
       style="fill:#ccbc8f;fill-opacity:1" />
    <path
       d="m -237,-40.33 -6.922,0.2258 -1.871,-6.097 -5.987,0.9033 -4.412,-6.594 1.058,-7.346 -4.829,-3.992 -5.953,2.555 -6.014,-1.836 -2.915,-6.387 -7.607,-2.954 -4.089,3.464 -6.494,-4.902 -0.9922,-4.631 0.4331,-5.204 -4.677,-3.726 -2.107,1.615 -3.461,-5.42 -5.426,1.581 -6.267,-2.823 -1.497,-4.404 -9.261,-0.1129 -1.31,3.839 -7.296,-0.2258 -2.713,-4.63 -8.7,2.484 -2.526,4.742 -5.519,1.242 -1.684,-2.936 -7.443,2.991 -0.8188,5.749 -5.796,-0.3367 -2.249,-5.285 -5.159,2.076 -1.588,4.391 -5.821,1.198 -5.755,-3.832 -6.769,2.795 -0.0437,4.711 -2.986,2.315 -3.827,-0.7984 -2.961,5.19 0.5795,4.232 -2.91,3.114 -3.704,-0.6388 -5.093,3.832 -0.5953,3.673 -5.226,2.795 -2.91,-2.635 -3.506,-0.2395 -2.815,2.076 -3.932,-2.395 -0.1323,-4.95 -5.206,-3.186 -1.123,-5.533 2.526,-5.985 -0.3742,-7.227 -1.684,-4.178 -0.5342,-4.798 2.686,-4.799 0.0537,-0.1149 5.011,5.473 5.8,-9.033 7.764,1.807 5.987,-2.258 1.216,-3.613 11.13,-1.355 5.772,3.21 6.386,-4.503 6.846,0.7606 2.731,-4.936 10.44,-4.166 6.377,0.3064 7.833,-5.03 5.821,2.076 1.323,5.429 7.805,0.2395 3.638,-5.948 8.83,0.0399 2.315,7.106 6.945,-1.158 5.118,-4.8 8.068,-0.7057 1.567,5.053 6.876,1.051 3.373,-3.793 7.276,3.234 0.1654,4.711 11.05,3.576 3.882,-3.387 4.397,1.807 2.947,6.718 7.951,2.766 4.771,-3.387 5.566,6.041 -2.292,6.267 6.682,-3.475 8.653,5.13 3.742,9.079 -0.4677,8.07 -4.022,3.557 -0.008,6.338 3.969,5.27 0.0661,9.102 z"
       fill="#ffffff"
       fill-opacity="0.5"
       id="path2719" />
    <g
       fill="#faff00"
       id="g2727" />
    <path
       d="m -392.6,-47.42 19.15,5.689 22.18,-7.541 -13.57,-9.393 z"
       fill="#7c9578"
       id="path2729"
       style="fill:#d9cda5;fill-opacity:1" />
    <g
       transform="translate(43.94,1.162)"
       id="g2735" />
    <path
       d="m -241.5,-44.78 -1.497,-4.864 -6.829,-2.152 -6.735,3.555 -5.706,-5.613 0.0935,-3.648 -8.419,-3.648 -5.589,0.9359 -3.298,-4.491 -0.1871,-3.929 -5.8,-4.584 -3.929,0.3742 -4.643,-5.077 2.023,-3.436 -4.864,-0.6548 -4.397,1.123 -5.893,-3.461 0.7484,-3.18 -4.116,-4.303 -5.522,1.864 -5.049,0.662 -2.713,3.087 -7.203,0.1871 -1.777,-2.806 -5.8,-2.152 -1.684,3.181 -5.051,-3.461 -2.281,-3.989 -3.704,-0.2646 -2.712,3.175 -5.622,0.2646 -2.91,-2.778 -3.724,3.125 0.0468,3.414 -3.555,1.824 -3.555,-0.7951 -2.385,4.116 1.731,2.432 -2.245,3.695 -3.695,-0.7484 -2.947,-0.3274 -2.806,3.742 -3.648,-0.0935 -2.432,-3.134 -2.198,0.7951 -2.058,4.116 -7.343,1.31 -2.105,-0.7016 -4.911,2.713 -2.572,-1.497 -4.454,1.123 -0.1767,3.367 -3.274,4.116 -3.976,0.608 -0.2339,2.993 -4.026,1.907 0.2646,2.447 -3.77,1.918 -2.91,-2.183 -5.424,-2.051 -0.5292,-4.696 -1.918,-2.315 3.969,-6.085 0.4538,-6.108 -2.806,-3.555 2.619,-5.145 4.397,-0.6548 1.31,-3.835 5.613,-5.519 0.8419,-3.087 4.41,-1.812 4.945,1.812 4.022,-5.519 0.5613,-1.964 6.829,-4.209 5.145,2.245 6.314,-1.684 2.619,-3.695 6.595,0.9822 3.648,3.742 8.372,-2.479 1.637,-3.742 9.682,-1.918 2.198,3.929 3.555,-2.385 1.543,-4.303 h 8.419 l 1.31,4.256 5.659,0.421 3.461,-3.695 8.419,3.04 1.824,5.051 6.548,0.5145 4.537,-2.76 7.577,3.882 4.565,-0.6998 2.811,-5.358 6.681,0.8599 2.117,5.49 8.202,-1.918 3.175,6.284 4.663,1.323 7.342,-1.191 6.795,3.161 0.2806,5.8 4.63,4.63 9.729,-2.058 2.058,5.94 6.127,4.443 0.1403,6.455 -5.426,4.771 4.009,8.133 6.218,2.315 v 8.004 l -2.58,2.91 1.389,3.44 -2.768,4.86 -3.648,0.9611 -3.299,-3.494 z"
       fill="#ffffff"
       fill-opacity="0.5"
       id="path2737" />
    <g
       id="g2761">
      <path
         d="m -262.3,-99.81 -3.413,-17.82 -27.43,-3.274 -15.7,13.16 1.134,4.522 12.6,-3.181 13.8,7.764 -0.5571,11.51 15.04,-2.339 z"
         fill="#22575b"
         id="path2739"
         style="fill:#997a4b;fill-opacity:1" />
      <path
         d="m -269.9,-84.46 7.515,-15.35 12.67,-8.665 17.21,8.334 -13.39,0.5292 -2.06,10.12 5.333,-3.704 10.12,3.109 -9.151,4.829 3.576,10.45 -25.03,1.257 z"
         fill="#1f4b4c"
         id="path2741"
         style="fill:#997a4b;fill-opacity:1" />
      <path
         d="m -277.7,-95.77 -4.022,-5.767 2.143,-4.21 -4.114,2.058 -1.885,-2.619 -6.428,-0.0935 -3.685,1.871 2.228,-6.642 15.86,-3.929 8.513,9.541 z"
         fill="#143738"
         id="path2743"
         style="fill:#8c6b3f;fill-opacity:1" />
      <path
         d="m -253.6,-85.92 -0.3,-0.09354 -10.11,-0.5613 -3.734,2.353 -0.4228,-0.6691 1.028,-1.31 -3.514,-0.9822 0.3428,-4.771 -4.928,2.011 -0.5571,5.098 -4.328,1.169 -0.5142,6.314 10.2,-1.731 13.28,-2.245 z"
         fill="#14353a"
         id="path2745"
         style="fill:#8c6b3f;fill-opacity:1" />
      <path
         d="m -247.9,-72.69 v -0.3307 l 3.697,-16.34 -4.666,-1.521 0.1212,-3.373 -5.454,1.323 -1.515,15.02 -4.424,5.689 4.848,6.615 z"
         fill="#1b4446"
         id="path2747"
         style="fill:#997a4b;fill-opacity:1" />
      <path
         d="m -273.4,-81.29 5.878,-2.117 5.454,1.654 6.969,-3.903 -0.5454,7.739 -14.67,1.984 z"
         fill="#225355"
         id="path2749"
         style="fill:#a68a5b;fill-opacity:1" />
      <path
         d="m -260.1,-72.23 4.424,-5.689 -11.21,-1.124 -0.3636,3.572 z"
         fill="#112a2e"
         id="path2751"
         style="fill:#805c33;fill-opacity:1" />
      <path
         d="m -280.5,-69.05 3.394,-3.241 -1.225,-7.313 2.957,-1.497 1.904,5.436 1.091,-0.6615 -1.03,-4.961 3.394,3.704 4.424,-0.7938 -2.06,3.836 -7.09,11.64 -5.394,-3.572 z"
         fill="#1b4845"
         id="path2753"
         style="fill:#a68a5b;fill-opacity:1" />
      <path
         d="m -274.2,-65.06 -4.162,-4.985 -0.0606,3.77 -2.06,-2.778 3.394,-3.241 -4,-3.903 -3.091,-0.9922 3.03,4.035 -3.697,-1.191 -2.182,0.3969 2.969,1.588 1.697,3.109 0.5454,3.836 3.091,3.506 -2.909,0.7276 3.394,3.44 5.697,-0.6615 11.39,-5.358 -4.545,-5.226 z"
         fill="#2a645a"
         id="path2755"
         style="fill:#b29a6b;fill-opacity:1" />
      <path
         d="m -271.1,-57.76 0.7713,-5.332 6.342,-2.9 -2.143,-7.577 4.028,-3.555 4.885,7.577 6.171,11.51 -2.657,4.864 -16.54,-1.497 z"
         fill="#163c3f"
         id="path2757"
         style="fill:#8c6b3f;fill-opacity:1" />
      <path
         d="m -398.5,-145 24.94,4.397 7.456,-5.332 -2.4,5.987 5.571,3.181 2.828,-2.806 -0.3428,3.648 10.37,7.858 4.418,17.65 37.45,12.71 4.757,-13.33 7.028,-3.087 -8.399,-2.993 -0.7713,0.7484 -0.6856,-5.893 16.2,-3.087 -14.48,-11.69 4.199,-7.484 -2.657,-4.958 4.285,3.461 13.8,-4.012 -7.757,-5.027 -15.88,-2.514 -15.39,22.62 h -0.8484 l 1.212,-7.011 7.999,-11.77 -16.24,5.821 -3.394,6.085 -12,-12.83 -30.91,-1.455 z"
         fill="#266364"
         id="path2759"
         style="fill:#a68a5b;fill-opacity:1" />
    </g>
    <path
       d="m -335.2,-141.9 9.241,14.71 16.37,29.14 2.4,-1.918 3.771,-11.13 7.028,-3.087 -8.399,-2.993 -0.7713,0.7484 -0.6856,-5.893 16.2,-3.087 -14.48,-11.69 4.199,-7.484 -2.657,-4.958 4.285,3.461 13.8,-4.012 -7.757,-5.027 -15.88,-2.514 -15.39,22.62 h -0.8484 l 1.212,-7.011 7.999,-11.77 -16.24,5.821 z"
       fill-opacity="0.1"
       id="path2763"
       style="fill:#997a4b;fill-opacity:1" />
    <g
       id="g2785">
      <path
         d="m -356.3,-102.4 -11.06,-16.37 -17.74,2.152 3.085,-8.98 32.05,-6.174 9.256,27.31 -12.34,7.179 z"
         fill="#235f5f"
         id="path2765"
         style="fill:#997a4b;fill-opacity:1" />
      <path
         d="m -387.8,-88.23 6.06,-22.69 12.79,-3.061 -7.885,-6.642 -20.48,2.993 -14.23,-3.929 1.8,13.56 7.526,24.59 z"
         fill="#1f5255"
         id="path2767"
         style="fill:#997a4b;fill-opacity:1" />
      <path
         d="m -309.6,-98.03 0.751,-9.713 2.485,-4.101 -6.484,3.638 0.909,-4.498 3.394,-6.747 -5.091,3.373 -0.9696,1.918 -0.3636,-2.844 -3.879,-4.233 -6.545,12.7 z"
         fill="#1f5255"
         id="path2769"
         style="fill:#b29a6b;fill-opacity:1" />
      <path
         d="m -311.4,-97.69 12.97,-8.07 -5.212,12.17 -8.908,1.918 z"
         fill="#1e4a50"
         id="path2771"
         style="fill:#997a4b;fill-opacity:1" />
      <path
         d="m -333.8,-111.3 2.271,8.84 21.9,4.443 -9.942,-21 -12.34,2.572 z"
         fill="#33423d"
         id="path2773"
         style="fill:#b29a6b;fill-opacity:1" />
      <path
         d="m -325.5,-117.2 1.157,7.577 0.7285,-8.045 3.985,9.121 -2.657,-13 3.942,11.69 -2.4,-13.28 z"
         fill="#143a40"
         id="path2775"
         style="fill:#a68a5b;fill-opacity:1" />
      <path
         d="m -308,-86.05 7.09,-5.292 14.42,-1.058 -12.61,-6.085 -11.51,5.622 z"
         fill="#143a40"
         id="path2777"
         style="fill:#8c6b3f;fill-opacity:1" />
      <path
         d="m -355.4,-105 2.727,-1.852 7.03,-3.572 0.6666,-3.506 11.11,-16.58 18.85,-3.555 10.8,8.793 -7.885,2.432 -3,-2.806 0.2571,4.022 -10.03,8.232 -5.571,-1.871 0.9427,2.993 -3.514,1.964 1.241,4.704 -11.01,6.521 -12.34,3.929 z"
         fill="#193f42"
         id="path2779"
         style="fill:#8c6b3f;fill-opacity:1" />
      <path
         d="m -380.2,-91.11 1.157,-7.016 23.18,-9.354 1.779,4.233 -9.964,13.12 z"
         fill="#112f30"
         id="path2781"
         style="fill:#997a4b;fill-opacity:1" />
      <path
         d="m -344.6,-74.27 13.71,-5.987 21.49,-15.18 3.578,2.035 -2.443,-4.35 -8.359,-6.025 -6.454,-3.407 h -8.908 l -5.636,3.903 -7.666,-0.1323 -4.485,-3.142 -3.272,9.293 z"
         fill="#215b58"
         id="path2783"
         style="fill:#a68a5b;fill-opacity:1" />
    </g>
    <g
       transform="translate(10.74,-10.73)"
       id="g2791" />
    <path
       d="m -320.2,-68.89 7.885,0.1403 -6.899,-4.022 -1.414,1.403 -0.3428,-1.543 -2.357,-0.5613 -0.4285,0.8419 -0.4714,-1.029 -4.371,-0.3274 -0.5142,-5.005 0.3428,-1.684 4.885,-0.608 -0.1714,-4.911 14.83,-0.7484 2.914,3.461 -2.143,-5.051 0.3428,-2.058 -1.264,-4.841 -5.464,-0.5613 -1.243,-4.116 -1.002,3.811 -2.727,0.6615 -1.879,-2.381 5.091,-5.755 -5.818,-1.984 -9.393,0.1323 2.06,3.539 0.8787,7.904 -10.52,3.263 -1.885,6.735 4.285,1.216 4.199,2.713 -7.585,0.6548 -4.199,5.332 14.83,6.829 7.028,-1.216 z"
       fill="#0f2c2f"
       id="path2793"
       style="fill:#805c33;fill-opacity:1" />
    <path
       d="m -334.3,-70.37 0.6666,-4.399 0.3939,-3.539 7.454,-1.621 6.666,2.778 0.303,-1.257 4.272,2.414 -11.24,-1.025 z"
       fill="#2f675a"
       id="path2795"
       style="fill:#a68a5b;fill-opacity:1" />
    <g
       transform="translate(-3.327,-1.276)"
       id="g2801" />
    <g
       id="g2843">
      <path
         d="m -335.4,-78.74 h -0.1212 l -3.091,2.977 2.454,0.3307 0.5757,-1.455 1.909,2.117 -0.6666,4.399 8.515,-6.648 0.9696,1.951 -0.7272,3.77 -5.212,2.91 6.608,-2.562 5.078,2.011 3.192,2.689 -3.321,-2.128 -3.471,-0.2806 -3.857,2.456 4.028,2.081 -1.971,2.432 -2.528,-1.497 -2.014,1.824 1.071,0.5613 -2.528,2.128 -0.2357,-1.731 -7.349,-0.304 -18.3,-1.31 0.7285,-6.782 2.528,-0.8419 -0.2143,-2.76 -1.414,-0.3274 -1.213,-9.749 -1.939,0.3307 -0.0303,2.15 -5.636,-8.83 -3.909,-2.447 -2.121,-10.98 -12.12,-8.665 19.88,-2.315 2.606,7.474 5.151,2.514 0.3636,2.447 0.909,0.1984 0.1212,-6.284 -0.8484,-4.63 3.818,4.961 -0.1212,4.895 1.576,-0.8599 3.394,4.564 6.424,-0.2315 1.869,6.703 -3.771,3.789 -4.199,13.42 5.099,-3.461 z"
         fill="#15363b"
         id="path2803"
         style="fill:#8c6b3f;fill-opacity:1" />
      <path
         d="m -342.8,-89.94 1.586,5.753 3.085,-0.1403 0.7713,-2.666 -0.7285,-3.227 2.014,2.806 -0.2143,2.806 4.457,0.1403 0.4285,-2.806 0.0429,-3.04 10.2,6.782 -0.4714,-3.742 -3.358,-4.364 -13.3,-0.926 z"
         fill="#1d504f"
         id="path2805"
         style="fill:#a68a5b;fill-opacity:1" />
      <path
         d="m -349.1,-69.58 0.9696,-1.323 9.272,-2.977 8.848,4.762 -1.697,3.109 z"
         fill="#1d504f"
         id="path2807"
         style="fill:#a68a5b;fill-opacity:1" />
      <path
         d="m -341.1,-69.32 6.206,-0.7009 1.2,3.601 -4.679,6.294 z"
         fill="#396b5c"
         id="path2809"
         style="fill:#b29a6b;fill-opacity:1" />
      <path
         d="m -335.3,-48.88 -0.9696,-11.71 4.606,-5.424 -3.03,-1.323 -4.485,4.829 -1.939,-6.813 -7.939,-0.2646 -3.515,8.996 3.515,5.027 6.363,6.615 3.515,4.961 z"
         fill="#184145"
         id="path2811"
         style="fill:#997a4b;fill-opacity:1" />
      <path
         d="m -392.3,-99.81 0.909,2.051 2.06,-2.249 -2.182,-9.062 -7.515,-4.829 -1.091,8.533 z"
         fill="#0f2e30"
         id="path2813"
         style="fill:#805c33;fill-opacity:1" />
      <path
         d="m -419.8,-120 -1.028,-11.32 11.14,-8.7 9.856,0.0936 6.856,5.238 -5.142,-1.123 -2.485,1.59 -3.257,-1.123 0.4285,2.619 -2.571,2.526 -3.171,9.448 z"
         fill="#17383d"
         id="path2815"
         style="fill:#805c33;fill-opacity:1" />
      <path
         d="m -421.7,-109.5 -0.0606,-10.45 12.06,-5.027 8.181,-0.7276 -4.424,7.011 -2.666,3.043 7.333,4.829 8.363,8.864 0.6666,2.183 -2.788,-0.463 -2.727,3.87 -17.88,-9.955 -2.909,-2.977 z"
         fill="#194045"
         id="path2817"
         style="fill:#997a4b;fill-opacity:1" />
      <path
         d="m -398.1,-84.66 10.97,2.447 -0.6666,-6.019 -4.242,-1.257 -1.151,-6.284 -8.666,-2.315 z"
         fill="#132b33"
         id="path2819"
         style="fill:#805c33;fill-opacity:1" />
      <path
         d="m -400.3,-88.73 -4.671,-3.543 5,-1.621 -2.515,-6.35 -8.908,-6.978 -2.485,-1.588 -1.454,22.56 14.06,1.654 z"
         fill="#18373c"
         id="path2821"
         style="fill:#8c6b3f;fill-opacity:1" />
      <path
         d="m -413.4,-90.98 14.97,-0.5953 -1.545,-2.315 -15.67,-4.331 2.143,15.15 3.557,2.666 15.51,-5.706 -5.871,-2.619 -6.171,2.058 z"
         fill="#1d4b4b"
         id="path2823"
         style="fill:#a68a5b;fill-opacity:1" />
      <path
         d="m -428,-77.03 -5.656,-5.987 -0.857,-7.858 -9.942,-4.771 16.11,-8.7 9.427,6.267 0.3343,-11.25 4.727,0.5292 1.394,26.06 -0.303,10.58 z"
         fill="#1e494f"
         id="path2825"
         style="fill:#a68a5b;fill-opacity:1" />
      <path
         d="m -394.4,-86.11 -8.239,-0.07667 -9.817,3.44 -0.303,10.58 15.82,-8.93 z"
         fill="#1f5754"
         id="path2827"
         style="fill:#b29a6b;fill-opacity:1" />
      <path
         d="m -402.2,-83.41 4.215,0.8064 3.6,-3.508 -0.6428,5.238 0.9856,0.2339 1.903,-5.516 2.636,1.521 -1.539,6.754 3.342,3.789 -2.571,7.437 -11.14,0.9822 -5.999,-6.548 c 0,0 10.42,-22.38 5.212,-11.19 z"
         fill="#1e4846"
         id="path2829"
         style="fill:#a68a5b;fill-opacity:1" />
      <path
         d="m -412.4,-82.74 6.06,7.078 9.817,-0.1323 -1.879,-5.689 -3.394,1.058 -0.3636,-2.977 z"
         fill="#0f2c2e"
         id="path2831"
         style="fill:#805c33;fill-opacity:1" />
      <path
         d="m -414.8,-74.13 -6.085,-7.858 -2.571,-11.32 4.799,-1.871 7.542,22.64 z"
         fill="#194246"
         id="path2833"
         style="fill:#997a4b;fill-opacity:1" />
      <path
         d="m -395.2,-58.23 2.605,-2.222 3.454,-1.389 3,-4.167 -2.454,-0.9922 2.363,-2.877 0.2424,-3.572 -3.091,2.315 -0.2121,-4.266 -3.636,3.77 0.3333,3.01 -9.878,1.488 z"
         fill="#2b6257"
         id="path2835"
         style="fill:#b29a6b;fill-opacity:1" />
      <path
         d="m -431.7,-63.52 3.857,-4.771 -1.157,5.285 10.33,0.5613 4.799,3.835 9.042,1.59 9.642,-1.216 -1.928,-9.916 -14.31,-7.671 -20.18,-3.414 -14.57,8.791 z"
         fill="#1a4043"
         id="path2837"
         style="fill:#997a4b;fill-opacity:1" />
      <path
         d="m -408.4,-45.57 21.21,2.447 -10.06,-11.24 -4.606,3.506 -2.727,-12.37 -4.121,6.019 1.151,10.78 z"
         fill="#1e4a4d"
         id="path2839"
         style="fill:#a68a5b;fill-opacity:1" />
      <path
         d="m -417.2,-63.03 5.212,3.307 10.12,-20.7 -0.3636,-2.977 -3.454,0.6615 z"
         fill="#193a3f"
         id="path2841"
         style="fill:#8c6b3f;fill-opacity:1" />
    </g>
    <g
       fill="#588160"
       id="g2863">
      <path
         d="m -403.8,-70.95 10.2,0.5613 -2.743,-8.325 -4.885,-3.087 -2.657,1.684 z"
         id="path2845"
         style="fill:#b29a6b;fill-opacity:1" />
      <path
         d="m -392.1,-86.15 0.1212,-0.06615 5.636,-5.523 -3.121,7.111 z"
         id="path2847"
         style="fill:#b29a6b;fill-opacity:1" />
      <path
         d="m -399.4,-92.3 0.2727,0.2646 6.121,5.755 -4.788,-10.12 -4.666,-3.836 z"
         id="path2849"
         style="fill:#b29a6b;fill-opacity:1" />
      <path
         d="m -338.3,-92.57 -0.1212,-5.622 3.363,-3.605 6.575,5.556 3.485,4.597 -6.06,-0.09922 z"
         id="path2851"
         style="fill:#b29a6b;fill-opacity:1" />
      <path
         d="m -331.4,-90.32 0.9152,1.388 1.303,4.233 7.981,1.161 z"
         id="path2853"
         style="fill:#b29a6b;fill-opacity:1" />
      <path
         d="m -316,-100.2 -0.0643,0.1169 1.243,4.116 5.464,0.5613 z"
         id="path2855"
         style="fill:#b29a6b;fill-opacity:1" />
      <path
         d="m -266.7,-77.08 2.914,1.871 -0.1286,9.214 -10.28,0.9354 2.957,-8.793 z"
         id="path2857"
         style="fill:#b29a6b;fill-opacity:1" />
      <path
         d="m -278.3,-79.61 2.957,-1.497 -6.513,-6.034 z"
         id="path2859"
         style="fill:#b29a6b;fill-opacity:1" />
      <path
         d="m -274.8,-81.85 4.457,-9.074 1.414,0.9354 0.0857,2.853 z"
         id="path2861"
         style="fill:#b29a6b;fill-opacity:1" />
    </g>
    <g
       id="g2873">
      <path
         d="m -391.1,-77.88 2.812,-2.389 4.878,-1.786 -3.879,4.333 -0.4692,3.63 z"
         fill="#296259"
         id="path2865"
         style="fill:#b29a6b;fill-opacity:1" />
      <path
         d="m -402.4,-109.3 -0.3636,-5.49 -2.121,5.159 -3.03,-1.389 1.939,-7.739 4.424,-7.011 6.424,2.977 5.757,11.51 z"
         fill="#1a4347"
         id="path2867"
         style="fill:#a68a5b;fill-opacity:1" />
      <path
         d="m -402.4,-109.3 8.545,-8.797 8.605,8.996 2.06,6.152 -4.182,-1.852 -1.212,-2.778 -1.697,1.389 -5.818,-1.852 v -3.44 l -0.909,3.175 z"
         fill="#2e6359"
         id="path2869"
         style="fill:#b29a6b;fill-opacity:1" />
      <path
         d="m -312.9,-31.99 7.542,3.929 14.96,-3.134 -19.07,-5.519 z"
         fill="#174243"
         id="path2871"
         style="fill:#997a4b;fill-opacity:1" />
    </g>
    <path
       d="m -360.3,-49.94 25.03,1.058 -5.454,-3.836 2.363,-7.408 -7.393,4.101 0.2424,-5.292 -4.121,3.373 -0.606,-3.506 -8.424,-7.474 4.909,7.607 -7.333,1.389 6.727,4.101 z"
       fill-opacity="0.5"
       id="path2875"
       style="fill:#805c33;fill-opacity:1" />
    <path
       d="m -348.9,-90.25 0.2121,5.755 5.151,0.1984 0.7029,-5.644 4.509,-2.624 -11.73,-1.72 -5.454,1.786 -2.333,6.085 6.848,1.389 z"
       fill="#1a4347"
       id="path2877"
       style="fill:#997a4b;fill-opacity:1" />
    <path
       d="m -378.4,-96.86 12.04,1.637 2.143,3.227 -3.857,5.192 -8.485,-3.601 3.257,-1.356 z"
       fill-opacity="0.5"
       id="path2879"
       style="fill:#805c33;fill-opacity:1" />
    <path
       d="m -319.2,-77.15 0.7791,-3.667 12.07,-1.691 -6.606,-4.2 -8.484,0.2646 3.151,0.6945 -7.575,5.821 z"
       fill="#1b3a3f"
       id="path2881"
       style="fill:#8c6b3f;fill-opacity:1" />
    <g
       transform="rotate(90,-307.2,-45.26)"
       id="g2887" />
    <g
       id="g2899">
      <path
         d="m -274.7,-51.96 -8.827,-9.916 7.199,3.929 3.342,-5.8 3.6,7.39 13.28,1.684 z"
         fill="#133234"
         id="path2889"
         style="fill:#805c33;fill-opacity:1" />
      <path
         d="m -248.7,-50.19 15,-7.484 -15.17,2.9 1.286,-8.606 -3.771,5.332 4.285,-10.29 6.513,-1.59 -0.2571,-2.245 1.885,1.871 6.856,-1.497 -5.228,-5.426 -11.14,0.9354 -8.742,6.735 6.171,11.51 -2.657,4.864 z"
         fill="#1c484b"
         id="path2891"
         style="fill:#a68a5b;fill-opacity:1" />
      <path
         d="m -254.2,-92.93 -12.71,3.456 1.628,-6.034 6.942,-5.8 5.314,-2.292 3.342,-0.1403 0.9359,9.487 z"
         fill="#1a4647"
         id="path2893"
         style="fill:#997a4b;fill-opacity:1" />
      <path
         d="m -276.8,-93.46 -0.8484,-2.315 1.636,-7.673 6.969,-2.117 1.818,1.654 17.61,0.1706 -20.7,11.79 -2.304,-3.821 -2.848,0.06615 z"
         fill="#0e2a2d"
         id="path2895"
         style="fill:#805c33;fill-opacity:1" />
      <path
         d="m -337.9,-41.6 0.7272,-0.2646 20.85,-13.36 -1.091,-2.381 32.48,2.91 -28.6,14.95 z"
         fill="#7c9578"
         id="path2897"
         style="fill:#d9cda5;fill-opacity:1" />
    </g>
    <path
       d="m -440.6,-85.55 6.922,-0.2258 1.871,6.097 5.987,-0.9033 4.412,6.594 -1.058,7.346 4.829,3.992 5.953,-2.555 6.014,1.836 2.915,6.387 7.607,2.954 4.089,-3.464 6.494,4.902 0.9922,4.631 -0.4331,5.204 4.677,3.726 2.107,-1.615 3.461,5.42 5.426,-1.581 6.267,2.823 1.497,4.404 9.261,0.1129 1.31,-3.839 7.296,0.2258 2.713,4.63 8.7,-2.484 2.526,-4.742 5.519,-1.242 1.684,2.936 7.443,-2.991 0.8188,-5.749 5.796,0.3367 2.249,5.285 5.159,-2.076 1.588,-4.391 5.821,-1.198 5.755,3.832 6.769,-2.795 0.0437,-4.711 2.986,-2.315 3.827,0.7984 2.961,-5.19 -0.5795,-4.232 2.91,-3.114 3.704,0.6387 5.093,-3.832 0.5953,-3.673 5.226,-2.795 2.91,2.635 3.506,0.2395 2.815,-2.076 3.932,2.395 0.1323,4.95 5.206,3.186 1.123,5.533 -2.526,5.985 0.3742,7.227 1.684,4.178 0.5342,4.798 -2.686,4.799 -0.0537,0.1149 -5.011,-5.473 -5.8,9.033 -7.764,-1.807 -5.987,2.258 -1.216,3.613 -11.13,1.355 -5.772,-3.21 -6.386,4.503 -6.846,-0.7606 -2.731,4.936 -10.44,4.166 -6.377,-0.3064 -7.833,5.03 -5.821,-2.076 -1.323,-5.429 -7.805,-0.2395 -3.638,5.948 -8.83,-0.03992 -2.315,-7.106 -6.945,1.158 -5.118,4.8 -8.068,0.7057 -1.567,-5.053 -6.876,-1.051 -3.373,3.793 -7.276,-3.234 -0.1654,-4.711 -11.05,-3.576 -3.882,3.387 -4.397,-1.807 -2.947,-6.718 -7.951,-2.766 -4.771,3.387 -5.566,-6.041 2.292,-6.267 -6.682,3.475 -8.653,-5.13 -3.742,-9.079 0.4677,-8.07 4.022,-3.557 0.008,-6.338 -3.969,-5.27 -0.0661,-9.102 z"
       fill="#ffffff"
       fill-opacity="0.5"
       id="path2901" />
    <path
       d="m -436.1,-81.1 1.497,4.864 6.829,2.152 6.735,-3.555 5.706,5.613 -0.0935,3.648 8.419,3.648 5.589,-0.9359 3.298,4.491 0.1871,3.929 5.8,4.584 3.929,-0.3742 4.643,5.077 -2.023,3.436 4.864,0.6548 4.397,-1.123 5.893,3.461 -0.7484,3.181 4.116,4.303 5.522,-1.864 5.049,-0.662 2.713,-3.087 7.203,-0.1871 1.777,2.806 5.8,2.152 1.684,-3.181 5.051,3.461 2.281,3.989 3.704,0.2646 2.712,-3.175 5.622,-0.2646 2.91,2.778 3.724,-3.125 -0.0468,-3.414 3.555,-1.824 3.555,0.7951 2.385,-4.116 -1.731,-2.432 2.245,-3.695 3.695,0.7484 2.947,0.3274 2.806,-3.742 3.648,0.09354 2.432,3.134 2.198,-0.7951 2.058,-4.116 7.343,-1.31 2.105,0.7016 4.911,-2.713 2.572,1.497 4.454,-1.123 0.1767,-3.367 3.274,-4.116 3.976,-0.608 0.2339,-2.993 4.026,-1.907 -0.2646,-2.447 3.77,-1.918 2.91,2.183 5.424,2.051 0.5292,4.696 1.918,2.315 -3.969,6.085 -0.4538,6.108 2.806,3.555 -2.619,5.145 -4.397,0.6548 -1.31,3.835 -5.613,5.519 -0.8419,3.087 -4.41,1.812 -4.945,-1.812 -4.022,5.519 -0.5613,1.964 -6.829,4.209 -5.145,-2.245 -6.314,1.684 -2.619,3.695 -6.595,-0.9822 -3.648,-3.742 -8.372,2.479 -1.637,3.742 -9.682,1.918 -2.198,-3.929 -3.555,2.385 -1.543,4.303 h -8.419 l -1.31,-4.256 -5.659,-0.4209 -3.461,3.695 -8.419,-3.04 -1.824,-5.051 -6.548,-0.5145 -4.537,2.76 -7.577,-3.882 -4.565,0.6998 -2.811,5.358 -6.681,-0.8599 -2.117,-5.49 -8.202,1.918 -3.175,-6.284 -4.663,-1.323 -7.342,1.191 -6.795,-3.161 -0.2806,-5.8 -4.63,-4.63 -9.729,2.058 -2.058,-5.94 -6.127,-4.443 -0.1403,-6.455 5.426,-4.771 -4.009,-8.133 -6.218,-2.315 v -8.004 l 2.58,-2.91 -1.389,-3.44 2.768,-4.86 3.648,-0.9611 3.299,3.494 z"
       fill="#ffffff"
       fill-opacity="0.5"
       id="path2903" />
    <g
       transform="translate(-9.157,16.6)"
       id="g2909" />
  </g>
</svg>
