<?xml version="1.0" encoding="UTF-8" standalone="no"?>
<svg
   xmlns:dc="http://purl.org/dc/elements/1.1/"
   xmlns:cc="http://creativecommons.org/ns#"
   xmlns:rdf="http://www.w3.org/1999/02/22-rdf-syntax-ns#"
   xmlns:svg="http://www.w3.org/2000/svg"
   xmlns="http://www.w3.org/2000/svg"
   xmlns:sodipodi="http://sodipodi.sourceforge.net/DTD/sodipodi-0.dtd"
   xmlns:inkscape="http://www.inkscape.org/namespaces/inkscape"
   width="60.980412mm"
   height="71.564598mm"
   viewBox="0 0 60.980412 71.564598"
   version="1.1"
   id="svg8"
   inkscape:version="1.0.1 (3bc2e813f5, 2020-09-07)"
   sodipodi:docname="Message in a bottle.svg">
  <defs
     id="defs2" />
  <sodipodi:namedview
     id="base"
     pagecolor="#ffffff"
     bordercolor="#666666"
     borderopacity="1.0"
     inkscape:pageopacity="0.0"
     inkscape:pageshadow="2"
     inkscape:zoom="2"
     inkscape:cx="135.75328"
     inkscape:cy="154.81833"
     inkscape:document-units="mm"
     inkscape:current-layer="layer1"
     inkscape:document-rotation="0"
     showgrid="false"
     inkscape:window-width="1920"
     inkscape:window-height="991"
     inkscape:window-x="-9"
     inkscape:window-y="-9"
     inkscape:window-maximized="1" />
  <metadata
     id="metadata5">
    <rdf:RDF>
      <cc:Work
         rdf:about="">
        <dc:format>image/svg+xml</dc:format>
        <dc:type
           rdf:resource="http://purl.org/dc/dcmitype/StillImage" />
        <dc:title></dc:title>
      </cc:Work>
    </rdf:RDF>
  </metadata>
  <g
     inkscape:label="Laag 1"
     inkscape:groupmode="layer"
     id="layer1"
     transform="translate(-538.86213,206.45234)">
    <path
       style="fill:#808080;fill-opacity:0.5;stroke:none;stroke-width:1.165;stroke-miterlimit:4;stroke-dasharray:none;stroke-opacity:0.975708"
       d="m 579.71194,-134.88774 2.56982,-5.7383 7.2099,-6.54844 10.35087,-3.29157 -3.00948,6.47517 -9.10383,7.54727 z"
       id="path883" />
    <path
       style="fill:#ba875c;fill-opacity:1;stroke:#000000;stroke-width:0.264583;stroke-opacity:0"
       d="m 576.8166,-151.14791 0.002,0.0706 0.32724,10.58831 -2.31511,0.16536 -1.79538,-2.8112 2.72831,-7.88348 z"
       id="path873"
       sodipodi:nodetypes="ccccccc" />
    <path
       style="fill:#deaa7a;fill-opacity:1;stroke:#000000;stroke-width:0.264583;stroke-opacity:0"
       d="m 560.39739,-163.70261 9.82694,4.85812 6.59227,7.69658 4.96235,8.8603 1.90428,-0.0668 -1.83747,-3.14042 2.63929,2.70611 4.71062,-0.13364 1.83748,-2.47224 2.76743,-3.10279 -1.37017,-2.36235 3.02382,0.33072 0.6142,-0.85044 -0.37795,-1.84264 -5.2587,-3.23078 -1.39026,-1.03549 -3.93843,-2.97357 -4.39324,-8.31876 -0.90202,-6.48131 -2.90655,-1.06908 z"
       id="path871"
       sodipodi:nodetypes="ccccccccccccccccccccc" />
    <path
       style="fill:#ba875c;fill-opacity:1;stroke:#000000;stroke-width:0.264583;stroke-opacity:0"
       d="m 578.75241,-153.38746 11.54575,-4.60222 -0.73501,-1.13589 -1.40859,-2.5065 -7.51152,4.41079 -1.52008,0.91872 z"
       id="path869" />
    <path
       style="fill:#a06b4b;fill-opacity:1;stroke:#000000;stroke-width:0.264583;stroke-opacity:0"
       d="m 560.4642,-170.2841 7.75081,4.40995 2.83974,-1.4032 4.54359,-9.05376 1.30294,2e-5 2.63927,9.68854 3.57473,4.00905 -3.20723,-6.8822 -0.83521,-5.67951 -0.50114,-6.11379 -7.85104,0.43431 z"
       id="path851" />
    <path
       style="fill:#ba875c;fill-opacity:1;stroke:#000000;stroke-width:0.264583;stroke-opacity:0"
       d="m 580.77668,-171.8209 1.73186,2.01512 0.85045,1.01581 -6.7918,9.16325 -1.38192,-1.10765 -1.40772,0.54805 0.43916,-0.92601 2.74031,-4.25223 z"
       id="path867" />
    <path
       style="fill:#000000;fill-opacity:0.2;stroke:#000000;stroke-width:0.264583;stroke-opacity:0"
       d="m 576.8166,-151.14791 0.0348,0.0602 1.68691,2.92012 1.87086,-5.0447 -0.19417,-0.7538 8.82653,-3.52233 1.25663,-0.50131 -0.73501,-1.13589 -8.35216,3.67495 -0.56795,-1.77066 -1.52008,0.91872 0.22005,-1.26626 -2.77582,-2.0579 6.7918,-9.16325 -0.85045,-1.01581 -4.79557,6.99256 -0.75595,-2.55134 -2.74031,4.25223 -0.43916,0.92601 z"
       id="path865"
       sodipodi:nodetypes="cccccccccccccccccccc" />
    <path
       style="fill:#bd8c61;fill-opacity:1;stroke:#000000;stroke-width:0.264583;stroke-opacity:0"
       d="m 567.81411,-171.01911 3.24064,3.74176 3.40768,-5.61262 -3.77518,0.73497 z"
       id="path849" />
    <path
       style="fill:#e4b181;fill-opacity:1;stroke:#000000;stroke-width:0.264583;stroke-opacity:0"
       d="m 560.4642,-170.2841 -1.23614,1.70381 2.40544,3.4745 6.58151,-0.76836 z"
       id="path853" />
    <path
       style="fill:#000000;fill-opacity:0.2;stroke:#000000;stroke-width:0.264583;stroke-opacity:0"
       d="m 560.39739,-163.70261 9.82694,4.85812 4.96094,-1.88988 4.15774,3.16555 -0.75597,6.14211 -2.8232,0.40837 -2.72831,7.88348 1.79538,2.8112 2.31511,-0.16536 -0.32942,-10.65889 0.0607,0.1084 4.90164,8.7519 1.90428,-0.0668 -1.83747,-3.14042 2.63929,2.70611 4.71062,-0.13364 1.83748,-2.47224 -10.62398,-7.81764 10.02261,-3.24064 -1.39025,-1.03549 1.25663,-0.50131 -0.73501,-1.13589 -8.35216,3.67495 -0.56795,-1.77066 -2.13815,-2.27179 2.77524,-4.09973 1.83515,0.95932 -1.67528,-3.56732 1.91899,-2.58917 -0.85045,-1.01581 -4.79557,6.99256 -0.75595,-2.55134 -2.74031,4.25223 -3.19537,-4.36092 z"
       id="path863"
       sodipodi:nodetypes="ccccccccccccccccccccccccccccccccccc" />
    <path
       style="fill:#f8dbb0;fill-opacity:1;stroke:#000000;stroke-width:0.264583;stroke-opacity:0"
       d="m 570.82089,-172.2218 -0.13364,0.0668 -0.53454,1.43657 -2.3386,-0.30068 -0.10023,-3.34087 7.21628,-4.6104 1.97112,2.63929 -5.87994,10.85782 -10.62395,1.77066 -3.17384,-5.61265 13.29666,-13.12962 8.95353,-0.10023 0.33409,7.2831 -0.73499,0.0668 -0.50114,-6.11379 -7.85104,0.43431 -11.4926,12.2944 2.40544,3.4745 9.42125,-2.17156 4.54359,-9.05376 -6.54812,2.33861 -0.20045,2.00452 z"
       id="path847" />
    <path
       style="fill:#b22a15;fill-opacity:1;stroke:#000000;stroke-width:0.264583;stroke-opacity:0"
       d="m 575.18527,-160.73437 -4.96094,1.88988 -0.47247,5.57515 3.56714,2.81119 5.26804,-0.96856 0.75597,-6.14211 z"
       id="path859" />
    <path
       style="fill:#860f07;fill-opacity:1;stroke:#000000;stroke-width:0.264583;stroke-opacity:0"
       d="m 570.93302,-157.28534 -0.23622,3.49628 2.64583,2.4096 3.07105,-0.66146 0.56697,-4.11049 -3.68527,-1.6064 z"
       id="path855" />
    <path
       style="fill:#ff9262;fill-opacity:1;stroke:#000000;stroke-width:0.264583;stroke-opacity:0"
       d="m 573.29538,-157.75781 1.88989,-2.97656 4.15774,3.16555 -2.36236,1.41741 z"
       id="path857" />
    <path
       style="fill:#806023;fill-opacity:1;stroke:none;stroke-width:1.165;stroke-miterlimit:4;stroke-dasharray:none;stroke-opacity:0.975708"
       d="m 538.86213,-202.24285 8.27868,6.64165 4.25627,-1.6838 -1.6838,-9.16734 z"
       id="path885" />
    <path
       style="fill:#5c90ba;fill-opacity:0.2;stroke:none;stroke-width:1.165;stroke-miterlimit:4;stroke-dasharray:none;stroke-opacity:0.975708"
       d="m 587.72923,-136.44361 -8.01728,1.55587 -29.11404,-31.73361 1.40717,-17.38035 -5.33202,-9.35443 -6.49521,-2.47679 13.66869,-7.98955 -0.14696,5.42671 6.42336,9.08639 16.96657,1.17846 22.75303,37.66486 -3.00947,6.47517 z"
       id="path875"
       sodipodi:nodetypes="ccccccccccccc" />
    <path
       style="fill:#000000;fill-opacity:0.1;stroke:none;stroke-width:1.165;stroke-miterlimit:4;stroke-dasharray:none;stroke-opacity:0.975708"
       d="m 538.86213,-202.24285 7.0626,1.49671 5.47235,3.46114 -1.6838,-9.16734 z"
       id="path887" />
    <path
       style="fill:#000000;fill-opacity:0.1;stroke:none;stroke-width:1.165;stroke-miterlimit:4;stroke-dasharray:none;stroke-opacity:0.975708"
       d="m 540.17785,-195.83292 10.23699,-3.55683 0.98224,2.10475 7.90448,11.55273 15.29451,3.04019 6.68403,19.09928 5.56573,1.73395 6.95475,13.36146 -5.76413,7.54062 -0.30723,4.51316 9.10383,-7.54727 3.00948,-6.47517 -22.75303,-37.66486 -16.96656,-1.17846 -6.42337,-9.08639 0.14697,-5.42671 z"
       id="path879" />
    <path
       style="fill:#ffffff;fill-opacity:0.1;stroke:none;stroke-width:1.165;stroke-miterlimit:4;stroke-dasharray:none;stroke-opacity:0.975708"
       d="m 579.71194,-134.88774 -6.22757,-12.8159 -18.65313,-17.99167 -2.16627,-18.53737 -5.29029,-9.77827 -7.19683,-1.82197 6.4952,2.47679 5.33202,9.35443 -1.40716,17.38035 z"
       id="path881" />
  </g>
</svg>
