<?xml version="1.0" encoding="UTF-8" standalone="no"?>
<svg
   xmlns:dc="http://purl.org/dc/elements/1.1/"
   xmlns:cc="http://creativecommons.org/ns#"
   xmlns:rdf="http://www.w3.org/1999/02/22-rdf-syntax-ns#"
   xmlns:svg="http://www.w3.org/2000/svg"
   xmlns="http://www.w3.org/2000/svg"
   xmlns:sodipodi="http://sodipodi.sourceforge.net/DTD/sodipodi-0.dtd"
   xmlns:inkscape="http://www.inkscape.org/namespaces/inkscape"
   width="210.45341mm"
   height="167.16823mm"
   viewBox="0 0 210.45341 167.16823"
   version="1.1"
   id="svg8"
   inkscape:version="1.0.1 (3bc2e813f5, 2020-09-07)"
   sodipodi:docname="Piratecave.svg">
  <defs
     id="defs2" />
  <sodipodi:namedview
     id="base"
     pagecolor="#ffffff"
     bordercolor="#666666"
     borderopacity="1.0"
     inkscape:pageopacity="0.0"
     inkscape:pageshadow="2"
     inkscape:zoom="0.70710678"
     inkscape:cx="153.26976"
     inkscape:cy="258.87025"
     inkscape:document-units="mm"
     inkscape:current-layer="layer1"
     inkscape:document-rotation="0"
     showgrid="false"
     inkscape:window-width="1920"
     inkscape:window-height="991"
     inkscape:window-x="-9"
     inkscape:window-y="-9"
     inkscape:window-maximized="1"
     showguides="false" />
  <metadata
     id="metadata5">
    <rdf:RDF>
      <cc:Work
         rdf:about="">
        <dc:format>image/svg+xml</dc:format>
        <dc:type
           rdf:resource="http://purl.org/dc/dcmitype/StillImage" />
        <dc:title></dc:title>
      </cc:Work>
    </rdf:RDF>
  </metadata>
  <g
     inkscape:label="Laag 1"
     inkscape:groupmode="layer"
     id="layer1"
     transform="translate(260.60767,-75.864455)">
    <path
       style="fill:#ccc8a4;fill-opacity:1;stroke-width:0.264583;stroke-opacity:0.0627451"
       d="m -180.17434,235.75665 20.96188,1.28469 14.03165,4.8643 24.13444,-4.8643 0.56127,3.55468 61.271532,-1.96443 -1.683798,-10.00924 6.735191,-2.61924 -7.764176,-23.66672 5.706192,-35.73389 5.612667,-15.24777 -13.547064,-32.54387 2.602376,-2.44171 -19.083041,-23.198996 2.619243,-7.857722 -16.83798,-9.447977 -7.483542,3.835318 -34.64361,-0.907183 -26.92135,1.256811 -3.30729,8.995833 -39.15834,-2.116706 -1.45521,6.085416 -32.14687,10.980206 -11.64167,14.94896 1.94201,56.92024 -10.93784,12.2683 6.21771,38.89375 23.28333,-2.24896 5.42396,13.22917 43.52396,5.02708 z"
       id="path1204" />
    <path
       style="fill:#000000;fill-opacity:0.3;stroke-width:0.264583;stroke-opacity:0.0627451"
       d="m -245.26184,110.21186 14.41979,26.32604 5.95313,-0.79375 -0.26458,-6.35 6.35,-10.58333 3.96875,-15.34583 10.84791,1.4552 17.99167,25.66459 1.71979,-3.57188 5.15938,-1.19062 11.90625,-36.777086 -39.15834,-2.116666 -1.45521,6.085416 -32.14687,10.980206 z"
       id="path1156" />
    <path
       style="fill:#ffffff;fill-opacity:0.05;stroke-width:0.264583;stroke-opacity:0.0627451"
       d="m -80.635224,93.170194 -136.481566,104.420316 7.97058,23.61406 125.330486,-114.18985 -116.556236,118.8013 20.19762,9.94063 96.010675,-114.6638 -75.048795,115.94849 14.03165,4.8643 83.628627,-125.53649 z"
       id="path1208" />
    <path
       style="fill:#000000;fill-opacity:0.3;stroke-width:0.264583;stroke-opacity:0.0627451"
       d="m -254.38996,227.0254 -6.21771,-38.89375 4.63021,0.26458 10.71562,18.12396 12.43542,-28.04583 4.63021,-2.24896 0.52916,-3.57187 5.95313,-1.98438 3.04271,14.15521 -0.52917,3.30729 10.05417,33.07292 28.97187,14.55208 -1.98437,7.27604 -43.52396,-5.02708 -5.42396,-13.22917 z"
       id="path1158" />
    <path
       style="fill:#000000;fill-opacity:0.3;stroke-width:0.264583;stroke-opacity:0.0627451"
       d="m -121.04637,237.04134 11.50595,-2.89988 20.486213,-14.68645 4.95785,-25.25698 17.212156,-6.92228 12.722029,38.72736 -6.735191,2.61924 1.683798,10.00924 -61.271535,1.96443 z"
       id="path1160" />
    <path
       style="fill:#000000;fill-opacity:0.2;stroke-width:0.264583;stroke-opacity:0.0627451"
       d="m -50.607487,151.35473 -29.37292,42.18849 4.209495,8.32545 -2.80633,12.72203 -5.238482,5.61266 -5.238486,-0.74835 -20.48621,14.68645 28.055664,-12.27543 14.155208,-2.11667 11.109402,-53.1469 z"
       id="path1162" />
    <path
       style="fill:#000000;fill-opacity:0.3;stroke-width:0.264583;stroke-opacity:0.0627451"
       d="m -253.59621,212.60561 -5.42396,-22.25807 9.35034,-14.48419 -1.94201,-56.92024 11.64167,-14.94896 32.14687,-10.980206 40.61355,-3.96875 3.30729,-8.995833 61.56496,-0.349588 7.483544,-3.835318 16.83798,9.447977 -2.619242,7.857722 19.083046,23.198996 -6.080382,4.86431 17.478303,30.27331 -6.065898,15.09569 -6.828734,42.8433 -27.502032,2.99342 -0.09355,-8.13836 14.499372,-11.59949 7.670636,-15.24773 -2.432153,-35.07912 -25.256971,-14.03165 -11.225319,10.28987 -6.92228,48.45597 -6.5481,0.18708 -2.61924,-37.60482 -3.55469,-15.15418 -7.01582,11.97368 -2.71279,-0.0935 2.5257,-2.5257 -1.49671,-10.94468 2.89987,-4.02241 -6.36101,-5.7062 0.8419,11.50595 -11.69304,-2.05798 -15.90254,11.5995 -9.72861,48.83014 -4.86431,-4.49013 -2.61924,-40.41115 -13.84456,-10.28987 -16.08962,-4.49013 -7.10937,3.36759 -9.9157,20.95393 3.36759,47.14635 z"
       id="path1164"
       sodipodi:nodetypes="cccccccccccccccccccccccccccccccccccccccccccccc" />
    <path
       style="fill:#000000;fill-opacity:0.2;stroke-width:0.264583;stroke-opacity:0.0627451"
       d="m -200.37196,225.81602 -9.16735,5.05139 -8.60608,-9.16734 -35.45082,-9.09446 2.52322,-22.8977 23.40594,-17.05438 5.95313,-1.98438 3.04271,14.15521 -0.52917,3.30729 10.05417,33.07292 z"
       id="path1168" />
    <path
       style="fill:#000000;fill-opacity:0.2;stroke-width:0.264583;stroke-opacity:0.0627451"
       d="m -109.54042,234.14146 36.522331,-4.60252 5.688539,-9.78958 4.280664,-10.3036 6.828735,-42.8433 -13.358355,-2.54789 -2.38125,4.63021 -5.688542,-3.04271 -1.190625,3.04271 1.5875,8.99583 -4.101041,-5.42396 -0.396875,3.96875 4.630208,3.83646 -7.672917,-0.92604 -0.926041,4.49791 8.863541,-2.51354 -3.125861,12.42303 -9.073801,25.91179 z"
       id="path1170" />
    <path
       style="fill:#000000;fill-opacity:0.2;stroke-width:0.264583;stroke-opacity:0.0627451"
       d="m -206.92007,104.20839 7.20292,26.09887 11.4124,8.88671 -0.0935,-3.55469 -10.28987,-6.82874 -7.39001,-24.97633 z"
       id="path1172" />
    <path
       style="fill:#000000;fill-opacity:0.2;stroke-width:0.264583;stroke-opacity:0.0627451"
       d="m -190.62538,157.30769 -0.52917,-39.15833 2.77813,35.05729 z"
       id="path1174" />
    <path
       style="fill:#000000;fill-opacity:0.2;stroke-width:0.264583;stroke-opacity:0.0627451"
       d="m -178.2955,117.9594 18.52178,13.2833 34.70495,-19.17659 10.77568,-14.355812 -2.91042,-1.587499 -11.17864,14.221351 -26.39219,15.1474 -13.29531,-34.858856 10.2526,34.197396 -1.65364,0.13229 -15.67656,-14.15521 z"
       id="path1176" />
    <path
       style="fill:#000000;fill-opacity:0.2;stroke-width:0.264583;stroke-opacity:0.0627451"
       d="m -136.98111,78.79259 4.29948,28.90573 4.63021,0.52917 3.30729,-12.832296 11.50937,-0.132291 2.71198,-3.902604 3.175,0.46302 11.184198,36.519511 5.550701,0.72059 16.338021,-18.85156 -20.01783,-29.576645 z"
       id="path1178" />
    <path
       style="fill:#000000;fill-opacity:0.2;stroke-width:0.264583;stroke-opacity:0.0627451"
       d="m -89.686839,119.73686 12.038541,2.77813 22.886458,28.31041 -9.392708,-32.01458 -35.718749,-28.178126 z"
       id="path1180" />
    <path
       style="fill:#000000;fill-opacity:0.2;stroke-width:0.264583;stroke-opacity:0.0627451"
       d="m -100.88756,113.70314 -0.37418,15.80899 4.162721,5.51912 -1.403165,0.23386 1.028988,1.68379 1.777341,-0.18709 0.514493,0.74836 -0.561266,0.42095 0.982216,1.1693 0.233862,16.4638 1.730568,-0.93544 -1.028985,-15.52836 3.835318,4.72399 15.880153,-8.47713 0.926042,-1.98438 -0.330729,4.49792 2.149739,-1.38906 -0.23151,-3.57188 -0.859896,-0.59531 0.826823,-2.97656 -6.019273,-6.81302 -6.515362,-1.42214 -0.826823,1.68672 5.390885,0.89297 5.820834,6.18463 -1.223698,4.86172 -14.188281,5.9862 -3.803386,-3.93568 0.992188,-0.7276 -1.422136,-1.62057 -0.09922,-5.45704 -1.819011,-0.39687 0.760677,5.88698 -4.233333,-4.06797 v -11.60859 z"
       id="path1184" />
    <path
       style="fill:#000000;fill-opacity:0.2;stroke-width:0.264583;stroke-opacity:0.0627451"
       d="m -213.09399,133.39427 -3.98972,13.1978 6.48229,-10.45104 1.98437,4.63021 -8.77998,6.77156 -0.16371,-1.16931 -0.84189,1.70719 -6.43118,-2.31522 -0.58465,2.22167 6.75858,1.40317 0.53788,9.752 1.21608,-1.23947 -0.49111,-7.46016 0.67819,-0.46772 -0.23386,-1.09914 9.09633,-7.47619 3.30729,6.84609 6.48229,2.38125 3.53881,-3.60494 4.6302,29.00494 -3.175,-4.23333 -1.19062,6.68073 2.18281,1.98437 -8.40052,-1.71979 2.38125,3.50573 7.2099,0.33073 -10.64948,1.85208 -2.24896,4.23334 4.96094,10.05416 4.53588,4.08913 7.20291,-21.70228 3.92886,-32.92756 2.61924,40.41115 2.43216,14.68641 20.29912,0.65482 -1.40317,-12.16077 4.02241,4.11595 3.18051,-3.74177 h -5.98684 l 8.13836,-10.94469 -4.39659,-1.30962 -5.05139,9.82216 2.05797,-12.81558 -4.39658,-4.49013 1.02899,15.06064 -3.46114,-12.2543 -8.13836,0.37417 6.26747,-31.3373 15.90254,-11.5995 11.69304,2.05798 1.59025,11.69304 2.71279,0.0935 7.01582,-11.97368 3.55469,15.15418 2.61924,37.60482 9.44798,15.809 -1.6838,-20.86039 2.71279,3.08696 2.71278,-1.77734 -2.89987,-2.80633 8.2319,-0.74835 -2.15152,-3.08697 -5.98684,-0.56126 5.51912,-4.58368 -1.40317,-8.60607 -4.67722,7.76418 4.02241,-20.29913 9.541522,-13.65747 5.799751,-5.79975 20.766833,11.22533 1.328105,21.68009 1.104048,13.39903 -6.080373,13.2833 -9.541526,3.46113 -4.95785,25.25698 21.72466,0.29435 4.280664,-10.3036 6.828737,-42.8433 6.065896,-15.09569 -14.000297,-32.69595 2.602375,-2.44167 -19.083046,-23.198996 2.619243,-7.857722 -16.837978,-9.447977 -7.483544,3.835318 -34.64361,-0.907183 -26.92135,1.256771 -3.30729,8.995833 -39.15834,-2.116666 -1.45521,6.085416 -32.14687,10.980206 -5.29167,6.21771 1.39176,2.74292 -7.74176,5.98833 1.94201,56.92024 -10.93784,12.2683 6.21771,38.89375 23.28333,-2.24896 5.42396,13.22917 43.52396,5.02708 1.98437,-7.27604 -28.97187,-14.55208 -10.05417,-33.07292 0.52917,-3.30729 -3.04271,-14.15521 -5.95313,1.98438 -2.45201,-14.93774 9.9157,-20.95393 z"
       id="path1186"
       sodipodi:nodetypes="ccccccccccccccccccccccccccccccccccccccccccccccccccccccccccccccccccccccccccccccccccccccccccccccccccccccccccccc" />
    <path
       style="fill:#000000;fill-opacity:0.2;stroke-width:0.264583;stroke-opacity:0.0627451"
       d="m -225.41846,147.98713 12.23092,2.89988 12.72203,13.84456 0.14032,19.36368 -1.21425,0.33223 -2.24896,4.23334 4.96094,10.05416 4.53588,4.08913 16.18317,0.46772 20.29912,0.65482 43.97922,1.79979 2.41877,-2.64169 -9.44798,-15.809 -13.47038,0.74836 -13.47039,-2.29184 -10.10279,-9.63506 -4.77076,-10.33665 0.37418,-17.3057 12.25431,-15.80895 11.69304,2.05798 1.59025,11.69304 2.71279,0.0935 5.23848,-8.23191 5.33203,11.41241 0.32189,25.62843 -12.30313,14.2875 24.04846,13.49789 9.0738,-23.10545 2.806327,-30.86963 13.470385,-13.18976 14.49937,11.31887 -0.398341,21.446 -5.688541,-3.04271 -1.190625,3.04271 1.5875,8.99583 -4.101042,-5.42396 -0.396875,3.96875 4.630208,3.83646 -7.672916,-0.92604 -0.926042,4.49791 8.863542,-2.51354 -3.125859,12.42303 -4.115951,0.65481 -7.177979,5.83987 -2.248958,8.73125 4.469087,10.68586 16.036118,10.08393 9.969204,-20.09318 6.828734,-42.8433 6.065901,-15.09569 -14.000297,-32.69595 2.602375,-2.44167 -19.083046,-23.198996 2.619245,-7.857722 -16.837982,-9.447977 -7.483542,3.835318 -34.64361,-0.907183 -26.92135,1.256771 -3.30729,8.995833 -31.75,2.778125 -34.15273,12.104431 -18.49936,15.01536 1.94201,56.92024 -10.93784,12.2683 6.21771,38.89375 23.28333,-2.24896 21.56732,6.09097 9.16735,-5.05139 -8.77425,-4.61145 -10.05417,-33.07292 0.52917,-3.30729 -3.04271,-14.15521 -5.95313,1.98438 -2.45201,-14.93774 z"
       id="path1188"
       sodipodi:nodetypes="ccccccccccccccccccccccccccccccccccccccccccccccccccccccccccccccccccccccccccc" />
    <path
       style="fill:#000000;fill-opacity:0.2;stroke-width:0.264583;stroke-opacity:0.0627451"
       d="m -227.66705,153.33894 11.37709,0.19844 14.94896,15.875 1.01581,14.68287 -1.21425,0.33223 -2.24896,4.23334 3.1358,6.61298 -2.75955,3.32082 -13.70464,-1.00411 7.97058,23.61406 28.97187,14.55208 20.96188,1.28469 14.03165,4.8643 24.13444,-4.8643 48.028278,-7.5024 18.855917,-3.53583 -12.722029,-38.72736 16.276714,-35.92102 -13.54706,-32.54391 2.602372,-2.44167 -19.083043,-23.198996 2.619245,-7.857722 -16.837982,-9.447977 -7.483542,3.835318 -34.64361,-0.907183 -26.92135,1.256771 -3.30729,8.995833 -39.15834,-2.116666 -1.45521,6.085416 -32.14687,10.980206 -5.29167,6.21771 -6.35,8.73125 1.94201,56.92024 -10.93784,12.2683 6.21771,38.89375 23.28333,-2.24896 5.42396,13.22917 43.52396,5.02708 1.98437,-7.27604 -28.97187,-14.55208 -10.05417,-33.07292 0.52917,-3.30729 -3.04271,-14.15521 -5.95313,1.98438 -2.45201,-14.93774 12.90306,-20.11955 69.41595,48.13603 -10.54616,-13.34333 -1.5875,-6.48229 3.30729,-19.84375 8.33437,-5.29166 2.77813,5.95312 2.64583,-0.52917 5.02708,-8.73125 1.07919,8.93299 2.71279,0.0935 5.23848,-8.23191 -1.88671,8.20126 -1.62057,-1.48828 1.09141,2.84427 -1.52136,12.63385 3.43959,-3.34036 -0.46302,-8.46667 2.44739,0.62838 2.1615,24.5344 -9.16734,14.21874 -13.47039,-2.29184 -8.03262,-8.41546 -22.48958,-21.19974 18.85156,-31.15469 33.53593,0.99219 14.02292,28.31042 13.295314,23.34947 2.778124,-30.75781 5.84875,-3.03224 6.123646,-1.39953 7.739063,10.58333 -0.463021,16.0073 0.444867,23.68582 -19.644301,5.98683 -5.051392,-14.78 2.24506,-6.36102 -3.55468,-24.50861 -35.73394,50.13976 -52.01343,-27.15133 -23.28976,-25.13995 z"
       id="path1190"
       sodipodi:nodetypes="ccccccccccccccccccccccccccccccccccccccccccccccccccccccccccccccccccccccccccccccccccccccc" />
    <path
       style="fill:#000000;fill-opacity:0.4;stroke-width:0.264583;stroke-opacity:0.0627451"
       d="m -147.80005,185.73227 v 0 l -10.54616,-13.34333 -1.5875,-6.48229 3.30729,-19.84375 8.33437,-5.29166 2.77813,5.95312 2.64583,-0.52917 5.02708,-8.73125 1.07919,8.93299 2.71279,0.0935 5.23848,-8.23191 -1.88671,8.20126 -1.62057,-1.48828 1.09141,2.84427 -1.52136,12.63385 3.43959,-3.34036 -0.46302,-8.46667 2.44739,0.62838 2.1615,24.5344 -9.16734,14.21874 -14.89694,-2.73617 -5.96345,10.59389 17.3057,7.29646 26.47305,-0.0935 17.888,5.6844 4.469088,10.68586 16.03612,10.08393 9.969206,-20.09318 6.828729,-42.8433 -7.934396,-47.79164 -16.480668,-25.640666 2.619243,-7.857762 -24.321522,-5.612659 -34.64361,-0.907183 -26.92135,1.256811 -3.30729,8.995833 -39.15834,-2.116706 -1.45521,6.085416 -32.14687,10.980206 -11.64167,14.949 1.94201,56.92024 30.46945,12.2683 2.08359,9.45886 2.74506,6.68072 20.08015,-1.46712 36.48229,1.12254 z"
       id="path1192"
       sodipodi:nodetypes="cccccccccccccccccccccccccccccccccccccccccccccccc" />
    <path
       style="fill:#000000;fill-opacity:0.2;stroke-width:0.264583;stroke-opacity:0.0627451"
       d="m -203.17829,212.9069 21.14102,-6.36101 27.87621,8.98025 -29.37292,-0.37418 z"
       id="path1194" />
    <path
       style="fill:#000000;fill-opacity:0.2;stroke-width:0.264583;stroke-opacity:0.0627451"
       d="m -139.56815,222.44842 -19.27013,1.87089 20.01849,10.28988 6.36101,-3.18051 z"
       id="path1196" />
    <path
       style="fill:#000000;fill-opacity:0.2;stroke-width:0.264583;stroke-opacity:0.0627451"
       d="m -131.19335,225.20639 -0.26458,0.56224 1.25677,2.21589 1.81901,-2.34818 z"
       id="path1198" />
    <path
       style="fill:#000000;fill-opacity:0.2;stroke-width:0.264583;stroke-opacity:0.0627451"
       d="m -133.97147,219.84858 -0.26459,2.8112 1.85209,0.33073 z"
       id="path1200" />
    <path
       style="fill:#000000;fill-opacity:0.2;stroke-width:0.264583;stroke-opacity:0.0627451"
       d="m -113.83007,205.72644 -5.90668,6.99337 8.98026,12.72203 21.702275,-5.98679 -4.469088,-10.68586 -17.887997,-5.6844 z"
       id="path1202" />
  </g>
</svg>
