<?xml version="1.0" encoding="UTF-8" standalone="no"?>
<svg
   xmlns:dc="http://purl.org/dc/elements/1.1/"
   xmlns:cc="http://creativecommons.org/ns#"
   xmlns:rdf="http://www.w3.org/1999/02/22-rdf-syntax-ns#"
   xmlns:svg="http://www.w3.org/2000/svg"
   xmlns="http://www.w3.org/2000/svg"
   xmlns:sodipodi="http://sodipodi.sourceforge.net/DTD/sodipodi-0.dtd"
   xmlns:inkscape="http://www.inkscape.org/namespaces/inkscape"
   width="229.37071mm"
   height="183.25336mm"
   viewBox="0 0 229.37071 183.25336"
   version="1.1"
   id="svg8"
   inkscape:version="1.0.1 (3bc2e813f5, 2020-09-07)"
   sodipodi:docname="Shady Merchant.svg">
  <defs
     id="defs2" />
  <sodipodi:namedview
     id="base"
     pagecolor="#ffffff"
     bordercolor="#666666"
     borderopacity="1.0"
     inkscape:pageopacity="0.0"
     inkscape:pageshadow="2"
     inkscape:zoom="0.35355339"
     inkscape:cx="992.71245"
     inkscape:cy="331.71509"
     inkscape:document-units="mm"
     inkscape:current-layer="layer1"
     inkscape:document-rotation="0"
     showgrid="false"
     inkscape:window-width="1544"
     inkscape:window-height="1020"
     inkscape:window-x="32"
     inkscape:window-y="0"
     inkscape:window-maximized="0" />
  <metadata
     id="metadata5">
    <rdf:RDF>
      <cc:Work
         rdf:about="">
        <dc:format>image/svg+xml</dc:format>
        <dc:type
           rdf:resource="http://purl.org/dc/dcmitype/StillImage" />
        <dc:title></dc:title>
      </cc:Work>
    </rdf:RDF>
  </metadata>
  <g
     inkscape:label="Laag 1"
     inkscape:groupmode="layer"
     id="layer1"
     transform="translate(283.62642,-43.40457)">
    <path
       style="fill:#b4ae85;fill-opacity:1;stroke-width:0.264583;stroke-opacity:0.0627451"
       d="m -283.62642,224.13222 18.33469,-2.24506 165.479926,4.77076 28.903472,-6.3923 16.652618,-0.43644 -1.122532,-47.0528 -25.911781,-3.46114 -16.473513,-87.294408 -48.74948,-15.213541 -22.24096,-23.402721 -65.38748,15.434815 -22.63666,72.658535 -18.6164,21.91479 z"
       id="path1140" />
    <path
       style="fill:#787b3b;fill-opacity:1;stroke-width:0.264583;stroke-opacity:0.0627451"
       d="m -92.608891,209.53931 0.280633,-21.60874 1.028988,-5.33203 -1.028988,-4.86431 -5.051391,-10.85114 -6.922281,-3.74177 -6.31424,-0.32741 -2.08137,1.28624 -24.68735,-0.12463 -10.10821,15.04495 12.46185,3.11035 -18.7082,0.96084 -5.61332,11.16484 0.40433,11.32475 28.92185,7.69983 10.47693,3.3676 z"
       id="path1138" />
    <path
       style="fill:#000000;fill-opacity:0.2;stroke-width:0.264583;stroke-opacity:0.0627451"
       d="m -153.06146,184.54687 -0.67799,-1.45521 18.7082,-0.96084 22.91837,4.5369 -0.5145,2.94664 -7.58402,1.89158 z"
       id="path1134"
       sodipodi:nodetypes="ccccccc" />
    <path
       style="fill:#000000;fill-opacity:0.3;stroke-width:0.264583;stroke-opacity:0.0627451"
       d="m -135.03125,182.13082 -20.08073,-4.99228 31.15469,-0.13229 28.773437,10.08724 -17.443527,2.52087 0.5145,-2.94664 z"
       id="path1136" />
    <path
       style="fill:#544320;fill-opacity:1;stroke-width:0.264583;stroke-opacity:0.0627451"
       d="m -121.42054,171.27967 2.61924,-4.20949 6.10376,-2.97003 -24.68735,-0.12463 -0.46302,6.94531 z"
       id="path1120" />
    <path
       style="fill:#1b2b3c;fill-opacity:1;stroke-width:0.264583;stroke-opacity:0.0627451"
       d="m -125.95744,117.44491 -3.95298,28.27436 -10.84791,41.87031 -1.98438,-3.96875 -2.44739,-1.38906 -1.78594,-4.43177 -1.78594,4.49791 -7.01146,1.05834 -10.89752,0.87643 -5.50664,-15.29622 -0.72761,13.22916 -6.94531,-4.69635 -0.52917,-5.15938 -2.24895,2.51355 -3.83646,-2.4474 -15.67656,1.45521 27.68141,-75.476056 37.11308,0.958056 4.92321,-0.127574 z"
       id="path1106" />
    <path
       style="fill:#000000;fill-opacity:0.1;stroke-width:0.264583;stroke-opacity:0.0627451"
       d="m -159.41146,146.05 4.9113,3.1649 0.32741,-3.16881 5.0139,-10.31484 2.71198,-2.61276 1.85208,0.19844 0.84054,-3.29031 -8.0682,-1.96447 -3.09866,-0.52615 -0.98462,2.1594 0.39997,0.33122 0.77174,-0.0702 0.14032,-1.13423 h 0.59634 l 0.3902,0.87312 -3.52393,15.76608 z"
       id="path1112" />
    <path
       style="fill:#3c4142;fill-opacity:1;stroke-width:0.264583;stroke-opacity:0.0627451"
       d="m -156.36875,137.68255 -1.88515,6.68073 -0.56224,0.8599 -0.59532,0.82682 4.3987,1.91823 v -1.2237 l 0.19844,-1.19063 4.77235,-10.0306 z"
       id="path1096" />
    <path
       style="fill:#000000;fill-opacity:0.1;stroke-width:0.264583;stroke-opacity:0.0627451"
       d="m -130.02662,132.59909 -0.47911,1.11471 -4.46484,3.37344 -3.96615,11.69502 -0.25725,3.3676 -5.16931,-2.29648 4.3987,-4.59713 0.23151,-14.91589 -0.9693,-1.01532 -0.6782,0.0702 0.0819,2.04628 -1.31169,-0.43966 0.57503,-2.36667 2.42046,-0.30402 1.27454,1.94105 z"
       id="path1110" />
    <path
       style="fill:#695b3d;fill-opacity:1;stroke-width:0.264583;stroke-opacity:0.0627451"
       d="m -136.06023,130.54112 -1.19269,-1.66042 -0.38829,-0.40069 -0.61185,0.29766 -1.24023,-1.31465 0.87643,-0.19844 -0.64492,-0.81855 -3.67936,1.74459 0.33073,2.8112 1.02526,-0.23151 -0.29766,-1.62057 1.38906,-0.42995 0.76068,1.62057 -0.99219,0.79375 -0.52917,4.3987 4.21198,0.0831 z"
       id="path1088" />
    <path
       style="fill:#433e32;fill-opacity:1;stroke-width:0.264583;stroke-opacity:0.0627451"
       d="m -150.01875,130.10885 -0.82149,-1.78941 6.03361,0.23386 1.05238,1.47332 -0.37752,0.64447 -0.79375,1.81901 -1.91823,-0.19844 -6.01927,6.05235 z"
       id="path1084" />
    <path
       style="fill:#433e32;fill-opacity:1;stroke-width:0.264583;stroke-opacity:0.0627451"
       d="m -130.02662,132.59909 0.56126,-1.73057 -0.60804,-2.5257 -4.67721,-0.18708 -2.50231,0.72496 1.19269,1.66042 -0.98222,5.07478 1.73057,0.39758 3.92886,-3.36759 z"
       id="path1082" />
    <path
       style="fill:#000000;fill-opacity:0.1;stroke-width:0.264583;stroke-opacity:0.0627451"
       d="m -164.07676,106.0325 3.62484,3.81193 1.75396,5.58928 -1.75529,6.19194 -3.45612,2.18281 -5.2586,-0.34726 2.64584,-2.38125 1.53789,-2.69545 -1.57097,1.19063 -2.81119,0.0165 -2.00681,-0.79039 6.86852,-4.63357 -2.05052,-5.68854 -0.81028,-0.21498 -0.78045,-1.15593 z"
       id="path1047" />
    <path
       style="fill:#000000;fill-opacity:0.1;stroke-width:0.264583;stroke-opacity:0.0627451"
       d="m -176.33271,105.77742 3.62484,3.81193 1.75396,5.58928 -1.75529,6.19194 -3.45612,2.18281 -5.2586,-0.34726 2.64584,-2.38125 1.53789,-2.69545 -1.57097,1.19063 -2.81119,0.0165 -2.00681,-0.79039 6.86852,-4.63357 -2.05052,-5.68854 -0.81028,-0.21498 -0.78045,-1.15593 z"
       id="path1047-3" />
    <path
       style="fill:#000000;fill-opacity:0.1;stroke-width:0.264583;stroke-opacity:0.0627451"
       d="m -171.05312,144.92552 5.78776,-8.83047 2.87734,-3.47266 3.175,-0.76067 1.19063,0.29765 1.28886,-2.43677 -7.15931,-4.4672 -1.96783,-0.8434 0.24043,3.95421 -6.29086,16.15979 z"
       id="path1114" />
    <path
       style="fill:#3c4142;fill-opacity:1;stroke-width:0.264583;stroke-opacity:0.0627451"
       d="m -164.35449,134.18788 -7.34613,9.82362 -2.73617,-2.24506 4.0224,-7.60048 z"
       id="path1094" />
    <path
       style="fill:#000000;fill-opacity:0.1;stroke-width:0.264583;stroke-opacity:0.0627451"
       d="m -175.68333,135.23515 14.22135,17.82631 18.84925,10.88262 1.8544,23.6455 -1.98438,-3.96875 -2.44739,-1.38906 -1.78594,-4.43177 -1.78594,4.49791 -7.01146,1.05834 -21.09217,-46.44744 z"
       id="path1039" />
    <path
       style="fill:#756b46;fill-opacity:1;stroke-width:0.264583;stroke-opacity:0.0627451"
       d="m -164.07676,106.0325 3.95225,5.49573 0.74835,3.81193 -1.65587,6.07052 -3.14193,1.9513 -4.99401,0.0992 -0.56224,-1.48823 3.20808,-0.89302 1.62058,-3.57188 -1.37349,1.29323 -2.99342,0.28063 -2.10475,-0.28063 v -1.70718 l 2.92326,-0.98222 2.33861,-4.7006 0.0853,-3.56052 -1.017,0.22324 -1.10291,-0.96576 2.80633,-2.24506 z"
       id="path961" />
    <path
       style="fill:#b49d7e;fill-opacity:1;stroke-width:0.264583;stroke-opacity:0.0627451"
       d="m -238.17227,146.70201 3.21279,-2.17337 4.8192,1.6064 0.28348,5.52791 -4.11049,-1.18118 -2.17336,-2.92932 z"
       id="path931" />
    <path
       style="fill:#84312e;fill-opacity:1;stroke-width:0.264583;stroke-opacity:0.0627451"
       d="m -155.40056,74.46129 0.0571,-1.270926 5.06016,-2.745052 6.7138,4.067968 -0.26458,2.083594 1.62057,0.165365 -1.55443,1.686718 2.18282,1.058334 2.77812,8.995833 -0.0992,3.638021 -10.78177,-3.505729 -0.95911,-9.591146 z"
       id="path949" />
    <path
       style="fill:#2363a2;fill-opacity:1;stroke-width:0.264583;stroke-opacity:0.0627451"
       d="m -153.45948,77.922429 2.24507,1.73057 -1.30962,2.57247 1.68379,7.717406 2.57247,1.964434 8.50163,-0.8245 0.10445,-2.589869 -0.60804,-1.637027 -7.43677,-1.543482 -1.82412,-5.893292 0.79513,-1.122531 -3.32082,-1.216078 z"
       id="path943" />
    <path
       style="fill:#5c2e2d;fill-opacity:1;stroke-width:0.264583;stroke-opacity:0.0627451"
       d="m -150.81685,95.649078 -5.77636,2.549086 11.68652,3.760926 6.99256,-3.260049 0.27534,-0.793202 -5.50079,-2.242429 -0.4961,-2.199349 3.86954,-2.38125 -12.50157,0.595313 z"
       id="path919" />
    <path
       style="fill:#000000;fill-opacity:0.1;stroke-width:0.264583;stroke-opacity:0.0627451"
       d="m -143.13958,95.663408 -5.6193,3.750831 -1.88825,1.226641 5.58932,2.18282 7.14368,-4.124659 0.27534,-0.793202 z"
       id="path921" />
    <path
       style="fill:#000000;fill-opacity:0.2;stroke-width:0.264583;stroke-opacity:0.0627451"
       d="m -144.90669,101.95909 2.60237,-0.81428 -6.45456,-1.730571 -2.05797,-3.765159 -5.77636,2.549084 z"
       id="path917" />
    <path
       style="fill:#000000;fill-opacity:0.1;stroke-width:0.264583;stroke-opacity:0.0627451"
       d="m -169.73021,121.97297 3.20808,-0.89302 1.62057,-3.57188 0.23151,-6.31693 -1.35599,-3.34036 -1.01699,0.22324 -1.10291,-0.96576 2.80633,-2.24506 1.26285,1.1693 -1.12253,0.5145 2.94665,5.05139 -0.39757,6.3844 -2.5257,3.67161 -3.64823,0.95884 0.15227,0.5503 -0.4961,0.29766 z"
       id="path957" />
    <path
       style="fill:#000000;fill-opacity:0.1;stroke-width:0.264583;stroke-opacity:0.0627451"
       d="m -150.91981,106.41535 3.62484,3.81193 1.75396,5.58928 -1.75529,6.19194 -3.45612,2.18281 -5.2586,-0.34726 2.64584,-2.38125 1.53789,-2.69545 -1.57097,1.19063 -2.81119,0.0165 -2.00681,-0.79039 6.86852,-4.63357 -2.05052,-5.68854 -0.81028,-0.21498 -0.78045,-1.15593 z"
       id="path1047-4" />
    <path
       style="fill:#5c2e2d;fill-opacity:1;stroke-width:0.264583;stroke-opacity:0.0627451"
       d="m -180.49052,92.725829 6.03027,5.629365 1.87088,2.071336 27.52877,3.34087 7.71343,-4.45415 4.92321,-0.127574 6.46652,18.259234 -2.1983,-19.129817 -1.63702,-0.04677 -1.02899,-1.075761 0.56127,-1.917658 -0.98222,-2.291837 -3.08696,0.374177 3.46114,2.759559 -1.02899,2.19829 -3.83532,0.467723 -2.1813,-0.08378 -6.99256,3.260054 -5.80659,-2.707273 -14.32057,-8.764323 -6.8461,-0.198438 -0.78437,-1.393782 -1.18117,-1.724512 z"
       id="path913" />
    <path
       style="fill:#000000;fill-opacity:0.1;stroke-width:0.264583;stroke-opacity:0.0627451"
       d="m -137.72297,105.7404 3.62484,3.81193 1.75396,5.58928 -1.75529,6.19194 -3.45612,2.18281 -5.2586,-0.34726 2.64584,-2.38125 1.53789,-2.69545 -1.57097,1.19063 -2.81119,0.0165 -2.00681,-0.79039 6.86852,-4.63357 -2.05052,-5.68854 -0.81028,-0.21498 -0.78045,-1.15593 z"
       id="path1047-9" />
    <path
       style="fill:#433e32;fill-opacity:1;stroke-width:0.264583;stroke-opacity:0.0627451"
       d="m -167.46774,136.01346 4.98123,-8.09158 -0.43068,-2.31094 6.18464,1.75286 -0.001,2.3588 -1.12253,1.40317 -1.80073,-0.44434 -3.18051,1.40317 -1.51717,2.10328 z"
       id="path1086" />
    <path
       style="fill:#695b3d;fill-opacity:1;stroke-width:0.264583;stroke-opacity:0.0627451"
       d="m -162.48651,127.92188 -0.38933,-2.52592 -1.017,-0.14056 -0.47129,-0.9095 -1.49654,0.0661 0.87643,1.71979 -1.38436,0.6032 -3.25066,5.40803 3.71838,1.62534 z"
       id="path1092" />
    <path
       style="fill:#000000;fill-opacity:0.1;stroke-width:0.264583;stroke-opacity:0.0627451"
       d="m -172.30866,142.25755 0.51449,-0.53788 4.32643,-5.70621 -0.35079,-3.41437 2.19829,-4.23288 3.13373,-0.44433 5.75298,1.80072 -1.12253,1.40317 -1.80073,-0.44434 -3.18051,1.40317 -2.6894,3.71838 -6.17392,8.20852 z"
       id="path1080" />
    <path
       style="fill:#000000;fill-opacity:0.1;stroke-width:0.264583;stroke-opacity:0.0627451"
       d="m -167.46774,136.01346 -4.84092,6.24409 0.60804,1.75395 5.77636,-7.76418 z"
       id="path1104" />
    <path
       style="fill:#000000;fill-opacity:0.1;stroke-width:0.264583;stroke-opacity:0.0627451"
       d="m -166.67096,184.23268 10.89752,-0.87643 -8.86354,-21.43125 -26.24023,-6.87527 -8.18513,15.62191 -3.07932,3.15961 15.67656,-1.45521 3.83646,2.4474 2.24895,-2.51355 0.52917,5.15938 6.94531,4.69635 0.72761,-13.22916 z"
       id="path1108" />
    <path
       style="fill:#544320;fill-opacity:1;stroke-width:0.264583;stroke-opacity:0.0627451"
       d="m -126.09776,196.53664 -0.18709,12.62849 -29.37292,-6.64165 1.49671,-11.5995 z"
       id="path1122" />
    <path
       style="fill:#000000;fill-opacity:0.1;stroke-width:0.264583;stroke-opacity:0.0627451"
       d="m -158.94844,205.58125 -0.19843,-0.26459 v -5.82083 l -0.39688,-9.92187 6.48229,-5.02709 15.59104,3.27589 -0.13327,2.53996 1.59026,9.44798 2.5257,1.77734 3.46114,11.69304 z"
       id="path1130"
       sodipodi:nodetypes="ccccccccccc" />
    <path
       style="fill:#000000;fill-opacity:0.1;stroke-width:0.264583;stroke-opacity:0.0627451"
       d="m -156.96739,186.71449 19.36367,3.64823 1.59026,9.44798 2.5257,1.77734 3.46114,11.69304 10.47696,3.3676 26.940769,-7.10937 0.08741,-7.66223 21.801968,6.3526 -11.786587,10.85115 -34.79849,5.05139 -19.08305,-4.49013 -26.75368,-0.56126 -27.68912,-7.10937 -17.77342,6.92228 -22.45064,-2.24506 -2.80633,-4.30304 16.08962,-6.36102 0.65481,-2.38538 18.1476,-4.5369 31.5537,-0.82328 8.26823,1.25677 -0.39688,-9.92187 z"
       id="path1128" />
    <path
       style="fill:#2d2b26;fill-opacity:1;stroke-width:0.264583;stroke-opacity:0.0627451"
       d="m -213.41475,206.59934 1.18109,8.75259 6.89807,-18.14286 1.34184,1.55916 3.10886,-1.12448 -1.05834,-9.32656 2.71198,-5.6224 0.16891,-12.02315 8.18513,-15.62191 27.76159,16.40027 -3.96875,7.9375 3.5221,5.1287 -1.35639,0.0468 0.32741,5.94007 3.22727,-0.32741 9.09627,19.37437 0.8599,-0.59532 -1.91823,-19.71145 1.91823,-0.59532 -1.81781,-6.37678 -0.88867,-0.0468 0.56127,-16.37026 -20.23899,-25.9385 -15.98038,2.9594 -22.95261,10.51719 z"
       id="path907" />
    <path
       style="fill:#5c2e2d;fill-opacity:1;stroke-width:0.264583;stroke-opacity:0.0627451"
       d="m -178.26877,76.906807 6.57309,-2.020274 0.67563,-5.697992 -5.09323,-6.680729 -6.63821,0.04725 -5.14992,0.519719 -5.00819,6.520087 -6.47284,-6.567334 -9.15461,4.85893 4.9779,3.908817 -2.50565,2.77292 -8.28536,-0.334086 8.41899,6.614919 3.0903,-0.08352 z"
       id="path905" />
    <path
       style="fill:#191919;fill-opacity:1;stroke-width:0.264583;stroke-opacity:0.0627451"
       d="m -206.03142,91.94072 -1.80407,-0.868627 0.28397,-1.804069 2.20412,-1.459429 -0.28312,-4.587544 2.87315,-0.918739 -0.0835,-1.536801 1.88983,-1.622022 1.19063,0.661458 1.42213,-0.330729 0.29766,-3.472656 2.95391,-1.353183 0.49111,-1.379781 1.42655,-0.187087 1.88759,1.520093 1.20272,-0.05011 1.63368,-0.136977 1.02899,0.795128 0.46772,1.356392 -7.12352,19.444639 z"
       id="path903" />
    <g
       id="g1031">
      <path
         style="fill:#756b46;fill-opacity:1;stroke-width:0.264583;stroke-opacity:0.0627451"
         d="m -176.33271,105.77738 3.95225,5.49573 0.74835,3.81193 -1.65587,6.07052 -3.14193,1.9513 -4.99401,0.0992 -0.56224,-1.48823 3.20808,-0.89302 1.62058,-3.57188 -1.37349,1.29323 -2.99342,0.28063 -2.10475,-0.28063 v -1.70718 l 2.92326,-0.98222 2.33861,-4.7006 0.0853,-3.56052 -1.017,0.22324 -1.10291,-0.96576 2.80633,-2.24506 z"
         id="path961-6" />
      <path
         style="fill:#000000;fill-opacity:0.1;stroke-width:0.264583;stroke-opacity:0.0627451"
         d="m -181.98616,121.71785 3.20808,-0.89302 1.62057,-3.57188 0.23151,-6.31693 -1.35599,-3.34036 -1.01699,0.22324 -1.10291,-0.96576 2.80633,-2.24506 1.26285,1.1693 -1.12253,0.5145 2.94665,5.05139 -0.39757,6.3844 -2.5257,3.67161 -3.64823,0.95884 0.15227,0.5503 -0.4961,0.29766 z"
         id="path957-1" />
      <path
         style="fill:#000000;fill-opacity:0.15;stroke-width:0.264583;stroke-opacity:0.0627451"
         d="m -176.33271,105.77738 -1.26285,-1.1693 -2.80633,2.24506 1.10291,0.96576 1.01699,-0.22324 -0.0853,3.56052 -2.33861,4.7006 -2.92326,0.98222 v 1.70718 l 2.10475,0.28063 2.99342,-0.28063 1.37349,-1.29323 0.23151,-6.31693 -1.35599,-3.34036 0.82675,-1.30378 z"
         id="path959-4" />
      <path
         style="fill:#1e3042;fill-opacity:1;stroke-width:0.264583;stroke-opacity:0.0627451"
         d="m -178.81116,108.22405 -0.99218,2.91041 3.9026,0.79375 4.23333,-0.13229 0.26459,-3.77031 -4.82865,0.59531 z"
         id="path951-1" />
      <path
         style="fill:#000000;fill-opacity:0.1;stroke-width:0.264583;stroke-opacity:0.0627451"
         d="m -175.90074,111.92821 -0.33073,-3.30729 4.82865,-0.59531 -0.26459,3.77031 z"
         id="path953-4" />
      <path
         style="fill:#000000;fill-opacity:0.1;stroke-width:0.264583;stroke-opacity:0.0627451"
         d="m -181.42392,123.20608 0.4961,-0.29766 -0.29766,-1.25677 -0.76068,0.0662 z"
         id="path955-5" />
    </g>
    <path
       style="fill:#c9c8c8;fill-opacity:1;stroke-width:0.264583;stroke-opacity:0.0627451"
       d="m -188.8936,105.05376 4.84512,-11.776704 2.66435,-1.3614 6.92388,6.43953 -2.29087,17.163784 -4.29947,5.6224 -0.23624,2.88207 0.75595,0.89769 2.12612,10.86682 1.53915,1.12086 3.0736,3.00679 -2.73951,4.40994 -1.40317,-0.26727 -8.55262,-0.13363 -3.80859,4.87767 -3.54132,2.20497 h -8.15172 l 5.67947,-8.4858 2.10058,-4.91452 1.03943,-4.32311 1.11031,-5.14992 0.89769,-4.06325 1.96805,-8.8274 0.58465,-3.12372 0.6601,-3.35691 z"
       id="path891" />
    <path
       style="fill:#42311f;fill-opacity:1;stroke-width:0.264583;stroke-opacity:0.0627451"
       d="m -196.98767,142.59164 2.12397,-5.07822 1.01604,-4.27634 1.78851,-5.10315 11.52827,-3.2128 1.12623,4.28698 1.41152,2.34696 3.32089,3.59504 -2.19337,1.7587 -1.33635,1.87089 -8.28535,3.0736 z"
       id="path879"
       sodipodi:nodetypes="cccccccccccc" />
    <path
       style="fill:#000000;fill-opacity:0.2;stroke-width:0.264583;stroke-opacity:0.0627451"
       d="m -201.94323,188.31719 -11.70781,0.79375 0.23629,17.4884 1.18109,8.75259 6.89807,-18.14286 1.34184,1.55916 3.10886,-1.12448 z"
       id="path909" />
    <path
       style="fill:#5c2e2d;fill-opacity:1;stroke-width:0.264583;stroke-opacity:0.0627451"
       d="m -213.41475,206.59934 2.78749,-40.5733 14.31779,-23.50456 2.10064,-4.91452 1.03937,-4.32311 1.11031,-5.14992 4.11055,-19.37128 -3.2601,-19.418532 -2.07887,1.700895 -1.18118,-2.031622 -1.70089,-0.14174 -2.17336,2.078869 -1.88989,-1.559153 -0.18898,-2.362351 -1.13393,1.795389 -14.8356,10.394346 -2.40214,4.682279 -14.73324,16.77116 -2.20494,8.0849 -5.17835,2.2718 2.7378,15.67312 3.21279,-2.17337 4.8192,1.6064 0.28348,5.52791 0.42522,0.61421 h 0.94495 l 9.21317,-14.55209 -4.70108,-5.22079 0.73233,-5.33892 12.23697,-7.96112 1.7009,4.15774 -8.92126,21.39788 -5.34734,27.26655 0.46967,6.97735 1.87089,1.87089 1.73725,14.90028 1.87089,-1.67044 0.60136,7.41673 z"
       id="path895" />
    <path
       style="fill:#c8ae8c;fill-opacity:1;stroke-width:0.264583;stroke-opacity:0.0627451"
       d="m -180.49052,92.725821 5.67646,-1.042966 0.96857,-4.512088 1.98444,-10.205365 0.16537,-2.078869 -6.57309,2.020274 -6.28084,-1.670436 -2.3219,-0.317381 -1.54962,3.81817 -0.18763,-2.673924 -1.46998,-1.511742 -1.20272,0.05011 -1.70384,1.720549 2.27179,6.648328 -1.28658,1.625309 1.12212,1.795391 -0.33073,2.952938 2.3151,15.709641 3.47266,4.55934 1.55915,7.63039 4.8192,-11.59914 -5.00589,-12.367293 2.66435,-1.3614 z"
       id="path889" />
    <path
       style="fill:#1a1a1a;fill-opacity:1;stroke-width:0.264583;stroke-opacity:0.0627451"
       d="m -175.94791,83.910714 -9.40351,0.346004 -1.41987,-0.985557 -1.25282,-3.624842 2.57247,2.973374 6.97406,-0.03341 z"
       id="path883" />
    <path
       style="fill:#000000;fill-opacity:0.2;stroke-width:0.264583;stroke-opacity:0.0627451"
       d="m -201.98894,151.00728 v 0 l 6.71699,-16.02254 0.18896,-1.4174 c 1.9307,-21.88209 0,0 1.9307,-21.88209 l 5.20369,-2.9226 -4.11049,19.37128 -1.11031,5.14992 -1.03943,4.32311 -2.10058,4.91452 z"
       id="path893"
       sodipodi:nodetypes="ccccccccccc" />
    <path
       style="fill:#3c4142;fill-opacity:1;stroke-width:0.264583;stroke-opacity:0.0627451"
       d="m -142.11432,139.10469 -1.54634,9.02278 -0.23386,0.76005 -0.46876,0.96586 4.72943,1.45521 -0.0512,-1.31023 -0.0702,-1.44994 4.44335,-12.53494 z"
       id="path1098" />
    <path
       style="fill:#000000;fill-opacity:0.1;stroke-width:0.264583;stroke-opacity:0.0627451"
       d="m -181.94373,91.406177 -2.20497,-7.34991 1.13589,-2.004523 -1.5368,-6.815373 6.28084,1.670436 -10.28988,-4.409948 1.46998,-2.138156 -3.54132,0.935442 1.33635,-4.409948 6.54215,-4.329139 -5.14992,0.519719 -5.00819,6.520087 -6.47284,-6.567334 -9.15461,4.85893 4.9779,3.908817 -2.50565,2.77292 -8.28536,-0.334086 8.41899,6.614921 3.0903,-0.08352 0.0835,1.5368 -2.87315,0.918739 0.28312,4.587545 -2.20412,1.459428 -0.28397,1.804069 1.80407,0.868628 -10.35998,7.278031 -2.40214,4.682278 -14.73324,16.77116 6.54811,2.20497 -4.27632,7.55037 0.40091,5.87993 4.6104,-5.34539 -3.8966,15.17297 -4.8192,-1.6064 -3.21279,2.17337 2.03162,0.85044 2.17336,2.92932 4.11049,1.18118 0.42522,0.61421 h 0.94495 l 9.21317,-14.55209 -4.70108,-5.22079 0.73233,-5.33892 12.23697,-7.96112 1.7009,4.15774 -8.92126,21.39788 -5.34734,27.26655 0.46967,6.97735 1.87089,1.87089 1.73725,14.90028 1.87089,-1.67044 0.60136,7.41673 3.60813,5.07812 1.18109,8.75259 6.89807,-18.14286 -5.29167,-31.18303 -6.12836,-12.27925 -1.00226,-7.28309 10.82442,-9.12057 2.30657,-17.28844 6.07124,3.30729 -7.77213,-9.26042 3.1695,-8.73055 -6.78196,7.11605 -1.73725,-3.30746 -0.20046,-10.189647 7.14946,-0.968851 0.93545,1.369756 8.82817,-2.416339 -0.11812,36.592821 3.1183,-35.151787 5.76414,-0.09449 3.40179,6.472847 0.0472,-5.291671 3.58068,-1.31409 3.24065,3.173831 -2.52185,4.16426 1.08669,1.34654 -5.7169,9.82738 6.85082,-8.07924 -0.47247,-3.54353 1.08668,-2.62221 0.68509,1.1103 0.47192,-5.210286 1.87088,2.071336 27.52877,3.34087 7.71343,-4.45415 -0.56696,-0.614209 -6.99256,3.260049 -25.93862,-6.732705 -2.64583,-3.023812 0.82682,-3.307292 -1.18117,-1.724514 -0.96857,4.51209 -5.67646,1.042972 z"
       id="path847" />
    <path
       style="fill:#000000;fill-opacity:0.1;stroke-width:0.264583;stroke-opacity:0.0627451"
       d="m -186.20055,98.321062 -4.22899,-0.333372 -0.44843,-11.596507 -1.12212,-1.795389 1.28658,-1.625311 0.92222,-1.68198 -0.8032,-2.220609 -0.66146,-0.94494 0.11812,-1.322917 1.48828,-0.02363 1.22842,1.960753 0.47247,6.779948 7.45814,7.208715 5.67646,-1.042974 0.96857,-4.512088 1.18117,1.724512 -0.82682,3.307294 2.64583,3.023812 -1.74406,5.200151 -1.87088,-2.071342 -0.47192,5.210292 -0.68509,-1.1103 -1.08668,2.62221 0.47247,3.54353 -6.85082,8.07924 5.7169,-9.82738 -1.08669,-1.34654 2.52185,-4.16426 -3.24065,-3.173837 -4.8776,-4.911084 2.27179,5.879928 -0.97487,0.345244 -0.0472,5.291679 z"
       id="path851" />
    <path
       style="fill:#673434;fill-opacity:1;stroke-width:0.264583;stroke-opacity:0.0627451"
       d="m -195.55543,107.86495 1.98438,5.66965 5.62239,-4.77195 0.94494,-3.87426 -1.98437,-13.512648 -2.26786,-4.346726 -2.97656,6.047621 2.64583,-1.464659 z"
       id="path849" />
    <path
       style="fill:#000000;fill-opacity:0.1;stroke-width:0.264583;stroke-opacity:0.0627451"
       d="m -208.05227,157.1436 -2.07887,-2.008 1.25205,-1.84263 1.72452,3.04743 z"
       id="path853" />
    <path
       style="fill:#000000;fill-opacity:0.1;stroke-width:0.264583;stroke-opacity:0.0627451"
       d="m -204.03627,151.09598 -1.77176,-2.45684 0.4016,-1.39379 2.008,2.22061 z"
       id="path855" />
    <path
       style="fill:#000000;fill-opacity:0.1;stroke-width:0.264583;stroke-opacity:0.0627451"
       d="m -202.92597,144.41053 0.30711,-1.41741 2.62221,0.92131 -0.92132,1.48828 z"
       id="path857" />
    <path
       style="fill:#000000;fill-opacity:0.1;stroke-width:0.264583;stroke-opacity:0.0627451"
       d="m -200.09114,137.93769 0.3071,-0.47248 2.38598,0.0472 -0.70871,1.67727 z"
       id="path859" />
    <path
       style="fill:#000000;fill-opacity:0.1;stroke-width:0.264583;stroke-opacity:0.0627451"
       d="m -195.08299,133.56734 v 0 l -2.81339,-0.8012 0.60136,-1.1192 2.20497,-0.15033 z"
       id="path861" />
    <path
       style="fill:#000000;fill-opacity:0.2;stroke-width:0.264583;stroke-opacity:0.0627451"
       d="m -188.60876,112.11956 -0.58465,3.12372 4.87766,2.78962 -1.90429,-5.16164 z"
       id="path863" />
    <path
       style="fill:#000000;fill-opacity:0.2;stroke-width:0.264583;stroke-opacity:0.0627451"
       d="m -176.75112,115.51897 -4.29947,5.6224 -0.23624,2.88207 0.75595,0.89769 -11.52827,3.2128 0.89769,-4.06325 6.04762,-3.35454 1.46466,-1.5119 1.6064,0.28348 z"
       id="path867" />
    <path
       style="fill:#000000;fill-opacity:0.2;stroke-width:0.264583;stroke-opacity:0.0627451"
       d="m -201.98894,151.00728 h 8.15172 l 3.54132,-2.20497 3.80859,-4.87767 7.61718,-1.26953 0.93544,1.40316 1.40317,0.26727 2.73951,-4.40994 -3.0736,-3.00679 -1.33635,1.87089 -8.28535,3.0736 -9.82216,0.66818 z"
       id="path869" />
    <path
       style="fill:#513c27;fill-opacity:1;stroke-width:0.264583;stroke-opacity:0.0627451"
       d="m -180.53088,124.92113 1.17633,-0.37353 -0.0501,4.66051 1.41152,2.34696 1.66726,31.91963 -7.1343,0.61421 -0.66146,-4.25223 -3.35454,-1.5119 1.37016,-23.93062 0.35371,-2.26279 -0.29089,-5.65012 z"
       id="path877"
       sodipodi:nodetypes="cccccccccccc" />
    <path
       style="fill:#90afbd;fill-opacity:1;stroke-width:0.264583;stroke-opacity:0.0627451"
       d="m -187.64155,135.00837 3.44903,-0.30716 0.0709,-1.55915 -0.28348,-2.24423 -0.56697,-1.11031 -3.33091,1.58278 z"
       id="path875"
       sodipodi:nodetypes="ccccccc" />
    <path
       style="fill:#352719;fill-opacity:1;stroke-width:0.264583;stroke-opacity:0.0627451"
       d="m -193.16946,133.28385 -1.03943,4.32311 8.55171,-3.75614 -0.0709,-2.78758 z"
       id="path871" />
    <path
       style="fill:#352719;fill-opacity:1;stroke-width:0.264583;stroke-opacity:0.0627451"
       d="m -184.40513,130.89788 0.28348,2.24423 6.54371,-1.53553 -1.2048,-2.90569 z"
       id="path873" />
    <path
       style="fill:#9c806b;fill-opacity:1;stroke-width:0.264583;stroke-opacity:0.0627451"
       d="m -177.56719,77.374527 -0.48443,4.660513 3.74178,2.004521 1.28623,-1.069078 0.20045,-1.753955 -2.28849,-4.460063 -1.67044,-0.0167 z"
       id="path881" />
    <path
       style="fill:#1a1a1a;fill-opacity:1;stroke-width:0.264583;stroke-opacity:0.0627451"
       d="m -174.10104,84.022858 4.18444,0.100224 4.17609,-5.078119 -3.70837,2.772921 z"
       id="path885" />
    <path
       style="fill:#c9c7c8;fill-opacity:1;stroke-width:0.264583;stroke-opacity:0.0627451"
       d="m -183.88143,84.72444 4.10927,2.422131 4.03686,-0.401037 1.38197,-2.29148 -1.72451,0.73233 -2.97657,0.09449 -2.43322,-0.720516 z"
       id="path887" />
    <path
       style="fill:#a18b50;fill-opacity:1;stroke-width:0.264583;stroke-opacity:0.0627451"
       d="m -192.94739,85.096614 2.14974,-3.96875 -0.52917,-0.661459 -3.10885,3.538802 z"
       id="path897" />
    <path
       style="fill:#a18b50;fill-opacity:1;stroke-width:0.264583;stroke-opacity:0.0627451"
       d="m -190.36771,81.954686 -0.29765,3.241146 1.5875,0.03307 -0.71343,-3.940402 z"
       id="path901" />
    <path
       style="fill:#000000;fill-opacity:0.2;stroke-width:0.264583;stroke-opacity:0.0627451"
       d="m -151.40781,208.95471 -1.91823,-19.71145 1.91823,-0.59532 -1.81781,-6.37678 -11.69304,2.29184 0.32741,5.94007 3.22727,-0.32741 9.09627,19.37437 z"
       id="path911" />
    <path
       style="fill:#c8ae8c;fill-opacity:1;stroke-width:0.264583;stroke-opacity:0.0627451"
       d="m -139.76614,91.082809 3.3785,-1.841516 6.50133,-2.572467 4.5369,7.39 -1.94104,3.882091 -1.02899,-5.846522 -2.75956,-2.011203 -5.89329,2.057976 2.64263,1.216076 3.46114,2.759559 -3.85871,0.11693 -6.73519,-4.115951 z"
       id="path923" />
    <path
       style="fill:#b49d7e;fill-opacity:1;stroke-width:0.264583;stroke-opacity:0.0627451"
       d="m -249.24887,146.30334 2.64262,3.88209 3.48453,1.42655 0.48228,-1.87435 -2.39993,-0.45257 -1.87089,-2.58416 z"
       id="path933" />
    <path
       style="fill:#c8ae8c;fill-opacity:1;stroke-width:0.264583;stroke-opacity:0.0627451"
       d="m -249.51862,145.76888 2.2655,-0.77722 2.91041,2.18282 4.56407,-0.97565 1.60637,0.50318 2.03162,0.85044 2.17336,2.92932 4.11049,1.18118 0.42522,0.61421 h 0.94495 l 1.06072,1.75995 -0.0739,6.99946 -6.47794,-2.87649 -3.62485,0.14032 -1.63702,-0.98222 -2.08136,0.93545 0.1637,-2.57247 -1.44909,0.17496 -4.63129,2.81846 -2.99342,-2.22168 1.75396,0.28063 5.83768,-6.9959 -2.39993,-0.45257 -1.87089,-2.58416 -2.33861,-0.39756 z"
       id="path925" />
    <path
       style="fill:#b49d7e;fill-opacity:1;stroke-width:0.264583;stroke-opacity:0.0627451"
       d="m -141.46242,92.117782 -2.17326,1.346277 0.4961,2.199349 5.50079,2.242431 1.90596,0.876977 3.83532,-0.467725 1.02899,-2.198288 -3.85871,0.11693 z"
       id="path927" />
    <path
       style="fill:#b49d7e;fill-opacity:1;stroke-width:0.264583;stroke-opacity:0.0627451"
       d="m -130.82175,97.192562 1.02899,1.075758 1.63702,0.04677 0.86529,-0.374177 -1.02899,-5.846521 -2.75956,-2.011201 -5.89329,2.057974 2.64263,1.216078 3.08696,-0.374179 0.98222,2.291839 z"
       id="path929" />
    <path
       style="fill:#b49d7e;fill-opacity:1;stroke-width:0.264583;stroke-opacity:0.0627451"
       d="m -250.23108,156.4529 -1.2223,1.4372 0.0331,1.09141 2.48047,3.20807 2.91042,-1.71979 4.87214,-4.78863 -1.44909,0.17496 -4.63129,2.81846 z"
       id="path935" />
    <path
       style="fill:#b49d7e;fill-opacity:1;stroke-width:0.264583;stroke-opacity:0.0627451"
       d="m -241.32098,158.25363 -0.0702,1.37977 2.6894,2.26845 3.62484,-1.59025 5.22014,1.44803 4.71289,2.48047 0.79375,-0.14883 0.0165,-1.65364 -3.16622,-1.40106 -6.47794,-2.87649 -3.62485,0.14032 -1.63702,-0.98222 z"
       id="path937" />
    <path
       style="fill:#9c896c;fill-opacity:1;stroke-width:0.264583;stroke-opacity:0.0627451"
       d="m -241.39118,159.6334 1.59028,4.44336 2.94665,-0.28063 7.81095,2.8531 4.69314,-2.55796 -0.79375,0.14883 -4.71289,-2.48047 -5.22014,-1.44803 -3.62484,1.59025 z"
       id="path939" />
    <path
       style="fill:#c5c5c5;fill-opacity:1;stroke-width:0.264583;stroke-opacity:0.0627451"
       d="m -151.75508,74.083332 0.44649,-1.041796 1.0914,0.396875 -0.24804,1.058333 z"
       id="path945" />
    <path
       style="fill:#9caa42;fill-opacity:1;stroke-width:0.264583;stroke-opacity:0.0627451"
       d="m -153.45948,77.922429 -1.09914,0.771742 0.0935,1.987817 -2.78294,-4.115951 1.8475,-2.104747 1.6721,-0.397565 3.26236,2.794638 z"
       id="path947"
       sodipodi:nodetypes="cccccccc" />
    <path
       style="fill:#000000;fill-opacity:0.15;stroke-width:0.264583;stroke-opacity:0.0627451"
       d="m -164.07676,106.0325 -1.26285,-1.1693 -2.80633,2.24506 1.10291,0.96576 1.01699,-0.22324 -0.0853,3.56052 -2.33861,4.7006 -2.92326,0.98222 v 1.70718 l 2.10475,0.28063 2.99342,-0.28063 1.37349,-1.29323 0.23151,-6.31693 -1.35599,-3.34036 0.82675,-1.30378 z"
       id="path959" />
    <path
       style="fill:#1e3042;fill-opacity:1;stroke-width:0.264583;stroke-opacity:0.0627451"
       d="m -166.55521,108.47917 -0.99218,2.91041 3.9026,0.79375 4.23333,-0.13229 0.26459,-3.77031 -4.82865,0.59531 z"
       id="path951" />
    <path
       style="fill:#000000;fill-opacity:0.1;stroke-width:0.264583;stroke-opacity:0.0627451"
       d="m -163.64479,112.18333 -0.33073,-3.30729 4.82865,-0.59531 -0.26459,3.77031 z"
       id="path953" />
    <path
       style="fill:#000000;fill-opacity:0.1;stroke-width:0.264583;stroke-opacity:0.0627451"
       d="m -169.16797,123.4612 0.4961,-0.29766 -0.29766,-1.25677 -0.76068,0.0662 z"
       id="path955" />
    <path
       style="fill:#756b46;fill-opacity:1;stroke-width:0.264583;stroke-opacity:0.0627451"
       d="m -150.91981,106.41535 3.95225,5.49573 0.74835,3.81193 -1.65587,6.07052 -3.14193,1.9513 -4.99401,0.0992 -0.56224,-1.48823 3.20808,-0.89302 1.62058,-3.57188 -1.37349,1.29323 -2.99342,0.28063 -2.10475,-0.28063 v -1.70718 l 2.92326,-0.98222 2.33861,-4.7006 0.0853,-3.56052 -1.017,0.22324 -1.10291,-0.96576 2.80633,-2.24506 z"
       id="path961-5" />
    <path
       style="fill:#000000;fill-opacity:0.1;stroke-width:0.264583;stroke-opacity:0.0627451"
       d="m -156.57326,122.35582 3.20808,-0.89302 1.62057,-3.57188 0.23151,-6.31693 -1.35599,-3.34036 -1.01699,0.22324 -1.10291,-0.96576 2.80633,-2.24506 1.26285,1.1693 -1.12253,0.5145 2.94665,5.05139 -0.39757,6.3844 -2.5257,3.67161 -3.64823,0.95884 0.15227,0.5503 -0.4961,0.29766 z"
       id="path957-5" />
    <path
       style="fill:#000000;fill-opacity:0.15;stroke-width:0.264583;stroke-opacity:0.0627451"
       d="m -150.91981,106.41535 -1.26285,-1.1693 -2.80633,2.24506 1.10291,0.96576 1.01699,-0.22324 -0.0853,3.56052 -2.33861,4.7006 -2.92326,0.98222 v 1.70718 l 2.10475,0.28063 2.99342,-0.28063 1.37349,-1.29323 0.23151,-6.31693 -1.35599,-3.34036 0.82675,-1.30378 z"
       id="path959-1" />
    <path
       style="fill:#1e3042;fill-opacity:1;stroke-width:0.264583;stroke-opacity:0.0627451"
       d="m -153.39826,108.86202 -0.99218,2.91041 3.9026,0.79375 4.23333,-0.13229 0.26459,-3.77031 -4.82865,0.59531 z"
       id="path951-9" />
    <path
       style="fill:#000000;fill-opacity:0.1;stroke-width:0.264583;stroke-opacity:0.0627451"
       d="m -150.48784,112.56618 -0.33073,-3.30729 4.82865,-0.59531 -0.26459,3.77031 z"
       id="path953-2" />
    <path
       style="fill:#000000;fill-opacity:0.1;stroke-width:0.264583;stroke-opacity:0.0627451"
       d="m -156.01102,123.84405 0.4961,-0.29766 -0.29766,-1.25677 -0.76068,0.0662 z"
       id="path955-7" />
    <path
       style="fill:#756b46;fill-opacity:1;stroke-width:0.264583;stroke-opacity:0.0627451"
       d="m -137.72297,105.74036 3.95225,5.49573 0.74835,3.81193 -1.65587,6.07052 -3.14193,1.9513 -4.99401,0.0992 -0.56224,-1.48823 3.20808,-0.89302 1.62058,-3.57188 -1.37349,1.29323 -2.99342,0.28063 -2.10475,-0.28063 v -1.70718 l 2.92326,-0.98222 2.33861,-4.7006 0.0853,-3.56052 -1.017,0.22324 -1.10291,-0.96576 2.80633,-2.24506 z"
       id="path961-59" />
    <path
       style="fill:#000000;fill-opacity:0.1;stroke-width:0.264583;stroke-opacity:0.0627451"
       d="m -143.37642,121.68083 3.20808,-0.89302 1.62057,-3.57188 0.23151,-6.31693 -1.35599,-3.34036 -1.01699,0.22324 -1.10291,-0.96576 2.80633,-2.24506 1.26285,1.1693 -1.12253,0.5145 2.94665,5.05139 -0.39757,6.3844 -2.5257,3.67161 -3.64823,0.95884 0.15227,0.5503 -0.4961,0.29766 z"
       id="path957-7" />
    <path
       style="fill:#000000;fill-opacity:0.15;stroke-width:0.264583;stroke-opacity:0.0627451"
       d="m -137.72297,105.74036 -1.26285,-1.1693 -2.80633,2.24506 1.10291,0.96576 1.01699,-0.22324 -0.0853,3.56052 -2.33861,4.7006 -2.92326,0.98222 v 1.70718 l 2.10475,0.28063 2.99342,-0.28063 1.37349,-1.29323 0.23151,-6.31693 -1.35599,-3.34036 0.82675,-1.30378 z"
       id="path959-17" />
    <path
       style="fill:#1e3042;fill-opacity:1;stroke-width:0.264583;stroke-opacity:0.0627451"
       d="m -140.20142,108.18703 -0.99218,2.91041 3.9026,0.79375 4.23333,-0.13229 0.26459,-3.77031 -4.82865,0.59531 z"
       id="path951-0" />
    <path
       style="fill:#000000;fill-opacity:0.1;stroke-width:0.264583;stroke-opacity:0.0627451"
       d="m -137.291,111.89119 -0.33073,-3.30729 4.82865,-0.59531 -0.26459,3.77031 z"
       id="path953-3" />
    <path
       style="fill:#000000;fill-opacity:0.1;stroke-width:0.264583;stroke-opacity:0.0627451"
       d="m -142.81418,123.16906 0.4961,-0.29766 -0.29766,-1.25677 -0.76068,0.0662 z"
       id="path955-0" />
    <path
       style="fill:#000000;fill-opacity:0.1;stroke-width:0.264583;stroke-opacity:0.0627451"
       d="m -140.85755,148.23281 3.11352,-9.22593 -1.6838,-3.27405 0.5145,-3.50791 2.8531,-1.6838 6.59487,0.3274 -0.56126,1.73057 -1.3564,0.0468 -3.92886,3.36759 -4.44335,12.53494 0.0702,1.44994 -4.20949,-1.11084 0.23386,-0.76005 z"
       id="path1076" />
    <path
       style="fill:#000000;fill-opacity:0.1;stroke-width:0.264583;stroke-opacity:0.0627451"
       d="m -143.66066,148.12747 -0.23386,0.76005 4.20949,1.11084 -0.0702,-1.44994 4.44335,-12.53494 -1.52008,0.25724 -4.02557,11.96209 z"
       id="path1100"
       sodipodi:nodetypes="cccccccc" />
    <path
       style="fill:#1e3042;fill-opacity:1;stroke-width:0.264583;stroke-opacity:0.0627451"
       d="m -143.70182,139.23698 1.62057,-4.3987 7.8919,1.03486 -0.94659,7.2003 z"
       id="path1033" />
    <path
       style="fill:#695b3d;fill-opacity:1;stroke-width:0.264583;stroke-opacity:0.0627451"
       d="m -150.01875,130.10885 v 0 l -0.9095,-2.1332 -0.8942,0.0865 -0.73464,-0.81414 0.5457,-0.23152 -0.27285,-0.82682 -3.175,0.77722 -0.44649,2.72851 0.76068,-0.0496 0.16536,-1.48828 1.00873,-0.16536 0.82682,1.7694 -0.46302,-0.0662 -2.26549,5.68854 4.39869,-0.47955 z"
       id="path1090" />
    <path
       style="fill:#000000;fill-opacity:0.1;stroke-width:0.264583;stroke-opacity:0.0627451"
       d="m -158.2539,144.36328 2.11666,0.79375 3.27422,-6.81302 -0.85989,-3.04271 0.66145,-3.80338 3.04271,-1.38907 5.88698,0.56224 -0.79375,1.81901 -1.91823,-0.19844 -3.19822,3.23164 -4.77235,10.0306 -0.19844,1.19063 -3.80338,-1.52135 z"
       id="path1078"
       sodipodi:nodetypes="cccccccccccccc" />
    <path
       style="fill:#000000;fill-opacity:0.1;stroke-width:0.264583;stroke-opacity:0.0627451"
       d="m -158.81614,145.22318 0.56224,-0.8599 2.11666,0.79375 3.58982,-7.27268 0.95883,0.91205 -3.22573,6.7575 -0.19844,1.19063 z"
       id="path1102" />
    <path
       style="fill:#1e3042;fill-opacity:1;stroke-width:0.264583;stroke-opacity:0.0627451"
       d="m -158.51849,138.07943 1.88516,-3.83646 2.54661,0.39687 5.22552,0.0662 0.36381,4.56406 -5.68855,-0.3638 z"
       id="path1035" />
    <path
       style="fill:#1e3042;fill-opacity:1;stroke-width:0.264583;stroke-opacity:0.0627451"
       d="m -172.47526,134.70599 1.75287,-3.30729 4.29948,1.48828 2.84427,1.19062 -2.38125,3.93568 -2.34818,-1.48828 z"
       id="path1037" />
    <path
       style="fill:#000000;fill-opacity:0.1;stroke-width:0.264583;stroke-opacity:0.0627451"
       d="m -165.95989,138.01328 v 0 l -2.34818,-1.48828 2.19672,-3.50496 2.53271,1.05756 z"
       id="path1041" />
    <path
       style="fill:#000000;fill-opacity:0.1;stroke-width:0.264583;stroke-opacity:0.0627451"
       d="m -154.18594,138.9063 0.0992,-4.26646 5.22552,0.0662 0.36381,4.56406 z"
       id="path1043" />
    <path
       style="fill:#000000;fill-opacity:0.1;stroke-width:0.264583;stroke-opacity:0.0627451"
       d="m -137.55694,135.43462 -1.48443,5.86188 3.90543,1.75937 0.94659,-7.2003 z"
       id="path1045"
       sodipodi:nodetypes="ccccc" />
    <path
       style="fill:#000000;fill-opacity:0.1;stroke-width:0.264583;stroke-opacity:0.0627451"
       d="m -121.60763,177.82778 v -0.56127 l 2.80633,-4.8643 5.51911,-5.23849 5.0514,-3.27405 3.92886,-0.74835 6.922279,3.74177 5.051393,10.85114 1.028988,4.86431 -1.028988,5.33203 z"
       id="path1124" />
    <path
       style="fill:#544320;fill-opacity:1;stroke-width:0.264583;stroke-opacity:0.0627451"
       d="m -110.94358,174.55372 2.80633,-3.27405 4.67722,-1.40316 2.61924,1.59025 2.61924,4.58368 v 4.20949 z"
       id="path1116" />
    <path
       style="fill:#000000;fill-opacity:0.1;stroke-width:0.264583;stroke-opacity:0.0627451"
       d="m -119.26902,193.63677 -0.28064,23.01191 26.940769,-7.10937 0.280633,-21.60874 z"
       id="path1126" />
    <path
       style="fill:#544320;fill-opacity:1;stroke-width:0.264583;stroke-opacity:0.0627451"
       d="m -116.18206,198.40753 0.46772,12.16076 20.112033,-4.11595 -0.654812,-11.97367 z"
       id="path1118" />
  </g>
</svg>
