<?xml version="1.0" encoding="UTF-8" standalone="no"?>
<svg
   xmlns:dc="http://purl.org/dc/elements/1.1/"
   xmlns:cc="http://creativecommons.org/ns#"
   xmlns:rdf="http://www.w3.org/1999/02/22-rdf-syntax-ns#"
   xmlns:svg="http://www.w3.org/2000/svg"
   xmlns="http://www.w3.org/2000/svg"
   xmlns:sodipodi="http://sodipodi.sourceforge.net/DTD/sodipodi-0.dtd"
   xmlns:inkscape="http://www.inkscape.org/namespaces/inkscape"
   width="546.57983"
   height="473.10336"
   version="1.1"
   viewBox="0 0 546.57985 473.10336"
   id="svg12166"
   sodipodi:docname="tavern.svg"
   inkscape:version="1.0.1 (3bc2e813f5, 2020-09-07)">
  <defs
     id="defs12170" />
  <sodipodi:namedview
     pagecolor="#ffffff"
     bordercolor="#666666"
     borderopacity="1"
     objecttolerance="10"
     gridtolerance="10"
     guidetolerance="10"
     inkscape:pageopacity="0"
     inkscape:pageshadow="2"
     inkscape:window-width="1920"
     inkscape:window-height="1001"
     id="namedview12168"
     showgrid="false"
     inkscape:zoom="1.4142136"
     inkscape:cx="285.62687"
     inkscape:cy="256.19561"
     inkscape:window-x="-9"
     inkscape:window-y="-9"
     inkscape:window-maximized="1"
     inkscape:current-layer="svg12166"
     inkscape:document-rotation="0" />
  <metadata
     id="metadata12070">
    <rdf:RDF>
      <cc:Work
         rdf:about="">
        <dc:format>image/svg+xml</dc:format>
        <dc:type
           rdf:resource="http://purl.org/dc/dcmitype/StillImage" />
        <dc:title />
      </cc:Work>
    </rdf:RDF>
  </metadata>
  <path
     style="fill:#b1b18f;fill-opacity:1;stroke-width:1;stroke-opacity:0.0627451"
     d="m 272.07986,37.133999 182.5,4.236874 92,210.633167 L 428.07185,389.21753 169.8011,279.65236 Z"
     id="path15387" />
  <path
     style="fill:#4a8773;fill-opacity:1;stroke-width:1;stroke-opacity:0.0627451"
     d="m 288.77181,146.9758 21.80805,4.85643 6.82978,-10.84827 11.66726,-5.99184 -6.71751,18.83151 4.24264,0.42799 6.36396,-22.25543 3.18198,-2.13994 47.0226,33.38313 -50.55814,14.97961 17.67767,2.13995 49.49748,47.07878 -26.16295,8.13178 -14.84925,-29.95921 9.54595,30.8152 -50.91169,18.40352 15.20279,34.23912 -41.7193,24.39536 2.47488,4.27988 54.09367,1.28397 -10.25305,-26.53532 16.26345,-5.56384 14.14214,48.36274 23.68808,-30.38721 29.27756,10.65343 -4.52883,66.38458 -122.68302,33.81112 -42.77996,-135.67248 17.24181,-125.07047 z"
     id="path15385" />
  <path
     style="fill:#433934;fill-opacity:1;stroke-width:1;stroke-opacity:0.0627451"
     d="m 301.32296,272.80455 v 85.81177 l -30.7431,33.80982 -114.5,-49.32931 L 90.131157,126.86986 186.63473,67.884516 Z"
     id="path15383"
     sodipodi:nodetypes="ccccccc" />
  <path
     style="fill:#4a5550;fill-opacity:1;stroke-width:1;stroke-opacity:0.0627451"
     d="m 145.05236,271.73456 41.36575,-3.20991 -28.28427,-2.35394 27.93071,-73.82809 115.01531,58.75352 55.125,-7.49019 1.75,15.13169 -15.28125,2.49673 -11.96875,14.29944 -51.03705,3.90457 21.3016,94.58553 -16.26346,-0.85597 -7.07107,-36.16506 -9.36916,-32.31316 -25.8094,5.34985 10.74854,48.34027 -8.625,-0.30264 -18,-73.08607 -64.25,4.53951 z"
     id="path15381" />
  <path
     style="fill:#433934;fill-opacity:1;stroke-width:1;stroke-opacity:0.0627451"
     d="m 238.95486,296.49121 33.375,-3.32896 -5.375,-16.03961 -27.8573,2.95772 z"
     id="path15379" />
  <path
     style="fill:#433934;fill-opacity:1;stroke-width:1;stroke-opacity:0.0627451"
     d="m 237.68335,265.95672 1.41421,-2.78193 27.75394,-3.8519 -0.35355,7.06182 z"
     id="path15375" />
  <path
     style="fill:#41453d;fill-opacity:1;stroke-width:1;stroke-opacity:0.0627451"
     d="m 175.45795,264.03076 -5.65685,15.6216 16.79378,17.54755 30.58237,-7.9178 3.53554,-18.18953 -15.73313,-16.47756 z"
     id="path15367" />
  <path
     style="fill:#433934;fill-opacity:1;stroke-width:1;stroke-opacity:0.0627451"
     d="m 216.91209,271.84156 h 13.52341 l -0.35355,-15.40759 -16.79378,2.78193"
     id="path15373" />
  <path
     style="fill:#433934;fill-opacity:1;stroke-width:1;stroke-opacity:0.0627451"
     d="m 325.36459,260.39286 -50.53473,0.69019 3,-8.0198 49.75,-3.17766 z"
     id="path15377" />
  <path
     style="fill:#977759;fill-opacity:1;stroke-width:1;stroke-opacity:0.0627451"
     d="m 185.57986,259.87252 41.25,-1.66449 1,5.29609 8.625,0.30263 0.375,-5.14477 30,-2.26975 0.25,7.11189 8.375,7.26322 3.75,17.55276 -2.75,-0.45396 4.625,11.80273 1.5,-0.75658 6.625,30.86865 -1.5,0.45395 3.625,12.86194 7.75,1.36185 -1,-14.07248 -5.625,-1.8158 -5.625,-28.75021 5.75,-3.17766 -2.625,-10.89482 -6.375,-0.15132 -5.32626,-22.10061 -1.06066,-0.74898 2.76192,-6.50589 -14.75,-4.69082 z"
     id="path15363" />
  <path
     style="fill:#5a4235;fill-opacity:1;stroke-width:1;stroke-opacity:0.0627451"
     d="m 327.57986,249.88559 -2.21527,10.50727 13.08148,-1.71195 1.06066,-19.0455 -25.45585,-3.20992 1.94455,3.8519 z"
     id="path15361" />
  <path
     style="fill:#554f42;fill-opacity:1;stroke-width:1;stroke-opacity:0.0627451"
     d="m 357.20486,226.12884 -0.5,14.67775 -32.5,3.48028 2.25,-18.7633 z"
     id="path15359" />
  <path
     style="fill:#7a5d4a;fill-opacity:1;stroke-width:1;stroke-opacity:0.0627451"
     d="m 326.45486,225.52357 4.625,7.26322 26.125,-6.65795 0.25,-3.48029 z"
     id="path15357" />
  <path
     style="fill:#967654;fill-opacity:1;stroke-width:1;stroke-opacity:0.0627451"
     d="m 281.34719,206.78726 -2.38648,0.74898 0.44194,20.00848 31.90819,14.65861 4.68459,-1.92594 -2.65166,-25.89332 -17.58928,-1.49798 -2.65165,1.28397 -0.17677,13.37466 -3.97748,-2.03295 1.06066,-14.97962 z"
     id="path15353" />
  <path
     style="fill:#bd9069;fill-opacity:1;stroke-width:1;stroke-opacity:0.0627451"
     d="m 152.70486,252.15535 3.75,9.8356 171.125,-12.10536 2.625,-10.28955 -29.23545,-0.60262 -34.01455,3.0237 z"
     id="path15345" />
  <path
     style="fill:#ad926c;fill-opacity:1;stroke-width:1;stroke-opacity:0.0627451"
     d="m 281.34719,206.78726 0.17678,7.91779 8.48528,-4.1729 v -5.02887 z"
     id="path15349" />
  <path
     style="fill:#9f795b;fill-opacity:1;stroke-width:1;stroke-opacity:0.0627451"
     d="m 254.20486,243.98424 -1,2.87502 11.25,0.75658 2.5,-5.59872 -96.75,4.99346 -0.5,7.11189 13.2661,-2.71737 43.7339,-6.05901 1.125,6.80926 9.875,-3.48029 1.375,-4.23687 z"
     id="path15343" />
  <path
     style="fill:#624638;fill-opacity:1;stroke-width:1;stroke-opacity:0.0627451"
     d="m 264.07986,237.02366 21.625,-2.57239 0.125,10.28955 -18.625,3.02634 z"
     id="path15347" />
  <path
     style="fill:#ad926c;fill-opacity:1;stroke-width:1;stroke-opacity:0.0627451"
     d="m 295.75449,212.88609 -0.44194,1.39097 18.03122,0.10701 0.0884,-5.45686 z"
     id="path15351" />
  <path
     style="fill:#ebb584;fill-opacity:1;stroke-width:1;stroke-opacity:0.0627451"
     d="m 265.20486,251.55009 4,8.77638 10.75,-4.08556 -5.375,-9.38165 z"
     id="path15341" />
  <path
     style="fill:#604631;fill-opacity:1;stroke-width:1;stroke-opacity:0.0627451"
     d="m 300.96941,238.99342 h 0.53033 l 8.04334,0.42798 3.88908,-18.08253 -3.53553,-5.24286 -12.02082,-0.53499 -3.09359,2.35395 z"
     id="path15337" />
  <path
     style="fill:#34291e;fill-opacity:1;stroke-width:1;stroke-opacity:0.0627451"
     d="m 274.95486,240.04999 9.875,0.15132 5.875,-21.03305 -11,-5.29609 -6.875,5.29609 z"
     id="path15335" />
  <path
     style="fill:#6a4431;fill-opacity:1;stroke-width:1;stroke-opacity:0.0627451"
     d="m 279.57986,218.86563 4.25,8.0198 7.875,-5.44742 -3.25,-10.7435 z"
     id="path15333" />
  <path
     style="fill:#603b2c;fill-opacity:1;stroke-width:1;stroke-opacity:0.0627451"
     d="m 233.57986,181.49035 11.375,60.98072 11.625,-3.17766 3.75,-67.48735 z"
     id="path15329" />
  <path
     style="fill:#5e4136;fill-opacity:1;stroke-width:1;stroke-opacity:0.0627451"
     d="m 237.45486,243.98424 29,-0.30264 0.375,-7.71716 -21.875,6.50663 1.625,-24.81597 9.875,-3.32898 0.625,-25.26992 -17.875,4.38819 z"
     id="path15327" />
  <path
     style="fill:#754634;fill-opacity:1;stroke-width:1;stroke-opacity:0.0627451"
     d="m 255.20486,200.02667 -2.75,38.81279 10.875,-0.60527 1.5,-38.58581 z"
     id="path15325" />
  <path
     style="fill:#4f3b30;fill-opacity:1;stroke-width:1;stroke-opacity:0.0627451"
     d="m 248.77609,189.02571 v -0.32099 l 1.85615,-7.3293 -4.28683,0.96297 0.44194,-7.54331 6.8059,-2.03295 -0.66291,12.25119 1.94454,0.90947 -0.0884,4.33339 z"
     id="path15321" />
  <path
     style="fill:#4f3b30;fill-opacity:1;stroke-width:1;stroke-opacity:0.0627451"
     d="m 243.57986,198.5135 0.1875,0.3783 0.5625,13.39154 7.1875,-1.74015 -0.1875,-13.92115 z"
     id="path15319" />
  <path
     style="fill:#55453d;fill-opacity:1;stroke-width:1;stroke-opacity:0.0627451"
     d="m 201.97446,247.01821 2.47487,-18.93851 0.44194,-42.37091 -20.77126,2.46095 -1.14905,63.23536 z"
     id="path15315" />
  <path
     style="fill:#4c4e46;fill-opacity:1;stroke-width:1;stroke-opacity:0.0627451"
     d="m 135.15287,258.03893 17.67767,-1.49797 7.77817,-88.8077 -6.01041,0.42799 z"
     id="path15313" />
  <path
     style="fill:#5e4136;fill-opacity:1;stroke-width:1;stroke-opacity:0.0627451"
     d="m 235.57986,189.51015 -6.375,-0.75659 0.125,58.1057 1.875,0.15132 2,-28.14495 z"
     id="path15295" />
  <path
     style="fill:#403831;fill-opacity:1;stroke-width:1;stroke-opacity:0.0627451"
     d="m 197.70486,173.77318 -5.75,14.98038 43.625,0.75659 v -7.86849 z"
     id="path15293" />
  <path
     style="fill:#83644c;fill-opacity:1;stroke-width:1;stroke-opacity:0.0627451"
     d="m 235.57986,189.51015 -2.375,29.35548 3.625,3.63161 0.625,21.487 -6.625,0.45395 h 8.25 l 2.125,-2.26975 0.5,-53.71751 z"
     id="path15289" />
  <path
     style="fill:#442d20;fill-opacity:1;stroke-width:1;stroke-opacity:0.0627451"
     d="m 202.20486,242.92502 1.75,-53.56619 25.25,-0.60527 0.125,58.1057 z"
     id="path15285" />
  <path
     style="fill:#83644c;fill-opacity:1;stroke-width:1;stroke-opacity:0.0627451"
     d="m 203.95486,189.35883 -0.125,23.75676 2,2.26975 -1.125,22.84885 -11.375,-1.81579 2.625,-44.03324 z"
     id="path15287" />
  <path
     style="fill:#8c6546;fill-opacity:1;stroke-width:1;stroke-opacity:0.0627451"
     d="m 256.57986,172.86528 -1.375,28.44758 9.625,-1.66448 -1.5,38.58581 9.75,-1.21053 3.75,-64.00707 z"
     id="path15323" />
  <path
     style="fill:#4a4a43;fill-opacity:1;stroke-width:1;stroke-opacity:0.0627451"
     d="m 165.32986,175.13504 56.62036,-54.69455 -89.80256,33.81113 -19.44543,-28.24728 61.51829,-97.153467 100.76271,-0.427996 27.22361,80.033933 -13.78858,9.41574 12.1092,56.70854 z"
     id="path15281" />
  <path
     style="fill:#a18659;fill-opacity:1;stroke-width:1;stroke-opacity:0.0627451"
     d="m 252.07986,135.48999 -1.875,39.94768 8.375,-0.60527 -2.75,-29.05285 z"
     id="path15279" />
  <path
     style="fill:#83644c;fill-opacity:1;stroke-width:1;stroke-opacity:0.0627451"
     d="m 200.95486,173.77318 -4.75,9.68428 49.875,2.57239 2.125,-2.87502 c 0,0 -94.5,-18.7633 -47.25,-9.38165 z"
     id="path15291" />
  <path
     style="fill:#a18659;fill-opacity:1;stroke-width:1;stroke-opacity:0.0627451"
     d="m 206.82986,167.11524 -0.5,0.75658 -5,11.50009 46.875,3.78292 0.125,-10.44087 z"
     id="path15277" />
  <path
     style="fill:#a18659;fill-opacity:1;stroke-width:1;stroke-opacity:0.0627451"
     d="m 292.95486,163.48363 7.125,13.31589 8.25,2.26976 -11,-17.40145 z"
     id="path15275" />
  <path
     style="fill:#a18659;fill-opacity:1;stroke-width:1;stroke-opacity:0.0627451"
     d="m 280.57986,162.2731 4.25,14.07247 11.125,1.8158 -10.125,-19.06593 z"
     id="path15273" />
  <path
     style="fill:#a18659;fill-opacity:1;stroke-width:1;stroke-opacity:0.0627451"
     d="m 277.82986,157.12832 -0.625,-13.92116 4.5,-1.21053 3,11.34877 z"
     id="path15271" />
  <path
     style="fill:#a18659;fill-opacity:1;stroke-width:1;stroke-opacity:0.0627451"
     d="m 267.82986,155.00989 1.375,14.67774 h -1.875 v 1.51317 l 11.125,1.81579 -7.625,-25.26992 z"
     id="path15269" />
  <path
     style="fill:#ac946a;fill-opacity:1;stroke-width:1;stroke-opacity:0.0627451"
     d="m 212.82986,160.91125 3,-30.2634 16.75,-13.31588 -9.5,41.46083 z"
     id="path15267" />
  <path
     style="fill:#3f403c;fill-opacity:1;stroke-width:1;stroke-opacity:0.0627451"
     d="M 275.33679,92.193234 135.6832,185.92279 132.50122,164.09536 276.04389,88.769315 Z"
     id="path15261" />
  <path
     style="fill:#7a4d37;fill-opacity:1;stroke-width:1;stroke-opacity:0.0627451"
     d="m 233.20486,218.86563 -2,28.14495 6.25,-3.02634 -0.625,-21.487 z"
     id="path15297" />
  <path
     style="fill:#362a23;fill-opacity:1;stroke-width:1;stroke-opacity:0.0627451"
     d="m 181.45486,222.11894 -11.625,0.45395 -6.3125,9.8356 6,18.61198 11.875,-0.45395 4.625,-15.58564 -10.9375,5.75004 -1.875,-15.96393 z"
     id="path15309" />
  <path
     style="fill:#3a6564;fill-opacity:1;stroke-width:1;stroke-opacity:0.0627451"
     d="m 105.63116,194.05458 68.58936,148.08416 78.8424,31.24319 -121.62236,25.67934 -62.578953,-98.43744 6.01041,-104.85729 z"
     id="path15237" />
  <path
     style="fill:#484329;fill-opacity:1;stroke-width:1;stroke-opacity:0.0627451"
     d="m 63.911859,213.31409 -1.767767,119.83689 30.405585,6.41984 -14.84924,-127.11271 z"
     id="path15235" />
  <path
     style="fill:#977759;fill-opacity:1;stroke-width:1;stroke-opacity:0.0627451"
     d="m 273.21546,277.29843 -4.94974,-7.9178 -33.76435,1.06997 1.94454,5.13587 -6.36396,1.06997 9.54594,47.93476 13.61181,14.12363 33.41079,0.85599 -3.88908,-11.7697 -36.94633,0.214 -3.35876,-17.97555 37.47666,-1.49795 -4.59619,-11.34171 -33.4108,3.20992 -2.82843,-20.32947 z"
     id="path15365" />
  <path
     style="fill:#1b3234;fill-opacity:1;stroke-width:1;stroke-opacity:0.0627451"
     d="m 81.589527,373.80992 6.36396,-20.97146 5.65685,5.99185 -33.587565,-43.22687 27.577165,-11.12772 19.798993,37.23503 -2.82843,-18.83151 11.31371,0.42799 4.59619,17.97554 0.35355,-9.84375 28.99138,41.08694 -28.99138,-82.17387 26.16295,-2.13995 1.41422,62.0584 6.36396,-46.22281 16.61701,5.99184 -5.3033,41.08695 24.74874,-29.95924 46.66904,-1.28396 -40.30508,35.52308 -4.5962,30.38721 69.65002,-63.77034 -9.19239,51.35866 -160.866793,55.21058 -14.49569,-28.24727 z"
     id="path15233" />
  <path
     style="fill:#203f42;fill-opacity:1;stroke-width:1;stroke-opacity:0.0627451"
     d="m 65.326073,473.10335 19.798994,-54.78258 24.041623,-13.26766 -59.043413,13.26766 29.34493,-53.49861 82.377943,-4.2799 -7.42462,-20.97144 19.79899,-11.55572 11.66726,52.64264 27.22361,-27.39129 21.56676,7.70381 -20.5061,20.97146 32.52691,-17.11956 6.71751,-9.84375 8.13173,14.97962 75.66043,22.25541 -51.6188,41.08694 -30.40559,-14.97961 -114.5513,43.65487 -3.53553,-12.83968 -3.53553,14.55164 -13.08148,-6.41983 4.94975,8.98776 -7.77818,1.71195 0.35356,5.13587 -27.223613,-1.71195 -6.36396,-23.96738 0.35355,23.53939 z"
     id="path15231" />
  <path
     style="fill:#1b3838;fill-opacity:1;stroke-width:0.999995;stroke-opacity:0.0627451"
     d="M 26.4206,185.77155 23.859163,162.14272 75.087907,48.887254 93.658317,38.702416 113.50945,8.555267 l 47.38659,-1.629571 0.32018,12.629213 16.32916,-17.925327 14.0879,1.629572 -15.68879,21.999258 h 11.52646 L 199.31759,0.407401 206.68172,0 l 16.32916,36.665444 -12.16682,24.443621 -48.34713,0.407403 78.44401,99.811472 -29.7767,-0.40741 -11.52646,-54.59076 2.24125,51.33164 -47.38658,-8.9627 8.32467,-21.59186 -19.21078,14.66618 -9.60539,-13.85139 -14.72826,34.22108 24.01347,41.55417 -20.17131,4.48133 z"
     id="path15223" />
  <path
     style="fill:#152e2f;fill-opacity:1;stroke-width:0.999997;stroke-opacity:0.0627451"
     d="m 0,212.88609 25.177976,50.93069 7.997709,-29.10325 2.665904,32.95514 32.583261,10.69972 2.962117,-46.22278 8.59013,-10.27176 6.51665,13.26767 11.55225,-5.99184 -7.40528,11.98369 28.436293,23.53937 5.92423,-32.52713 -1.48106,34.2391 18.06891,15.83558 -11.25604,-80.88989 -14.51437,-16.26359 45.32036,24.39538 -15.69921,-59.06248 -71.090753,-28.24727 -45.616564,58.2065 3.258327,14.97961 -12.440883,-4.70787 z"
     id="path15217" />
  <path
     style="fill:#ac946a;fill-opacity:1;stroke-width:1;stroke-opacity:0.0627451"
     d="m 234.32986,134.88473 1,20.27647 14.5,0.30264 -4,-33.28973 z"
     id="path15265" />
  <path
     style="fill:#194144;fill-opacity:1;stroke-width:1;stroke-opacity:0.0627451"
     d="m 112.34867,72.93372 13.08148,29.10325 20.85965,-37.235034 16.61701,7.703799 -3.18198,67.194245 33.94112,9.41577 -6.01041,-53.498616 39.24443,63.770346 15.9099,-0.42798 -49.85102,-98.865445 -85.91348,-23.96738 28.99138,20.971462 z"
     id="path15219" />
  <path
     style="fill:#ac946a;fill-opacity:1;stroke-width:1;stroke-opacity:0.0627451"
     d="m 281.57986,57.107834 29,94.724396 -23.25,4.53951 -5,-38.73714 -1.5,3.02634 1.25,26.63178 -13.75,0.30263 -2.5,-9.38165 1.75,15.1317 -12,0.30263 -6.75,-26.93441 15,0.30263 0.25,-9.38165 17.25,-17.55276 z"
     id="path15263" />
  <path
     style="fill:#747763;fill-opacity:1;stroke-width:1;stroke-opacity:0.0627451"
     d="m 234.32986,94.331804 18.75,-58.408341 27.75,9.38165 12.75,59.921497 -25.5,-3.32897 -2,-55.079358 -9.25,64.158368 z"
     id="path15259" />
  <path
     style="fill:#194144;fill-opacity:1;stroke-width:1;stroke-opacity:0.0627451"
     d="m 192.60529,25.854944 16.97056,27.819278 37.83022,4.279897 -24.39519,-29.959227 z"
     id="path15221" />
  <path
     style="fill:#152e2f;fill-opacity:1;stroke-width:1;stroke-opacity:0.0627451"
     d="m 39.829861,39.976054 13.5,5.447409 67.499999,24.210709 -41.500003,-46.605615 z"
     id="path15225" />
  <path
     style="fill:#2c494b;fill-opacity:1;stroke-width:1;stroke-opacity:0.0627451"
     d="m 189.06976,432.8724 94.0452,-25.25135 -23.33452,-20.54347 19.09188,-11.5557 24.39518,-34.23911 14.49569,14.97961 -27.22361,26.10733 35.70889,-16.69158 10.25305,17.54755 -21.56676,4.27989 20.15255,9.84374 -38.89087,34.23911 -2.82843,-15.83558 -21.56676,4.70787 22.27386,35.52308 -28.99137,-1.28396 -6.36396,-30.81521 -17.32412,23.96738 z"
     id="path15227" />
  <path
     style="fill:#2d5653;fill-opacity:1;stroke-width:1;stroke-opacity:0.0627451"
     d="m 378.57986,337.34679 29.5,45.39507 35,-34.50026 v -59.31623 l -27.5,8.47374 14.5,42.36874 -22.5,5.44741 -20.5,-44.18454 z"
     id="path15249" />
  <path
     style="fill:#4b4b28;fill-opacity:1;stroke-width:1;stroke-opacity:0.0627451"
     d="m 387.41321,429.44848 -10.25305,1.28397 8.83884,-29.10325 3.88908,0.42799 11.31371,-80.03392 19.37807,-6.46613 9,-6.05267 11.92702,-10.16462 7.77817,7.27582 z"
     id="path15243" />
  <path
     style="fill:#85fff6;fill-opacity:0.05;stroke-width:1;stroke-opacity:0.0627451"
     d="m 402.07986,41.97614 -217,153.13273 h 37.5 l 232,-153.737997 -244.69239,198.889747 -34.22108,67.71872 294.91347,-269.634806 22.5,17.552764 -231.5,212.448962 -33.70206,84.15435 281.70206,-271.787336 4,33.894986 -215,223.34379 31.5,11.50009 182.5,-220.92272 -51,-88.97435 z"
     id="path15251"
     sodipodi:nodetypes="ccccccccccccccccc" />
  <path
     style="fill:#4b4b28;fill-opacity:1;stroke-width:1;stroke-opacity:0.0627451"
     d="m 430.90028,287.78416 -16.57042,-63.92507 45.56179,-21.24473 z"
     id="path15245" />
  <path
     style="fill:#24351b;fill-opacity:1;stroke-width:1;stroke-opacity:0.0627451"
     d="m 300.07986,20.186502 38,70.211052 44.5,38.737136 57,-9.07902 24.5,46.00035 9,36.31606 -13.5,41.15821 72.5,119.843 -10.5,-93.21122 -0.5,-22.39491 -11,-36.92133 8,-108.94819 13.5,-63.553106 -31.75,-26.63178 -1,-11.500087 -39.75,7.565847 -2.75,52.960925 h -5.75 l -7.5,-16.039594 -2.75,-36.316064 -16.5,6.96058 10.5,95.632289 -31.25,6.65795 -48,-19.368556 -41.5,-81.408514 z"
     id="path15247"
     sodipodi:nodetypes="cccccccccccccccccccccccccc" />
  <path
     style="fill:#37371a;fill-opacity:1;stroke-width:1;stroke-opacity:0.0627451"
     d="m 430.90028,287.78416 -6.01041,-59.06248 35.00178,-26.10732 15.55635,16.69157 70.71068,174.61948 -31.8198,41.08692 -8.48529,-8.55978 -75.27373,32.55304 -3.21512,-31.69706 -17.32411,24.82336 -33.23402,1.71196 13.08147,-47.50676 7.77818,0.85597 14.84924,-70.61817 36.76955,-29.95922 -7.77817,-7.27582 5.65685,-2.56792 1.06066,-20.97146 z"
     id="path15241" />
  <path
     style="fill:#302c18;fill-opacity:1;stroke-width:1;stroke-opacity:0.0627451"
     d="m 420.57986,315.55714 72.5,108.94819 -66,23.00018 3.5,11.50008 33,-3.02633 0.5,-10.28955 48.5,-2.42108 -1.5,-35.10552 -81.5,-98.65864 z"
     id="path15239" />
  <path
     style="fill:#31413d;fill-opacity:1;stroke-width:1;stroke-opacity:0.0627451"
     d="m 174.52988,265.36824 7.73398,-21.02496 2.38648,0.21399 21.74353,-2.35394 16.44024,26.9633 -23.33453,19.68749 -20.50609,-5.45686 7.42462,-14.87261 12.72792,4.38689 3.09359,-15.94259 -11.84404,0.10701 -3.88908,12.19769 -7.15946,14.01664 z"
     id="path15257" />
  <path
     style="fill:#bcaa7e;fill-opacity:1;stroke-width:1;stroke-opacity:0.0627451"
     d="m 326.45486,225.52357 30.75,-12.10535 0.25,9.23033 z"
     id="path15355" />
  <path
     style="fill:#383129;fill-opacity:1;stroke-width:1;stroke-opacity:0.0627451"
     d="m 233.35232,311.53754 14.05375,-0.85599 -1.67938,-9.95073 6.71751,-1.60496 -3.27037,-15.08662 -4.59619,2.46095 -0.70711,9.09477 -4.77297,-0.96298 z"
     id="path15339" />
  <path
     style="fill:#425a52;fill-opacity:1;stroke-width:1;stroke-opacity:0.0627451"
     d="m 183.94323,268.95265 5.83363,-17.33355 12.72793,-3.20993 7.07106,11.34171 -9.89949,18.40352 -0.70711,6.41984 20.85965,-17.11956 -13.43503,-25.25135 -21.74353,2.35394 -9.19239,19.47349 3.35876,9.41577 20.68287,10.69972 1.41422,-5.77786 z"
     id="path15253" />
  <path
     style="fill:#301d17;fill-opacity:1;stroke-width:1;stroke-opacity:0.0627451"
     d="m 208.82986,209.03003 2.875,7.11189 11.25,-4.84214 -1.375,-13.4672 -11.375,0.15132 z"
     id="path15283" />
  <path
     style="fill:#000000;fill-opacity:0;stroke-width:1;stroke-opacity:0.0627451"
     d="m 188.32986,175.7403 -4,8.32244 7.625,4.69082 4.25,-5.2961 -1.375,-7.26321 z"
     id="path15299" />
  <path
     style="fill:#362a23;fill-opacity:1;stroke-width:1;stroke-opacity:0.0627451"
     d="m 169.22657,189.2932 2.91682,-3.04941 0.83969,-9.52276 z"
     id="path15301" />
  <path
     style="fill:#362a23;fill-opacity:1;stroke-width:1;stroke-opacity:0.0627451"
     d="m 184.32986,184.06274 6.0625,4.76648 8.125,-4.46385 -3.1875,-9.15468 -7,0.52961 z"
     id="path15303" />
  <path
     style="fill:#362a23;fill-opacity:1;stroke-width:1;stroke-opacity:0.0627451"
     d="m 167.14236,205.85237 6.625,-3.78293 -3.8125,-7.03623 -3.8125,3.70727 z"
     id="path15305" />
  <path
     style="fill:#362a23;fill-opacity:1;stroke-width:1;stroke-opacity:0.0627451"
     d="m 176.76736,206.83593 4.5625,-14.07247 1.4375,13.08891 z"
     id="path15307" />
  <path
     style="fill:#553d30;fill-opacity:1;stroke-width:1;stroke-opacity:0.0627451"
     d="m 181.45486,222.11894 5.0625,8.09545 -0.5,4.76649 -10.9375,5.75004 -1.875,-15.96393 z"
     id="path15311" />
  <path
     style="fill:#463631;fill-opacity:1;stroke-width:1;stroke-opacity:0.0627451"
     d="m 282.45486,243.6816 4.125,-28.90153 5.625,1.21053 v -2.42106 l 2,-0.9079 v 3.48028 l 6.375,0.90791 1.125,26.32914 z"
     id="path15331" />
  <path
     style="fill:#4a4b42;fill-opacity:1;stroke-width:1;stroke-opacity:0.0627451"
     d="m 305.74238,303.19175 -0.53033,-0.21399 1.41421,8.88076 7.6014,-3.8519 -0.88389,-4.06588 -3.27036,-4.1729 0.79549,-38.73299 -4.24264,0.96297 0.4536,40.39475 z"
     id="path15369" />
</svg>
