<?xml version="1.0" encoding="UTF-8"?>
<svg width="153mm" height="117.96mm" version="1.1" viewBox="0 0 153 117.96" xmlns="http://www.w3.org/2000/svg" xmlns:cc="http://creativecommons.org/ns#" xmlns:dc="http://purl.org/dc/elements/1.1/" xmlns:rdf="http://www.w3.org/1999/02/22-rdf-syntax-ns#">
 <metadata>
  <rdf:RDF>
   <cc:Work rdf:about="">
    <dc:format>image/svg+xml</dc:format>
    <dc:type rdf:resource="http://purl.org/dc/dcmitype/StillImage"/>
    <dc:title/>
   </cc:Work>
  </rdf:RDF>
 </metadata>
 <g transform="translate(32.874 -58.882)" stroke-width=".26458">
  <g>
   <path d="m20.373 173.35 22.225 1.3229 8.2021-15.081 8.8635 13.361 50.8-4.101-9.7896-15.478 19.447-2.249-64.154-79.711-4.8175 1.3564-7.811-13.891-43.872 18.428-25.527 10.252-4.5004-4.8264-2.3126 1.7175 11.509 47.691 16.996 44.557 14.499-3.1805 6.2675 3.3208z" fill="#224e4f"/>
   <path d="m36.909 150.73 6.0854 20.902 7.8052-12.039 11.112 9.3927 29.104-4.6302 2.7781 3.8365 15.214-3.175-10.451-18.653 19.711 1.1906-17.859-35.19-0.26459-10.054-24.253-35.667-19.925 4.7708 1.4967 25.257-14.125-37.792-46.211 7.0158 21.422 53.788-4.4434 1.8709-14.64-44.246-21.796 1.4032-2.8999 5.8933-3.6482-3.1805-1.6838 1.3096 27.689 92.048 19.831-7.39 2.7128 2.7128 18.522-0.93545-5.0514-16.464z" fill="#295b5c"/>
   <path d="m-22.357 133.4 2.249 5.5562 6.4823 4.2333 16.536 2.7781 5.8208 9.1281 14.023 1.7198 28.84-10.583 9.9219 4.4979 23.019-10.319 0.79375-4.8948-4.2333-3.4396 0.79375-4.101 6.7469-0.66146 4.6302 1.1906 5.5562-2.3812-2.3812-4.8948-4.6302-4.7625-8.2021-1.4552-14.139-9.9087-74.563 13.414-3.1089 8.9297-9.1281 1.8521z" fill="#53857a"/>
   <path d="m-15.034 131.19 28.344 31.524 78.764-14.219 7.4835-15.061-25.21-21.268z" opacity=".5"/>
   <path d="m0.68191 137.62 76.402-6.6884 2.8063 5.2852-11.149 2.8204-2.712-0.29766-46.078 15.555z" fill="#20271f"/>
   <path d="m-1.189 98.826 22.025 31.136 54.681-22.156-17.044-31.621z" fill="#825744"/>
  </g>
  <g fill="#65402e">
   <path d="m9.0074 110.94 30.215-14.686-27.268 9.6351 3.6482-3.695-1.3096-2.2451 2.9934-2.6192-1.5435-1.1225-5.2385 0.93544-0.15224 1.5826-1.1106-1.2085 1.1225-1.3564-0.2641-1.6396-11.289 4.3056z"/>
   <path d="m22.589 126.7 43.738-19.81-1.4032-2.5023-5.4022 2.0346 0.11693-1.754 4.3732-1.8241 1.473-2.6022-4.6137-5.8539-0.8599 0.678-2.5301-3.1915-20.075 4.746 16.917-7.4745-5.0908-9.4541 2.1515-0.79513 18.487 24.474-2.3347 3.9658-44.122 20.251z"/>
   <path d="m14.106 121.56 0.56127-0.23386 32.179-16.417-0.93544-1.6838 3.087 0.8419 11.366-4.5837 0.93544 1.2629-18.849 7.1094-26.847 15.622z"/>
  </g>
  <g>
   <path d="m56.621 105.94 1.1239-4.019-5.5893-2.4143 7.4745-1.2568-4.5971-4.1341-4.3326 3.2081-18.256-4.3326 4.3656-8.599-4.6302 1.819-2.5797 6.0193-8.0305-2.0454-7.183 2.7399 13.56 2.4474-5.1263 12.303-4.9609-0.79375-2.7781 1.4552 3.7703 4.6964 4.4979-2.5135v2.5135l3.0427 1.8521 3.4396-4.6302-4.1672-2.3812 5.424-12.039 18.322 3.638 1.7198 4.5641z" fill="#dde0bd"/>
   <path d="m41.077 86.785 0.13229 0.67799 3.3687 0.77443 2.0697-0.84775 0.52034 0.02923 1.5844 1.9469 5.5703-0.21609 2.249-1.0914-0.08268-0.8599z" fill="#412111"/>
   <path d="m41.077 86.785 3.2411 1.3064 1.6536-0.82682 0.59531-1.8025-1.0253-2.2159z" fill="#575145"/>
   <path d="m0.63514 136.01-1.8241-13.751 20.51 14.266 59.494-27.315-1.4967 20.206-55.622 22.706z" fill="#8a6337"/>
   <path d="m21.683 136.38 0.09354 2.8531 21.796-9.7754 3.3089 2.8928 10.138-4.939-0.4643-4.2001 22.093-10.137-0.01654-2.3151z" fill="#694c25"/>
   <path d="m78.118 128.44 0.46302-2.249-47.228 14.751 4.5641 5.424 40.084-13.692z" fill="#a57541"/>
   <path d="m78.118 128.44-8.2517 2.8773-0.03307 2.9766-1.5379-0.74414-38.232 14.635 0.38911 0.85053 39.017-13.104-0.03307 1.3891 8.4005-3.0592z" fill="#604c31"/>
   <path d="m2.8443 133.67-0.99219-8.0698 12.898 8.0036-0.59531 8.9297z" fill="#5e352e"/>
   <path d="m1.7529 100.59 6.7634-4.3326 1.8355 2.4639-4.9775 6.6311z" fill="#442f23"/>
   <path d="m34.218 115.52 3.5021 1.948 1.3891 7.0115-18.785 7.276-28.178-30.427 6.6658-2.5061 4.724 2.4322 2.666 3.1805 12.395 20.907 3.9289-0.65481 0.88867 2.8999 12.816-6.0336z" fill="#ed9d56"/>
   <path d="m50.377 105.14 7.4341 6.9626 1.604 2.4585z" fill="#9f744e"/>
   <path d="m20.323 131.76 18.785-7.276-1.3891-7.0115 16.338-8.7974 5.3578 5.887 11.785-6.2295-1.7306-3.2273 11.553-3.9289 0.65481 8.5125-26.495 11.984 1.356 6.1185-9.6573 4.5641-2.7781-5.5562-25.895 11.842-25.818-17.119-1.941-5.3788 1.6972-14.811 2.9104 1.2568z" fill="#b77c33"/>
   <path d="m9.5686 134.79 3.3629-2.6157 6.6477 0.29766 0.3261 0.72778-0.58465 3.3208-3.7652 2.3854-2.3386-3.6014z" fill="#665947"/>
   <path d="m48.343 127.82 5.8231-2.1048-1.3564-5.6594 2.2684-1.2862-2.1282-5.0178-8.9297 3.9026-2.4143-0.89297 1.5875 6.813 4.0018-0.56224z" fill="#f3a65e"/>
   <path d="m49.465 124.27-0.38507-1.4516-0.39688-1.8521-2.6558 1.503-0.32076-4.5457 5.2552-1.792 1.1459 2.8063-2.1749 0.60804 1.8007 3.9756z" fill="#a05834"/>
   <path d="m45.971 120.64-0.26458-2.712 3.8365-1.1906 0.59531 1.4552-2.1167 0.7276 1.8521 3.5057-0.79375 0.39687-0.39688-1.8521-1.4552-1.1245z" fill="#42382d"/>
   <path d="m44.02 117.66-2.4143-0.89297-0.69453-0.26458 11.675-4.5971 0.3638 1.8521z" fill="#f6ce7d"/>
   <path d="m76.032 105.56-0.5145 2.2451 3.2974 1.4032 0.86528-3.1571z" fill="#92522c"/>
   <path d="m-5.0932 118.52 0.59531-1.6536-2.0505-0.79375 0.7276-11.311 17.926 23.879-2.5135-0.52917 0.13229 1.3229z" fill="#473529"/>
   <path d="m9.7234 129.43-0.13229 1.3229-14.684-12.237 2.1167-1.1906z" fill="#cf8b4c"/>
   <path d="m17.426 144.43-6.782-3.6015-1.0758-6.0336 3.6482 0.5145 2.3386 3.6014z" fill="#392b1e"/>
   <path d="m19.905 133.2 3.2273 6.4546-5.7062 4.7708-1.8709-5.5191 3.7652-2.3854z" fill="#3c3228"/>
   <path d="m13.123 139.66 0.88867-3.3208 2.5257 2.5257-0.88867 2.1515z" fill="#231b18"/>
   <path d="m71.249 117.51-10.263 4.7117 1.1906 4.2995-19.248 9.9219-2.6458-5.1594-15.28 5.2255 0.26458 10.947 45.707-15.71z" fill="#5e3728"/>
   <path d="m69.191 118.51 2.058-0.99391-0.27494 14.237-41.902 15.44-0.02339-2.7128 40.205-13.753z" fill="#4e2920"/>
   <path d="m20.34 144.18 0.87504-1.953 6.2675 0.0234 0.77174 7.2263z" fill="#665947"/>
   <path d="m24.816 151.61-5.3033-3.9522 0.82682-3.4727 4.9279 3.2742z" fill="#392b1e"/>
   <path d="m24.419 147.07 0.39756 4.5369 5.636-2.5725-0.35079-3.1805-1.1927-3.3442-1.4266-0.25725 0.30402 2.9233z" fill="#3c3228"/>
   <path d="m23.647 147.94 0.93544-1.7773 3.1337 0.32741-0.56127 1.7773z" fill="#231b18"/>
   <path d="m1.6407 104.3-1.1927 1.8007 2.3854 1.3096 1.2862-2.058z" fill="#9d5834"/>
   <path d="m76.64 101.02-18.167-24.839-7.09 2.7154 18.487 24.474z" fill="#ee9f5c"/>
   <path d="m67.899 94.045-0.79375 2.1167 3.1089 0.42995-0.06614-2.3151z" fill="#433721"/>
   <path d="m78.148 118.35-2.4438 3.9055 2.2597-1.5318z" fill="#433721"/>
   <path d="m6.4161 136.44-0.56224 1.2237 1.3891 2.282 1.9844-0.19844-0.099219-2.0174z" fill="#393530"/>
   <path d="m6.4162 136.44 0.59531-2.0505 2.5135 1.8852-0.39688 1.4552z" fill="#685748"/>
   <path d="m25.097 140.55 0.04677-2.4789 11.506-3.8821 4.3498-0.60804-0.98222 0.93544z" fill="#4e2920"/>
   <path d="m63.5 130.03-6.1185 1.5214-2.9435 2.5466 9.9219-3.1088z" fill="#4e2920"/>
   <path d="m62.574 131.62 2.3482-4.6964 6.2012-2.7161-0.09095 4.2788z" fill="#33130d"/>
   <path d="m46.972 86.066 0.27285 1.0666 1.8355 1.6702 5.2421 0.34726 1.9678-3.7868-1.9348-3.1585z" fill="#575145"/>
   <path d="m50.915 85.776-2.4303 1.2405-1.5131-0.95085-0.01654-1.7859 1.5792-2.5053 5.8208 0.42995-1.2733 3.4396z" fill="#beac87"/>
   <path d="m49.839 85.355 1.0758 0.42095 1.7306-2.1047-1.637-0.98222-0.60804 1.2161-1.4967-0.51449-0.04677 1.4499z" fill="#8e8171"/>
   <path d="m44.433 86.653 1.2072-2.497-0.09922-0.9095-1.9678-0.90951-2.7451 1.4883 0.24805 2.96z" fill="#beac87"/>
   <path d="m42.824 84.935-0.1637-1.0407 0.68404-0.4268 1.0758 0.39756-0.90036 1.0933z" fill="#8e8171"/>
   <path d="m54.107 92.044 3.3734-0.16536-0.3638-1.9678-0.87643-1.2733z" fill="#575145"/>
   <path d="m56.24 88.637-2.9931 0.46302-0.71107 1.7529 1.571 1.1906 1.5379-0.67799 0.95911-1.4056z" fill="#9a9072"/>
   <path d="m65.484 100.25-4.5475 1.3891 1.5379 1.0087-0.94258 1.9844 6.35-1.8852z" fill="#442f23"/>
  </g>
  <path d="m58.473 76.186 6.1516 8.5328-60.722 27.914-8.847-10.043-2.9104-1.2568z" fill="#ffffda" fill-opacity=".20648"/>
  <g>
   <path d="m37.72 117.47 16.338-8.7974-3.6803-3.5341-16.16 10.383z" fill="#f2c178"/>
   <path d="m57.811 112.1 9.7234-4.7625-1.7529-2.5466 3.6875 0.3108 1.7306 3.2273-11.785 6.2295z" fill="#f29a4f"/>
   <path d="m76.64 101.02-10.858 3.7694 3.6875 0.3108 11.553-3.9289z" fill="#ebcc7e"/>
   <path d="m89.098 102.68 0.7276 5.457 3.3404 1.1906 3.8695 0.13229 1.7529-3.175-4.3326-3.7372z" fill="#53857a"/>
  </g>
 </g>
</svg>
