<?xml version="1.0" encoding="UTF-8" standalone="no"?>
<svg
   xmlns:dc="http://purl.org/dc/elements/1.1/"
   xmlns:cc="http://creativecommons.org/ns#"
   xmlns:rdf="http://www.w3.org/1999/02/22-rdf-syntax-ns#"
   xmlns:svg="http://www.w3.org/2000/svg"
   xmlns="http://www.w3.org/2000/svg"
   xmlns:sodipodi="http://sodipodi.sourceforge.net/DTD/sodipodi-0.dtd"
   xmlns:inkscape="http://www.inkscape.org/namespaces/inkscape"
   width="289.11453"
   height="53.733536"
   version="1.1"
   viewBox="0 0 289.11454 53.733536"
   id="svg12166"
   sodipodi:docname="bigmap-side.svg"
   inkscape:version="1.0.1 (3bc2e813f5, 2020-09-07)">
  <defs
     id="defs12170" />
  <sodipodi:namedview
     pagecolor="#ffffff"
     bordercolor="#666666"
     borderopacity="1"
     objecttolerance="10"
     gridtolerance="10"
     guidetolerance="10"
     inkscape:pageopacity="0"
     inkscape:pageshadow="2"
     inkscape:window-width="1920"
     inkscape:window-height="1001"
     id="namedview12168"
     showgrid="false"
     inkscape:zoom="3.0869092"
     inkscape:cx="173.63364"
     inkscape:cy="101.33615"
     inkscape:window-x="-9"
     inkscape:window-y="-9"
     inkscape:window-maximized="1"
     inkscape:current-layer="svg12166"
     inkscape:document-rotation="0" />
  <metadata
     id="metadata12070">
    <rdf:RDF>
      <cc:Work
         rdf:about="">
        <dc:format>image/svg+xml</dc:format>
        <dc:type
           rdf:resource="http://purl.org/dc/dcmitype/StillImage" />
        <dc:title></dc:title>
      </cc:Work>
    </rdf:RDF>
  </metadata>
  <g
     id="g3456"
     transform="matrix(0,0.78911405,-1,0,289.11454,0)"
     style="stroke-width:1.12572">
    <path
       style="fill:#d8d0ab;fill-opacity:1;stroke-width:1.12572;stroke-opacity:0.0627451"
       d="M 0.1154,15.50565 6.7759533,92.308297 0,207.21925 l 4.69,70.56752 12.8166,4.83442 0.5388,-19.36394 3.8815,20.12734 13.6966,5.72995 L 67.864,277.3511 59.1504,192.82862 66.557,76.50123 68.0935,11.70687 57.0798,7.23974 50.2562,19.72239 49.7672,4.45164 36.978,0 Z"
       id="path12982"
       sodipodi:nodetypes="ccccccccccccccccc" />
    <path
       style="fill:#000000;fill-opacity:0.2;stroke-width:1.12572;stroke-opacity:0.0627451"
       d="M 35.6235,289.11454 19.5032,225.94052 33.4451,153.61716 30.3953,96.54272 39.5447,46.00345 36.978,0 l 12.7892,4.45164 0.489,15.27075 6.8236,-12.48265 11.0137,4.46713 -1.5307,64.78745 -7.4124,116.3343 8.7136,84.52248 z"
       id="path12984"
       sodipodi:nodetypes="cccccccccccccc" />
  </g>
</svg>
