<?xml version="1.0" encoding="UTF-8"?>
<svg width="522" height="1257" version="1.1" viewBox="0 0 522 1257" xmlns="http://www.w3.org/2000/svg" xmlns:cc="http://creativecommons.org/ns#" xmlns:dc="http://purl.org/dc/elements/1.1/" xmlns:rdf="http://www.w3.org/1999/02/22-rdf-syntax-ns#">
 <metadata>
  <rdf:RDF>
   <cc:Work rdf:about="">
    <dc:format>image/svg+xml</dc:format>
    <dc:type rdf:resource="http://purl.org/dc/dcmitype/StillImage"/>
    <dc:title/>
   </cc:Work>
  </rdf:RDF>
 </metadata>
 <path d="m0.2863 12.08 74.64-12.08 375.4 0.3436 71.5 9.507-10.57 231.1 0.9506 264.4-27.56 8.433 30.11 0.6579 2.894 79.05-40.2 15.52 39.17 1.708 0.3795 61.82-16.85 4.535 15.55 3.887-11.01 254.6 5.166 162.1-23.67 3.414 25.9 5.034 2.899 43.91-52.31 11.02 55.35 1.395 3.583 76.07-98.15 18.34-338.2-0.1145-84.87-18.55 0.6372-78.58 18.13-5.689-18.34-37.22 18.97-192.2-19.46-146.1 25.27-3.887-23.34-11.2 23.66-333.2-12.34-134 21.69 19.01-19.45-50.72-11.02-109.7 24.61-6.66-22.69-9.9 7.44-75.01z" fill="#d8d0ab" stroke-opacity=".06275"/>
</svg>
