<?xml version="1.0" encoding="UTF-8" standalone="no"?>
<svg
   xmlns:dc="http://purl.org/dc/elements/1.1/"
   xmlns:cc="http://creativecommons.org/ns#"
   xmlns:rdf="http://www.w3.org/1999/02/22-rdf-syntax-ns#"
   xmlns:svg="http://www.w3.org/2000/svg"
   xmlns="http://www.w3.org/2000/svg"
   xmlns:sodipodi="http://sodipodi.sourceforge.net/DTD/sodipodi-0.dtd"
   xmlns:inkscape="http://www.inkscape.org/namespaces/inkscape"
   width="13.348399mm"
   height="12.745075mm"
   viewBox="0 0 13.348399 12.745075"
   version="1.1"
   id="svg8"
   sodipodi:docname="brandmark.svg"
   inkscape:version="1.0.1 (3bc2e813f5, 2020-09-07)">
  <defs
     id="defs2" />
  <sodipodi:namedview
     id="base"
     pagecolor="#ffffff"
     bordercolor="#666666"
     borderopacity="1.0"
     inkscape:pageopacity="0.0"
     inkscape:pageshadow="2"
     inkscape:zoom="11.313709"
     inkscape:cx="13.525044"
     inkscape:cy="33.676544"
     inkscape:document-units="mm"
     inkscape:current-layer="g853"
     inkscape:document-rotation="0"
     showgrid="false"
     inkscape:window-width="1920"
     inkscape:window-height="1001"
     inkscape:window-x="-9"
     inkscape:window-y="-9"
     inkscape:window-maximized="1" />
  <metadata
     id="metadata5">
    <rdf:RDF>
      <cc:Work
         rdf:about="">
        <dc:format>image/svg+xml</dc:format>
        <dc:type
           rdf:resource="http://purl.org/dc/dcmitype/StillImage" />
        <dc:title></dc:title>
      </cc:Work>
    </rdf:RDF>
  </metadata>
  <g
     inkscape:label="Laag 1"
     inkscape:groupmode="layer"
     id="layer1"
     transform="translate(-108.05857,-108.33633)">
    <g
       id="g853"
       transform="matrix(1.0776736,0,0,1.043574,-4.3956463,-7.0054121)"
       style="stroke-width:0.942962">
      <g
         id="g1851"
         transform="matrix(0.82985195,0,0,0.82985195,67.404683,23.947249)"
         style="stroke-width:1.1363" />
      <path
         style="opacity:1;fill:#ba2400;fill-opacity:1;stroke-width:0.235261;stroke-opacity:0.0627451"
         d="m 104.80722,110.5257 0.0248,1.78754 1.1516,1.82397 0.4893,0.25262 1.28998,-0.55121 -0.62275,1.35509 1.26774,1.30917 0.91188,-0.89575 0.95636,-1.69961 -0.68946,-1.44696 h -2.2686 l -1.93495,-1.01058 z"
         id="path3129"
         sodipodi:nodetypes="ccccccccccccc" />
      <path
         style="opacity:1;fill:#ba2400;fill-opacity:1;stroke-width:0.235261;stroke-opacity:0.0627451"
         d="m 116.17012,110.53128 -0.62273,0.98761 -1.6236,0.89573 -2.17962,-0.0689 -1.89048,3.6978 -2.02391,1.83742 1.0898,1.26323 2.42425,-1.30916 2.64667,-2.64128 -0.68948,-1.58478 1.49016,0.96464 0.84517,-1.0565 0.57826,-1.51588 z"
         id="path3131"
         sodipodi:nodetypes="cccccccccccccc" />
      <path
         style="opacity:1;fill:#ba2400;fill-opacity:1;stroke-width:0.235261;stroke-opacity:0.0627451"
         d="m 106.60651,116.69811 0.31138,-0.26414 0.25576,0.32156 -0.0667,1.09095 1.97943,2.14749 -0.0334,1.63071 -1.17877,1.11393 -1.17878,-0.0573 -0.54489,-0.52826 0.51154,-0.94166 0.12225,0.52826 0.83403,0.046 0.64499,-0.57419 0.0446,-1.1484 -0.94525,-0.17227 -0.57827,-0.6431 0.0334,-0.57418 -0.22242,-0.22968 z"
         id="path3133"
         sodipodi:nodetypes="ccccccccccccccccccc" />
      <path
         style="opacity:1;fill:#ba2400;fill-opacity:1;stroke-width:0.235261;stroke-opacity:0.0627451"
         d="m 106.98693,118.76473 -1.38004,1.36422 -0.54613,-0.0431 -0.71171,0.79238 v 1.10245 l 0.52267,0.65456 1.06756,0.023 0.46707,-0.47084 0.17561,-0.72671 1.41932,-1.7012 z"
         id="path3135"
         sodipodi:nodetypes="ccccccccccc" />
      <path
         style="opacity:1;fill:#ba2400;fill-opacity:1;stroke-width:0.235261;stroke-opacity:0.0627451"
         d="m 114.47788,116.67233 -0.31138,-0.26412 -0.25577,0.32154 0.0667,1.09098 -1.97946,2.14747 0.0334,1.63072 1.17878,1.11391 1.17876,-0.0573 0.54491,-0.52826 -0.51154,-0.94167 -0.12225,0.52826 -0.83405,0.0459 -0.64499,-0.57417 -0.0446,-1.14839 0.94524,-0.17228 0.57827,-0.64309 -0.0334,-0.57419 0.22239,-0.22967 z"
         id="path3133-0"
         sodipodi:nodetypes="ccccccccccccccccccc" />
      <path
         style="opacity:1;fill:#ba2400;fill-opacity:1;stroke-width:0.235261;stroke-opacity:0.0627451"
         d="m 114.09748,118.73897 1.38003,1.36421 0.54611,-0.0431 0.71174,0.79238 v 1.10246 l -0.52269,0.65456 -1.06755,0.023 -0.46707,-0.47086 -0.17561,-0.72669 -1.41934,-1.7012 z"
         id="path3135-2"
         sodipodi:nodetypes="ccccccccccc" />
      <path
         style="opacity:1;fill:#ba2400;fill-opacity:1;stroke-width:0.235261;stroke-opacity:0.0627451"
         d="m 111.23706,118.53737 0.95934,0.55217 1.14806,-1.15309 -0.47181,-0.60088 -0.72343,0.7633 z"
         id="path3155"
         sodipodi:nodetypes="cccccc" />
      <path
         style="opacity:1;fill:#525252;fill-opacity:1;stroke-width:0.235261;stroke-opacity:0.0627451"
         d="m 109.93075,116.81821 -4.42516,-4.54697 5.25663,3.51247 4.52938,-3.42059 -3.50649,4.31453 3.79563,4.34428 -4.88572,-3.01862 -4.85582,3.43205 z"
         id="path3198"
         sodipodi:nodetypes="ccccccccc" />
      <path
         style="opacity:1;fill:#575e28;fill-opacity:1;stroke-width:0.235261;stroke-opacity:0.0627451"
         d="m 110.58493,118.79911 -1.7708,-2.01338 1.86945,-2.04142 1.93502,1.91709 z"
         id="path3196"
         sodipodi:nodetypes="ccccc" />
    </g>
  </g>
</svg>
