<?xml version="1.0" encoding="UTF-8" standalone="no"?>
<!-- Created with Inkscape (http://www.inkscape.org/) -->

<svg
   width="10mm"
   height="10mm"
   viewBox="0 0 10 10"
   version="1.1"
   id="svg5"
   inkscape:version="1.1.1 (3bf5ae0d25, 2021-09-20)"
   sodipodi:docname="broken.svg"
   xmlns:inkscape="http://www.inkscape.org/namespaces/inkscape"
   xmlns:sodipodi="http://sodipodi.sourceforge.net/DTD/sodipodi-0.dtd"
   xmlns="http://www.w3.org/2000/svg"
   xmlns:svg="http://www.w3.org/2000/svg">
  <sodipodi:namedview
     id="namedview7"
     pagecolor="#ffffff"
     bordercolor="#666666"
     borderopacity="1.0"
     inkscape:pageshadow="2"
     inkscape:pageopacity="0.0"
     inkscape:pagecheckerboard="0"
     inkscape:document-units="mm"
     showgrid="false"
     inkscape:zoom="16"
     inkscape:cx="28.09375"
     inkscape:cy="22.84375"
     inkscape:window-width="1920"
     inkscape:window-height="1017"
     inkscape:window-x="-8"
     inkscape:window-y="-8"
     inkscape:window-maximized="1"
     inkscape:current-layer="layer1"
     height="18.04779mm" />
  <defs
     id="defs2" />
  <g
     inkscape:label="Laag 1"
     inkscape:groupmode="layer"
     id="layer1"
     transform="translate(-77.081756,-196.72729)">
    <path
       style="fill:#f7f2db;fill-opacity:0.5;stroke:none;stroke-width:0.264583"
       d="m 76.482266,197.20057 2.839688,2.58727 2.681928,0.91501 0.378625,2.61883 -1.861573,3.7547 0.09756,0.0699 0.972551,-1.73219 1.460375,-0.38551 0.520899,-0.61185 -0.669727,0.55397 -1.254704,0.2987 1.047999,-1.85312 2.33164,-0.94258 1.418002,-2.67271 0.90537,-3.66902 -0.06925,0.0207 -1.034562,3.62148 -1.295011,2.51458 -0.02377,-1.51826 -0.636653,-0.7524 0.454752,0.74414 0.04961,1.5875 -2.207617,0.82682 -0.394808,-2.58796 -1.198894,-0.44338 -0.713134,-1.73116 0.571541,1.71152 -1.400431,-0.49609 -2.634465,-2.31718 z"
       id="path44152"
       sodipodi:nodetypes="cccccccccccccccccccccccccccccc" />
  </g>
</svg>
