<?xml version="1.0" encoding="UTF-8" standalone="no"?>
<svg
   xmlns:dc="http://purl.org/dc/elements/1.1/"
   xmlns:cc="http://creativecommons.org/ns#"
   xmlns:rdf="http://www.w3.org/1999/02/22-rdf-syntax-ns#"
   xmlns:svg="http://www.w3.org/2000/svg"
   xmlns="http://www.w3.org/2000/svg"
   xmlns:sodipodi="http://sodipodi.sourceforge.net/DTD/sodipodi-0.dtd"
   xmlns:inkscape="http://www.inkscape.org/namespaces/inkscape"
   version="1.1"
   id="svg1434"
   width="159.87402"
   height="52.535435"
   viewBox="0 0 159.87402 52.535435"
   sodipodi:docname="btn.svg"
   inkscape:version="1.0.1 (3bc2e813f5, 2020-09-07)">
  <metadata
     id="metadata1440">
    <rdf:RDF>
      <cc:Work
         rdf:about="">
        <dc:format>image/svg+xml</dc:format>
        <dc:type
           rdf:resource="http://purl.org/dc/dcmitype/StillImage" />
        <dc:title></dc:title>
      </cc:Work>
    </rdf:RDF>
  </metadata>
  <defs
     id="defs1438">
    <inkscape:path-effect
       effect="skeletal"
       id="path-effect1490"
       is_visible="true"
       lpeversion="1"
       pattern="M 0,5 C 0,2.24 2.24,0 5,0 7.76,0 10,2.24 10,5 10,7.76 7.76,10 5,10 2.24,10 0,7.76 0,5 Z"
       copytype="single_stretched"
       prop_scale="-1.08677"
       scale_y_rel="false"
       spacing="0"
       normal_offset="0"
       tang_offset="0"
       prop_units="false"
       vertical_pattern="false"
       hide_knot="false"
       fuse_tolerance="0" />
    <inkscape:path-effect
       effect="skeletal"
       id="path-effect1486"
       is_visible="true"
       lpeversion="1"
       pattern="M 0,5 C 0,2.24 2.24,0 5,0 7.76,0 10,2.24 10,5 10,7.76 7.76,10 5,10 2.24,10 0,7.76 0,5 Z"
       copytype="single_stretched"
       prop_scale="-1.08677"
       scale_y_rel="false"
       spacing="0"
       normal_offset="0"
       tang_offset="0"
       prop_units="false"
       vertical_pattern="false"
       hide_knot="false"
       fuse_tolerance="0" />
  </defs>
  <sodipodi:namedview
     pagecolor="#ffffff"
     bordercolor="#666666"
     borderopacity="1"
     objecttolerance="10"
     gridtolerance="10"
     guidetolerance="10"
     inkscape:pageopacity="0"
     inkscape:pageshadow="2"
     inkscape:window-width="1920"
     inkscape:window-height="1001"
     id="namedview1436"
     showgrid="false"
     inkscape:zoom="4"
     inkscape:cx="128.20589"
     inkscape:cy="3.7012339"
     inkscape:window-x="-9"
     inkscape:window-y="-9"
     inkscape:window-maximized="1"
     inkscape:current-layer="g1442" />
  <g
     inkscape:groupmode="layer"
     inkscape:label="Image"
     id="g1442">
    <g
       id="g1472"
       transform="translate(4.3252418e-7,-0.11895429)">
      <path
         style="fill:#8e6847;stroke-width:0.999999"
         d="M 0.75590553,52.151696 1.3228347,51.779529 0.85379583,51.475863 0.38475694,51.172193 4.6333233,47.473797 l 4.2485667,-3.6984 2.173228,0.152167 2.173229,0.152168 V 43.844313 43.608894 L 6.8047946,40.808539 0.38124269,38.008185 0.17011162,36.862361 -0.04101945,35.716537 0.07397847,32.551112 0.18897638,29.385688 8.2772211,25.861293 l 8.0882449,-3.524395 0.339773,-0.339773 0.339772,-0.339773 -0.113056,-2.508439 -0.113057,-2.508439 -3.852906,3.396299 -3.8529049,3.396299 H 4.7896011 0.46611505 L 0.23821836,22.582678 0.01032165,21.732284 0.00516082,18.311027 0,14.889771 3.4392996,11.88583 6.878599,8.8818901 7.2188272,8.755906 7.5590553,8.6299215 V 8.3372945 8.0446676 L 4.1516891,6.6323352 0.74432313,5.2200025 0.37216156,4.5246124 0,3.8292221 V 1.914611 0 h 79.703953 79.703957 l 0.21226,0.81171355 0.21227,0.81171355 -0.72222,1.4156636 -0.72222,1.4156636 -1.25485,2.0831124 -1.25485,2.0831124 -1.96056,1.7627119 -1.96056,1.762711 -2.56126,1.273717 -2.56127,1.273718 6.29027,0.02316 6.29027,0.02316 0.22942,0.597841 0.22941,0.597841 -0.0242,3.843104 -0.0242,3.843104 -3.55265,3.023622 -3.55266,3.023623 -0.0137,0.206042 -0.0137,0.206042 3.36862,1.442802 3.36862,1.442801 0.19178,0.73337 0.19178,0.733369 -1.57615,1.441351 -1.57614,1.44135 -2.45391,2.129191 -2.45392,2.129193 h -2.80593 -2.80593 l 0.23048,0.230475 0.23047,0.23048 6.31829,2.774351 6.31828,2.774354 0.31159,0.491233 0.3116,0.491233 0.006,1.984252 0.006,1.984252 -79.842522,-0.0058 -79.84252162,-0.0058 z"
         id="path1480" />
      <path
         style="fill:#663b17;stroke-width:0.999999"
         d="M 1.1033549,52.005262 1.5433609,51.475085 1.1383647,51.340088 0.73336844,51.205087 4.7852679,47.675114 8.8371672,44.145137 11.602176,44.284764 14.367185,44.424391 14.260132,44.103229 14.153078,43.782068 7.3979707,40.882811 0.64286337,37.98355 0.34799619,37.227996 0.05312902,36.472442 0.02656451,33.150998 0,29.829554 l 3.1055048,-1.402965 3.1055049,-1.402966 5.3039443,-2.267717 5.303944,-2.267716 0.110386,-2.929134 0.110387,-2.929134 h -0.225985 -0.225985 l -3.852905,3.39886 -3.852906,3.39886 -4.0406866,0.0027 -4.04068659,0.0027 L 0.54600825,23.021268 0.29149973,22.609465 0.30250683,18.771624 0.31351393,14.933783 3.9547768,11.774337 7.5960395,8.6148895 7.4735991,8.2475686 7.3511586,7.8802472 3.8645557,6.3416657 0.37795277,4.8030846 V 2.5905186 0.37795277 H 79.586054 158.79416 l 0.53103,0.5310402 0.53104,0.53104023 -1.90864,3.4298916 -1.90865,3.4298916 -2.33672,2.0515226 -2.33672,2.051523 -2.54889,1.046752 -2.54889,1.046752 v 0.310872 0.310873 h 6.57374 6.57373 l 0.22942,0.597841 0.22941,0.597841 v 3.49862 3.498621 l -3.8072,3.321533 -3.8072,3.321534 0.31114,0.272596 0.31113,0.272596 3.11318,1.285787 3.11318,1.285787 0.005,0.440945 0.005,0.440945 0.40574,0.135244 0.40573,0.135245 -4.21193,3.675779 -4.21194,3.67578 h -2.80797 -2.80797 v 0.377952 0.377953 h 0.37698 0.37698 l 6.1427,2.697449 6.14271,2.697449 0.47244,0.587388 0.47244,0.587388 v 1.817525 1.817526 H 80.268686 0.66334891 Z"
         id="path1478" />
      <path
         style="fill:#5c3617;stroke-width:0.999999"
         d="M 1.1338583,51.968506 1.6043677,51.401577 80.644704,51.308417 159.68504,51.215257 80.511653,51.02495 1.3382619,50.834644 l 3.5828377,-3.11096 3.5828376,-3.110956 0.5480315,-0.0072 0.5480316,-0.0072 -0.4535434,0.453543 -0.4535433,0.453543 v 0.869292 0.869291 h 0.4242312 0.4242308 l -0.44413,0.535144 -0.44413,0.535143 0.8702925,0.271703 0.8702929,0.271702 0.2703,0.421501 0.270301,0.4215 16.359621,-0.09909 16.359621,-0.0991 22.110237,-0.155286 22.110237,-0.155285 25.700792,-0.233186 25.70078,-0.233181 2.07874,-0.247174 2.07874,-0.247174 0.8504,0.05554 0.85039,0.05553 v -0.360166 -0.36017 h 1.122 1.12199 l -0.24272,-0.632546 -0.24274,-0.632545 0.66001,0.253266 0.66,0.25327 -0.1357,-0.660095 -0.13571,-0.66009 0.55924,-0.426289 0.55923,-0.426286 -1.86831,-1.172833 -1.86831,-1.172829 0.27986,-0.0072 0.27986,-0.0072 1.79888,0.783254 1.79888,0.783251 4.72441,1.964961 4.72441,1.964962 0.21245,1.503753 0.21245,1.503757 0.20336,-1.133859 0.20336,-1.133858 0.0566,1.984252 0.0566,1.984252 H 80.268686 0.66334891 Z M 14.154331,43.900821 13.795276,43.581171 7.2528119,40.80425 0.71034797,38.027332 0.50630386,37.697183 l -0.20404408,-0.33015 0.20261848,-0.202619 0.20261848,-0.202618 2.14861756,0.983668 2.1486175,0.983671 0.2377917,-0.01859 0.2377916,-0.01859 -2.456693,-1.260757 -2.45669295,-1.260759 0.12145251,-3.227687 0.12145255,-3.227687 75.37453979,0.06609 75.374546,0.06609 7e-5,0.283465 7e-5,0.283464 h 0.68367 0.68366 l 0.73366,0.554909 0.73365,0.554909 -0.51871,0.01202 -0.51872,0.01202 0.41523,0.500332 0.41524,0.500331 -0.44455,0.444551 -0.44455,0.444553 h -0.49134 -0.49134 v 0.377952 0.377953 h 0.44095 0.44094 l -0.21959,0.219598 -0.2196,0.219599 -0.78828,-0.421873 -0.78827,-0.421872 v 0.31566 0.31566 l 0.43429,0.434298 0.4343,0.434298 -0.78874,-0.05941 -0.78874,-0.05942 -0.18751,-0.717066 -0.18752,-0.717066 -0.49741,0.167859 -0.49741,0.167858 -1.24499,-0.518015 -1.24498,-0.518015 -0.3352,0.207165 -0.3352,0.207165 -0.2374,-0.384118 -0.23739,-0.384118 1.06167,-0.02656 1.06168,-0.02657 -0.75591,-0.324824 -0.75591,-0.324823 -1.18791,-0.02657 -1.1879,-0.02656 -0.20935,-0.54554 -0.20934,-0.54554 -0.94079,0.170597 -0.94078,0.170597 -0.26039,-0.421314 -0.26039,-0.421313 -0.32492,0.512792 -0.32492,0.512792 -0.0116,-0.566929 -0.0116,-0.566929 -0.36638,0.566929 -0.36637,0.566929 -0.0116,-0.566929 -0.0116,-0.566929 -0.36637,0.566929 -0.36638,0.566929 -0.0116,-0.566929 -0.0116,-0.566929 -0.36638,0.566929 -0.36637,0.566929 -0.006,-0.472441 -0.006,-0.472441 h -0.91339 -0.91338 l -0.15901,0.472441 -0.15901,0.472441 -0.6572,-0.542626 -0.6572,-0.542626 -0.34336,0.542626 -0.34335,0.542626 -0.006,-0.472441 -0.006,-0.472441 h -1.32284 -1.32283 l -0.006,0.472441 -0.006,0.472441 -0.31264,-0.492936 -0.31265,-0.492937 -1.76031,0.09112 -1.7603,0.09112 v 0.353606 0.353606 l -0.47244,-0.378615 -0.47244,-0.378616 -2.8477,0.126316 -2.8477,0.126316 L 64.664593,31.152329 8.9773397,31.346621 8.1917755,30.9262 7.4062108,30.505779 7.2621606,30.937929 7.1181103,31.37008 H 5.9527561 4.7874018 l 0.2339706,0.233971 0.2339709,0.23397 -0.5219347,0.521935 -0.521935,0.521935 H 3.8065244 3.4015749 v 0.346457 0.346456 l 0.472441,0.190634 0.4724409,0.190634 -0.6391117,0.02984 -0.6391117,0.02984 -0.2696789,0.43635 -0.269679,0.43635 0.4363497,-0.269679 0.4363497,-0.269679 0.044758,0.683723 0.044757,0.683723 -0.03708,0.260432 -0.03708,0.260432 0.8136613,0.258246 0.8136608,0.258246 0.7614675,0.709414 0.7614675,0.709416 1.0628633,0.470468 1.0628632,0.470468 v 0.293084 0.29308 l 0.8858926,-0.160642 0.8858919,-0.160641 0.531431,0.336438 0.53143,0.336439 -1.7007868,0.01158 -1.7007874,0.01158 0.5669291,0.366376 0.5669292,0.366376 4.7244089,0.05294 4.72441,0.05294 -2.07874,0.322023 -2.078741,0.322024 -0.755905,0.06213 -0.755906,0.06214 -1.133858,-0.262798 -1.133858,-0.262799 2.740157,1.319743 2.740158,1.319743 v 0.212535 0.21253 h -0.869291 -0.869292 z m 129.711599,-2.892038 -0.56602,-0.566019 -62.484602,-0.04748 -62.484599,-0.04749 -3.212598,-0.272859 -3.212599,-0.272859 1.747757,-0.05852 1.747757,-0.05852 1.488657,-0.52523 1.488657,-0.525229 4.322641,-0.230332 4.322642,-0.230336 19.454718,-0.219322 19.454722,-0.219324 0.242486,-0.149867 0.242491,-0.149867 6.192556,-0.199219 6.192556,-0.199219 6.425197,-0.208144 6.425197,-0.208143 10.204724,-0.155486 10.20473,-0.155486 13.59813,-0.225035 13.59813,-0.225035 0.28584,-0.449568 0.28585,-0.449568 0.006,0.472441 0.006,0.472441 h 0.56693 0.56693 V 35.48845 35.071393 l 2.36221,0.171431 2.3622,0.171432 0.6657,0.287707 0.66571,0.287708 -0.20262,-0.528021 -0.20262,-0.528021 h 0.76526 0.76526 v 0.48594 0.485939 h 1.07528 1.07528 l 0.67041,0.74079 0.67041,0.74079 -0.25297,1.348455 -0.25298,1.348452 -0.26437,-0.152186 -0.26436,-0.152187 -0.75591,0.304097 -0.7559,0.304094 1.01037,0.02657 1.01037,0.02657 1.16387,-0.979333 1.16387,-0.979332 -0.18583,-0.300676 -0.18583,-0.300681 0.63532,-0.515264 0.63532,-0.515266 -0.28383,0.472441 -0.28383,0.472441 h 0.33437 0.33438 l 0.91627,-0.982494 0.91628,-0.982494 1.34361,-1.069622 1.34361,-1.069622 0.45918,0.283789 0.45917,0.283789 -4.19166,3.658091 -4.19167,3.658091 h -3.53688 -3.53688 l -0.56602,-0.566022 z M 2.1920567,29.048205 2.456693,28.805071 l 3.4015749,-1.414632 3.4015749,-1.414632 3.7504022,-1.64932 3.750403,-1.649321 h 3.966133 3.966133 l -0.15748,0.14485 -0.157481,0.14485 -2.021658,0.239825 -2.021659,0.239824 -0.812987,0.435097 -0.812987,0.435098 -0.188976,-0.01575 -0.188977,-0.01575 -0.566929,0.171605 -0.566929,0.171604 -0.944882,0.414722 -0.944882,0.414723 -0.251969,0.02697 -0.251968,0.02697 -0.314961,0.336633 -0.31496,0.336634 1.133858,-0.247972 1.133858,-0.247971 -1.041316,0.794673 -1.041317,0.794674 0.203027,0.328504 0.203027,0.328505 0.554825,-0.212907 0.554825,-0.212906 v 0.475123 0.475124 l 37.322836,-0.27719 37.322835,-0.27719 8.692914,-0.119185 8.692909,-0.119184 20.22048,-0.225425 20.22047,-0.225424 1.03497,0.23033 1.03496,0.230331 -0.20688,0.334734 -0.20687,0.334735 h 0.66482 0.66483 l -0.36581,0.365809 -0.36581,0.365809 -74.336624,0.10664 L 1.9274204,29.29134 Z M 84.944884,21.636761 17.385827,21.541237 v -0.966152 -0.966152 l 0.379353,0.234453 0.379353,0.234453 61.321434,0.192798 61.321443,0.192799 2.55568,0.06749 2.55568,0.0675 -0.18161,-0.472441 -0.18162,-0.472441 h 1.71123 1.71123 l -0.2304,-0.372798 -0.2304,-0.372797 1.13856,0.132566 1.13857,0.132566 0.12129,-0.363871 0.12129,-0.363871 1.78288,-0.200956 1.78289,-0.200957 v -0.328799 -0.3288 h 0.52649 0.5265 l 0.22674,0.590885 0.22674,0.590885 0.28632,-0.176956 0.28633,-0.176957 1.09054,0.869574 1.09056,0.869574 -0.77791,0.834988 -0.77791,0.834988 -2.39157,0.05474 -2.39157,0.05474 z M 19.275591,9.8265475 l 1.322835,-1.1137478 7.937008,0.1671753 7.937008,0.1671757 18.897638,0.2304189 18.897639,0.2304193 11.149606,0.1707757 11.149607,0.170776 8.881888,0.1749234 8.88189,0.174923 13.51181,0.0027 13.51181,0.0027 v 0.377953 0.377952 l -61.700785,-0.01017 -61.700789,-0.01017 1.322835,-1.1137477 z"
         id="path1476" />
      <path
         style="fill:#19130e;stroke-width:0.999999"
         d="M 1.1338583,51.968506 1.6043677,51.401577 H 80.527402 159.45044 l 0.14825,-1.417323 0.14826,-1.417323 0.0635,1.984252 0.0635,1.984252 H 80.268686 0.66334891 Z"
         id="path1474" />
    </g>
  </g>
</svg>
