<?xml version="1.0" encoding="UTF-8"?>
<svg width="27.403mm" height="20.387mm" version="1.1" viewBox="0 0 27.403 20.387" xmlns="http://www.w3.org/2000/svg" xmlns:cc="http://creativecommons.org/ns#" xmlns:dc="http://purl.org/dc/elements/1.1/" xmlns:rdf="http://www.w3.org/1999/02/22-rdf-syntax-ns#">
 <metadata>
  <rdf:RDF>
   <cc:Work rdf:about="">
    <dc:format>image/svg+xml</dc:format>
    <dc:type rdf:resource="http://purl.org/dc/dcmitype/StillImage"/>
    <dc:title/>
   </cc:Work>
  </rdf:RDF>
 </metadata>
 <g transform="translate(-123.69 -90.407)" fill="#d2c8a3" stroke-width=".26458">
  <path d="m128.7 95.581-5.0082 5.4334 4.4885 4.583 5.7641 3.4018 7.2288 0.0473-1.6536-2.2206-4.772 0.14174-4.9137-2.9293-2.8821-3.0238 3.449-3.4018z"/>
  <path d="m132.37 99.625 0.0668 3.6081 2.6393 2.3052 3.8754 0.53454z"/>
  <path d="m127.66 92.127 0.0334 0.13364 18.347 18.534 1.94-1.8395-2.2507-2.256 2.5596-2.1813 2.8065-3.7632-3.5197-4.2141-6.6384-3.8888-6.7563-0.02363-3.1419 1.7718 1.4883 1.7009 2.744-1.4792 4.8498 0.09137 6.0919 3.7142 2.2491 2.3397-1.9248 2.2225-2.5979 1.9179-1.5994-1.6024 0.64321-3.0086-1.6599-3.3795-4.0027-1.2814-2.1367 0.50156-5.7119-5.7296z"/>
 </g>
</svg>
