<?xml version="1.0" encoding="UTF-8"?>
<svg width="25mm" height="25mm" version="1.1" viewBox="0 0 25 25" xmlns="http://www.w3.org/2000/svg" xmlns:cc="http://creativecommons.org/ns#" xmlns:dc="http://purl.org/dc/elements/1.1/" xmlns:rdf="http://www.w3.org/1999/02/22-rdf-syntax-ns#">
 <metadata>
  <rdf:RDF>
   <cc:Work rdf:about="">
    <dc:format>image/svg+xml</dc:format>
    <dc:type rdf:resource="http://purl.org/dc/dcmitype/StillImage"/>
    <dc:title/>
   </cc:Work>
  </rdf:RDF>
 </metadata>
 <g transform="translate(-23.441 -144.92)">
  <g transform="matrix(1.0777 0 0 1.0436 -4.3956 -7.0054)" stroke-opacity=".062745" stroke-width=".23526">
   <rect x="25.831" y="145.58" width="23.198" height="23.956" fill="#755c32"/>
   <path d="m25.831 145.58 1.0318 1.6704 0.14549 3.9944-0.1777 6.4318 0.20255 5.2804-0.23477 5.1458-0.96739 1.4333 1.4093-1.055 7.1424-0.13225 3.0193 0.11425 5.0501-0.11992 5.1115 0.10192 1.4655 1.0894-1.1041-1.4153 0.2387-5.8047-0.25216-10.877 0.14368-4.3875 0.97387-1.4717-1.3864 0.99546-4.9124 0.21258-5.2922-0.15718-5.11 0.095-5.0946-0.0396z" fill="#ae976f"/>
   <path d="m27.233 147.45 0.52547-0.42721 9.671-0.0101 9.7099 0.0112 0.48742 0.33888-0.0054 20.462-0.3084 0.2773-9.8834-8e-3h-9.308l-0.88383-0.52292z" fill="#3f3030"/>
  </g>
 </g>
</svg>
