<?xml version="1.0" encoding="UTF-8"?>
<svg width="100" height="100" version="1.1" viewBox="0 0 100 100" xmlns="http://www.w3.org/2000/svg" xmlns:cc="http://creativecommons.org/ns#" xmlns:dc="http://purl.org/dc/elements/1.1/" xmlns:rdf="http://www.w3.org/1999/02/22-rdf-syntax-ns#">
 <metadata>
  <rdf:RDF>
   <cc:Work rdf:about="">
    <dc:format>image/svg+xml</dc:format>
    <dc:type rdf:resource="http://purl.org/dc/dcmitype/StillImage"/>
    <dc:title/>
   </cc:Work>
  </rdf:RDF>
 </metadata>
 <g transform="translate(-188 36.6)">
  <g transform="translate(-54.1 6.81)" stroke-opacity=".0627">
   <path d="m242-43.4 20.4 3.43 42.8-2.5-1.88 10.4 6.38-9.88 32.4-1.43-2.98 28.3-7 1.25 6.62 1.5-3.88 13.6 3.4 3.94 1.41 35.5 2.42 15.9-39.5-2.6 2.92-3.98-19.7 3.27-43.8 3.3 1.94-20.3 9.72 3.36-8.66-7.25h3.54l-3.01-5.13-0.707-22.8 5.48-7.42h-5.3z" fill="#d8d0ab"/>
   <g fill="#9a784e">
    <path d="m277 41.2v-8.27l-7.65-7.72 7.51-4.37v4.67l7.88-7.95 15.8-9.21h16.5v16.8l-8.26 8.33v8.12l-8.06-8.14h-16.7v-8.47h17.1l-8.36-8.43-8.74 8.43 25 0.749v-12.9h-8v4.56l3.78 3.81h5.07v5.96h-25.2v6.38z"/>
    <path d="m269 20.9v-12.4h23.8l-8.1 4.72h-7.78v3.49z"/>
    <path d="m292-28.4-8.46 4.93-7.5 7.57-16.1 9.38-8.04-4.68v4.27l4.28 7.48 3.9 3.94 63.4 0.512 4.08-4.11 4.37-7.64v-4.03l-7.98 4.65-15.5-9.04-8.6-8.68zm0.262 8.46 7.78 4.53-7.92 4.61-7.85-4.57zm-15.5 8.62h9.25l6.36 3.71h0.421l5.98-3.48h8.26l-5.98 3.48h-8.26l-0.21 0.122 7.83 4.56h7.25l-7.5 4.37-8.04-4.68-7.86 4.58-6.98-4.07 7.12 0.0129 8.19-4.77-0.211-0.122h-9.25z"/>
   </g>
  </g>
 </g>
</svg>
