<?xml version="1.0" encoding="UTF-8" standalone="no"?>
<svg
   xmlns:dc="http://purl.org/dc/elements/1.1/"
   xmlns:cc="http://creativecommons.org/ns#"
   xmlns:rdf="http://www.w3.org/1999/02/22-rdf-syntax-ns#"
   xmlns:svg="http://www.w3.org/2000/svg"
   xmlns="http://www.w3.org/2000/svg"
   xmlns:sodipodi="http://sodipodi.sourceforge.net/DTD/sodipodi-0.dtd"
   xmlns:inkscape="http://www.inkscape.org/namespaces/inkscape"
   width="25mm"
   height="25.000088mm"
   viewBox="0 0 25 25.000088"
   version="1.1"
   id="svg8"
   sodipodi:docname="ghost.svg"
   inkscape:version="1.0.1 (3bc2e813f5, 2020-09-07)">
  <defs
     id="defs2" />
  <sodipodi:namedview
     id="base"
     pagecolor="#ffffff"
     bordercolor="#666666"
     borderopacity="1.0"
     inkscape:pageopacity="0.0"
     inkscape:pageshadow="2"
     inkscape:zoom="5.6568543"
     inkscape:cx="33.477792"
     inkscape:cy="42.513113"
     inkscape:document-units="mm"
     inkscape:current-layer="g853"
     inkscape:document-rotation="0"
     showgrid="false"
     inkscape:window-width="1544"
     inkscape:window-height="1030"
     inkscape:window-x="96"
     inkscape:window-y="0"
     inkscape:window-maximized="0" />
  <metadata
     id="metadata5">
    <rdf:RDF>
      <cc:Work
         rdf:about="">
        <dc:format>image/svg+xml</dc:format>
        <dc:type
           rdf:resource="http://purl.org/dc/dcmitype/StillImage" />
        <dc:title></dc:title>
      </cc:Work>
    </rdf:RDF>
  </metadata>
  <g
     inkscape:label="Laag 1"
     inkscape:groupmode="layer"
     id="layer1"
     transform="translate(-23.441205,-144.91784)">
    <g
       id="g853"
       transform="matrix(1.0776736,0,0,1.043574,-4.3956463,-7.0054121)"
       style="stroke-width:0.942962">
      <rect
         style="fill:#755c32;fill-opacity:1;stroke-width:0.235262;stroke-opacity:0.0627451;opacity:0.5"
         id="rect1476"
         width="23.198118"
         height="23.956135"
         x="25.830503"
         y="145.57977" />
      <path
         style="fill:#ae976f;fill-opacity:1;stroke-width:0.235262;stroke-opacity:0.0627451;opacity:0.5"
         d="m 25.830503,145.57976 1.031819,1.67042 0.14549,3.99436 -0.177705,6.43184 0.202553,5.28045 -0.234768,5.14576 -0.967387,1.43331 1.409264,-1.05496 7.142388,-0.13225 3.019288,0.11425 5.050149,-0.11992 5.111527,0.10192 1.465501,1.08937 -1.104077,-1.41531 0.238702,-5.80468 -0.252158,-10.87693 0.143683,-4.38754 0.973874,-1.47168 -1.386424,0.99546 -4.91241,0.21258 -5.292171,-0.15718 -5.109962,0.095 -5.094619,-0.0396 z"
         id="path1478"
         sodipodi:nodetypes="cccccccccccccccccccccccc" />
      <path
         style="fill:#3f3030;fill-opacity:1;stroke-width:0.235262;stroke-opacity:0.0627451;opacity:0.5"
         d="m 27.233082,147.45441 0.525473,-0.42721 9.671007,-0.0101 9.709863,0.0112 0.487423,0.33888 -0.0054,20.46195 -0.308405,0.2773 -9.883429,-0.008 h -9.308006 l -0.883827,-0.52292 z"
         id="path1486"
         sodipodi:nodetypes="ccccccccccc" />
    </g>
  </g>
</svg>
