<?xml version="1.0" encoding="UTF-8"?>
<svg width="727" height="88.3" version="1.1" viewBox="0 0 727 88.3" xmlns="http://www.w3.org/2000/svg" xmlns:cc="http://creativecommons.org/ns#" xmlns:dc="http://purl.org/dc/elements/1.1/" xmlns:rdf="http://www.w3.org/1999/02/22-rdf-syntax-ns#">
 <metadata>
  <rdf:RDF>
   <cc:Work rdf:about="">
    <dc:format>image/svg+xml</dc:format>
    <dc:type rdf:resource="http://purl.org/dc/dcmitype/StillImage"/>
    <dc:title/>
   </cc:Work>
  </rdf:RDF>
 </metadata>
 <g fill-opacity=".05" stroke-opacity=".0627">
  <path d="m59.3 85-6.18-84.9 16.7 0.758 4.33 17.2 0.887-16.7 44.9 1.82 6.32 85.2-16.7-0.834 5.76-9.58-10.4 8.6z"/>
  <path d="m182 0.263-0.76 85.2 57.2 2.77 5.09-0.283-0.782-10.5-13.2-73.4z"/>
  <path d="m279 85.9 5.54-84.6 42.4 2.4-0.308 3.03 26.7 80.7z"/>
  <path d="m428 82.9-11.9-82.7 10.4 1.49-0.876 5.33 4.69-4.92 4.83-0.0612-1.98 5.48 14-4.85 35.3 1.45 7.81 80-23.2 1.76-7.56-8.89 1.69 8.48-15.7-1.64-18.3-10.1 9.07 9.86z"/>
  <path d="m544 82.8 0.697-82.8 48.3 4.14 4.27 75.5 4.16 8.77z"/>
  <path d="m653 0.749 21.6 87.2 52.2-3.51-0.409-84.2-47.3 6.04 0.914-2.79-6.65 2.08-4.15-3.17-5.4-0.541-3.4 2.21z"/>
 </g>
</svg>
