<?xml version="1.0" encoding="UTF-8"?>
<svg width="68.1" height="289" version="1.1" viewBox="0 0 68.1 289" xmlns="http://www.w3.org/2000/svg" xmlns:cc="http://creativecommons.org/ns#" xmlns:dc="http://purl.org/dc/elements/1.1/" xmlns:rdf="http://www.w3.org/1999/02/22-rdf-syntax-ns#">
 <metadata>
  <rdf:RDF>
   <cc:Work rdf:about="">
    <dc:format>image/svg+xml</dc:format>
    <dc:type rdf:resource="http://purl.org/dc/dcmitype/StillImage"/>
    <dc:title/>
   </cc:Work>
  </rdf:RDF>
 </metadata>
 <g stroke-opacity=".0627">
  <path d="m67.9 277-12.8 10.2-19.4 1.61-35.3-10-0.324-71.9 2.06-130-1.95-62.1 19-11.4 38 3.12 11 4.47-13.1 217z" fill-opacity=".1"/>
  <path d="m0.115 15.5 6.66 76.8-6.78 115 4.69 70.6 12.8 4.83 0.539-19.4 3.88 20.1 13.7 5.73 32.2-11.8-8.71-84.5 7.41-116 1.54-64.8-11-4.47-6.82 12.5-0.489-15.3-12.8-4.45z" fill="#e5deb9"/>
  <path d="m35.6 289-16.1-63.2 13.9-72.3-3.05-57.1 9.15-50.5-2.57-46 12.8 4.45 0.489 15.3 6.82-12.5 11 4.47-1.53 64.8-7.41 116 8.71 84.5z" fill-opacity=".1"/>
 </g>
</svg>
