<?xml version="1.0" encoding="UTF-8"?>
<svg width="726.9" height="88.27" version="1.1" viewBox="0 0 726.9 88.27" xmlns="http://www.w3.org/2000/svg" xmlns:cc="http://creativecommons.org/ns#" xmlns:dc="http://purl.org/dc/elements/1.1/" xmlns:rdf="http://www.w3.org/1999/02/22-rdf-syntax-ns#">
 <metadata>
  <rdf:RDF>
   <cc:Work rdf:about="">
    <dc:format>image/svg+xml</dc:format>
    <dc:type rdf:resource="http://purl.org/dc/dcmitype/StillImage"/>
    <dc:title/>
   </cc:Work>
  </rdf:RDF>
 </metadata>
 <path d="m0.2953 88.27 59.05-3.286 45.62 1.521 10.37-8.604-5.757 9.584 16.74 0.8338 54.66-2.89 57.2 2.775 5.093-0.2833-0.7821-10.47 6.78 9.967 9.28-0.3458 0.5929-7.033 1.655 6.654 15.78-3.658 2.343 2.904 74.35 1.569 74.81-4.661-11.88-82.67-72.47 4.283-14.82-0.7783-2.317 3.097 0.3076-3.028-42.44-2.403-27.37 1.305-11.55 4.531-2.489-3.778-13.8 0.6858-47.51-3.826-7.717 0.3556-24.03 1.668-0.09247 5.293-3.592-4.957-0.78 2.168-10.09-2.394-5.686 3.949-9.749-3.238-44.9-1.818-0.8866 16.74-4.334-17.2-16.71-0.7575-53.16 2.4z" fill="#e5deb9" stroke-opacity=".06275"/>
 <path d="m353.3 87.51 74.81-4.661 8.309 0.6402-9.066-9.86 18.31 10.14 15.68 1.64-1.691-8.485 7.559 8.89 23.17-1.755 4.199 3.911 49.16-5.176 57.45 5.65-4.157-8.768 14.41 7.857 5.124-0.4552-3.345-5.111 13.59 4.201-2.376-4.33 12.62 3.42 5.124-0.4552 32.53 3.136 52.2-3.508-0.4088-84.23-35.59 4.334-11.71 1.709 0.9139-2.791-6.649 2.084-4.149-3.166-5.399-0.541-3.399 2.209-7.399-3.291-5.399-0.541-6.87 0.4913-19.73 1.817-13.68 6.104 0.9966-5.696-4.925 0.3588-0.064 8.137-3.821-7.773-6.87 0.4913-48.32-4.139-29.79 3.024 0.3932 7.68-4.232-7.508-28.23 0.8986-18.41-0.7273-16.9-0.7262-13.98 4.849 1.982-5.48-4.825 0.06116-4.692 4.923 0.876-5.331-10.39-1.486-88.55 5.497z" fill="#e5deb9" stroke-opacity=".06275"/>
</svg>
