<?xml version="1.0" encoding="UTF-8"?>
<svg width="28.5" height="30.2" version="1.1" viewBox="0 0 28.5 30.2" xmlns="http://www.w3.org/2000/svg" xmlns:cc="http://creativecommons.org/ns#" xmlns:dc="http://purl.org/dc/elements/1.1/" xmlns:rdf="http://www.w3.org/1999/02/22-rdf-syntax-ns#">
 <metadata>
  <rdf:RDF>
   <cc:Work rdf:about="">
    <dc:format>image/svg+xml</dc:format>
    <dc:type rdf:resource="http://purl.org/dc/dcmitype/StillImage"/>
    <dc:title/>
   </cc:Work>
  </rdf:RDF>
 </metadata>
 <g transform="translate(31 7.5)">
  <g transform="translate(-54.1 6.81)">
   <g transform="rotate(-4.46 37.8 .274)" stroke-opacity=".0627">
    <path d="m24.5-14.1-0.558 3.27 0.202 1.74 0.305 1.45 1.7 6.79 0.464 4.18 0.0829 8.89 1.56 1.49 2.09 1.03 2.51 0.62 3.02 0.354 3.13 0.0272 0.267-0.129 9.09-5.76 0.491-0.794 0.263-0.671 1.04-3.75 1.23-2.92 0.269-1.51-0.227-0.754-1.07-1.27-6.29-5.28-7.97-5.03-5.35-2.37-2.45-0.639-1.89-0.139-1.22 0.328z" fill="#f6e091"/>
    <path d="m25.9-14.8 1.29 4.3 0.411 0.277 14.8 6.48 3.29 2.32 0.0611 0.261-1.59 2.65-5.41-2.36-8.93-2.29-0.494 0.0451 9.66 18.8 9.39-5.83 0.491-0.794 1.28-4.5 1.22-2.89 0.269-1.51-0.227-0.754-1.03-1.22-6.29-5.28-7.97-5.03-5.35-2.37-2.45-0.639-1.89-0.139-1.93 1.35-0.537 3.09 0.508 3.19 2.14 7.67-0.0175 9.93 0.126 2.26 1.52 1.43 2.09 1.03 2.51 0.62 3.02 0.354 3.13 0.0272-9.66-18.8z" fill="#edcc06"/>
    <path d="m27.4 12-0.408 0.374-0.249-0.0638 1.52 1.43 2.09 1.03 2.51 0.62 3.02 0.354 3.13 0.0272 0.267-0.129-0.0629-1.38 1.89-4.77 6.66-0.996 1.36-0.0803 1.04-3.75 1.23-2.92 0.269-1.51-0.227-0.754-11.4 9-9.34-1.41-4.08-17.4-1.08-3.69-0.965 0.012-0.556 3.19 0.164 1.76 0.343 1.51 1.66 6.74 0.657 6.09-0.073 1.51 0.995 3.58z" fill="#dca51b"/>
    <path d="m28 10.7-0.599 1.21 11.8 2.26 0.0868-0.248 0.821-5.44-5.87 0.175-2.73-0.667z" fill="#bb6816"/>
    <path d="m24.5-14.1 0.689-0.839 1.22-0.328-0.44 0.613 3.43 11.7 1.96 8.43 0.276 0.516 2.45 0.495 6.16-0.0744 1.92-0.521 4.49-3 4.13-3.8-0.433-0.908 1.03 1.22-0.0215 0.597-0.388-0.322-2.11 2.64-2.4 2.29-4.65 3.4-2.57 5.93 0.821-5.44-5.87 0.175-2.73-0.667-3.53 2.7 1.29-2.68 0.37-1.57-2.2e-4 -1.38-4.15-19.2z" fill="#fdfdfa"/>
   </g>
  </g>
 </g>
</svg>
