<?xml version="1.0" encoding="UTF-8"?>
<svg width="27.403mm" height="20.387mm" version="1.1" viewBox="0 0 27.403 20.387" xmlns="http://www.w3.org/2000/svg" xmlns:cc="http://creativecommons.org/ns#" xmlns:dc="http://purl.org/dc/elements/1.1/" xmlns:rdf="http://www.w3.org/1999/02/22-rdf-syntax-ns#">
 <metadata>
  <rdf:RDF>
   <cc:Work rdf:about="">
    <dc:format>image/svg+xml</dc:format>
    <dc:type rdf:resource="http://purl.org/dc/dcmitype/StillImage"/>
    <dc:title/>
   </cc:Work>
  </rdf:RDF>
 </metadata>
 <g transform="translate(-123.69 -90.407)" fill="#d2c8a3" stroke-width=".26458">
  <path d="m123.69 101.01 4.4885 4.583 5.7641 3.4018 7.2288 0.0473 4.5558-2.3473 2.5596-2.1813 2.8065-3.7632-3.5197-4.2141-6.6384-3.8888-6.7563-0.02363-5.4806 2.9529 1.7009 2.0317 2.1261-1.512 2.744-1.4792 4.8498 0.09137 6.0919 3.7142 2.2491 2.3397-1.9248 2.2225-2.5979 1.9179-4.4194 1.9188-4.772 0.14174-4.9137-2.9293-2.8821-3.0238 3.449-3.4018-1.7009-2.0317z"/>
  <path d="m132.43 103.23-0.0668-3.6081 1.6407-3.0907 3.3151-0.89912 4.0027 1.2814 1.6599 3.3795-0.64321 3.0086-3.3937 2.7682-3.8754-0.53454z"/>
 </g>
</svg>
