<?xml version="1.0" encoding="UTF-8"?>
<svg width="508mm" height="285.8mm" version="1.1" viewBox="0 0 508 285.8" xmlns="http://www.w3.org/2000/svg" xmlns:cc="http://creativecommons.org/ns#" xmlns:dc="http://purl.org/dc/elements/1.1/" xmlns:rdf="http://www.w3.org/1999/02/22-rdf-syntax-ns#">
 <metadata>
  <rdf:RDF>
   <cc:Work rdf:about="">
    <dc:format>image/svg+xml</dc:format>
    <dc:type rdf:resource="http://purl.org/dc/dcmitype/StillImage"/>
    <dc:title/>
   </cc:Work>
  </rdf:RDF>
 </metadata>
 <g transform="translate(140.5 -8.934)">
  <path d="m-140.5 294.7v-285.7h508v285.7z" fill="#90443d" stroke-opacity=".06275" stroke-width=".2646"/>
  <g fill="#bc6759" stroke-opacity=".06275" stroke-width=".2646">
   <path d="m-102.1 100.3 36.85-10.39 27.21 7.56 43.09 4.914z"/>
   <path d="m6.779 77.82 2.457 3.024 8.504-3.024-2.268-2.835-4.158-0.756z"/>
   <path d="m13.58 62.51-2.646 4.158 6.993-0.189 3.213-4.158z"/>
   <path d="m-12.88 59.68-2.292 1.362 1.303 2.005 3.374-0.3007-2.172-1.503 2.172-1.136z"/>
   <path d="m181.7 120.9 0.0668 0.0668 2.923 2.038 1.62-1.637-1.37-1.971z"/>
   <path d="m255.3 157 1.604 2.907 5.78 0.2673 1.002 2.005 11.43-5.446-15.07-1.303z"/>
   <path d="m268.4 263.8-0.8504 2.835 3.118 0.6614 2.835-2.788z"/>
  </g>
  <g stroke-opacity=".06275" stroke-width=".2646">
   <path d="m367.5 294.7h-68.12l-11.91-17.48 80.13-30.43z" fill-opacity=".1"/>
   <path d="m367.4 233-34.21-8.126 23.51-43.78-37.02-2.94 47.9-45.7-0.0945-32.13-37.7-25.32 43.62-36.96-22.54-22.85-176 8.41-29.1-11.72-244.7 26.76-2.405 9.755 18.17 2.673-45.38 35.18 10.87 12.1 155.2 6.898 10.21 9.827-192.8 11.72 28.92 13.04-17.2 10.49 112.6 17.29-7.749 17.76-128.3 6.426 8.882 57.45 44.03 34.4 77.11-13.61 251.9 33.64-365.6-8.975v-285.7h508z" fill-opacity=".1"/>
   <g fill-opacity=".05">
    <path d="m-154 167.4 69.55 15.88-78.05 3.591z"/>
    <path d="m-92.74 52.38 90.34 8.018 49.44-4.009-57.73-2.138-104.2-6.949z"/>
    <path d="m-135.5 88.78 126.1-13.04 87.31-2.646 85.99-4.914-87.31 2.268-93.17 3.118-118.5 9.788z"/>
    <path d="m-49.24 42.5-0.2005 0.2673-1.737 1.737 56.26 3.541z"/>
    <path d="m-24.03 42.29 124.8 7.691 170.4-4.41 62.96 9.003-65.77-4.914-150.1 5.292-137.8-11.42z"/>
    <path d="m177.9 85.19-82.09-0.4645-41.29 2.539 48.24-5.88 39.29-1.203z"/>
    <path d="m57.33 88.6 13.76 1.47 20.31-3.608z"/>
    <path d="m202.8 63.27 1.323-0.189 91.66 17.95 34.02-6.048-38.74 0.9449z"/>
    <path d="m336.6 9.755 15.64 19.24-22.45 7.884-16.17-0.6682 22.58 6.949 23.79-3.074 1.604 5.479-21.78-0.8018 29 16.44-1.376-52.27z"/>
   </g>
   <path d="m371.5 104.5-512.9 6.439 0.2483 80.5 508.9 8.639z" fill-opacity=".1"/>
   <g fill-opacity=".05">
    <path d="m273.3 138.3-132.1-3.969-97.14-4.347-141.3 10.12-42.09-0.9354 39.29 3.074 143-7.913 125.2 8.181z"/>
    <path d="m285.7 156.4 21.92-2.94 69.22 0.8018-5.613 6.147z"/>
    <path d="m341 146.7-24.05 5.613-52.92-3.742-40.09-0.5345-66.02 8.018-123.5-13.5 122.7 7.991 66.05-3.969 101.9-2.929 37.69-13.52-125.3-0.5345-24.88-4.182-63.88 2.835-92.98-8.693 94.49 2.835-31.37-7.182-17.58-8.693 57.45-1.323-7.938 5.481 30.62-1.701 22.87 4.158 34.93 2.569-46.77-1.002-12.7 2.873 93.51 7.278 85.42 1.89 0.9449-9.26-23.43-0.189-2.079-1.134-35.15-1.323 41.39-1.134-10.02-6.993-12.85-2.268 16.06 1.134 40.07 7.182-3.213 33.83-37.61-2.457-20.79 3.024z"/>
    <path d="m129.8 173.5 0.6682-0.2673h80.45l59.33 5.078 115.3 1.935-39.5-6.993-92.04 0.567-42.71-5.103-8.882 1.89-98.08-4.725-106.8 11.53-35.91-2.551 35.06 5.008 106.5-7.437z"/>
    <path d="m283.4 182.6 10.96 5.103-3.685 3.591 28.75-3.95 25.39 8.82-106.9-5.613-18.17 2.405-281.5-0.0564 13.99-4.725-9.827-3.969 2.268-3.213-40.44 4.914-26.65 4.914-28.92 1.89-1.323 9.827 520.3-0.9998 4.454-21.41-45.44-0.2673-28.87 6.414z"/>
    <path d="m-144.2 227.1 11.91-2.079 3.969-3.969 121.7 0.756 47.62-9.827 99.03 5.67 91.85-10.02 22.11 3.78-107.2 10.4-62.27 1.604-12.83 6.682-122.3 17.98-4.914 6.804 136.1-15.5 69.55 1.134-0.756 3.78-94.12 10.21 11.34 3.78 103.2-5.67-13.99 5.67 1.134 3.024-91.09 1.512-31.37 12.1-0.756 8.315-20.41 25.32 252.9-3.024-63.88-25.7 7.56-10.21-11.34-7.56 38.93-4.914-22.3-9.827 10.96-5.67-8.315-3.402 110 10.96 41.2-6.615-0.378-33.64-339-0.9449-131.7 5.859-52.16-3.402z"/>
    <path d="m224.5 261.1 91.67-10.69-6.682-5.078-24.86 4.276-28.87 2.673 2.673 3.207-69.49 5.88z"/>
    <path d="m210.5 279.8h1.89l75.03-2.646 80.69-13.47-0.1513 21.7z"/>
    <path d="m-125.1 271h1.069l200.7-10.96-9.622 11.23-79.38 2.138-88.2 19.24-70.02-10.96z"/>
   </g>
  </g>
  <g fill="#bc6759" stroke-opacity=".06275" stroke-width=".2646">
   <g fill-opacity=".5">
    <path d="m44.37 31.27 7.484 0.2673 117.3 4.276-72.7-16.04-22.18 4.544 10.42 4.276z"/>
    <path d="m202.8 63.27 87.88 27.97 32.51-10.96-34.77 4.158z"/>
    <path d="m-25.73 46.64 2.646 1.417 26.36 6.804-5.859-7.465z"/>
    <path d="m25.87 61.94 14.08-0.567-2.551-4.819z"/>
    <path d="m-111.2 300.4 119.5-33.14 64.14-2.673-38.06 10.34-0.756 8.315-20.41 25.32z"/>
    <path d="m230.9 225.8 1.134 4.914 82.4 3.213 30.05-6.426-41.39-5.67-45.36 0.567z"/>
   </g>
   <path d="m-141.9 197 509.5 4.53 0.1803 5.634-510.6-5.912z" fill-opacity=".502"/>
   <path d="m215 247.3 15.88-3.056-4.915-2.613 75.47 6.355-43.03 7.484-1.069 5.345-43.3-3.207z" fill-opacity=".5"/>
   <path d="m-50.67 248.1 122.3-17.98 25.12-10.16-59.6 3.474 59.07-7.484-10.96-3.475-44.27-0.4793-47.62 9.827 5.837 7.223z" fill-opacity=".5"/>
   <path d="m277.1 100.8 30.69 4.357 61.45 3.495-480.7-2.088z"/>
  </g>
  <g stroke-opacity=".06275" stroke-width=".2646">
   <path d="m356.2 41.53-15.22 25.87-3.44 0.9093-5.215 1.453 3.086 2.974-15.02 15.84-7.879 7.092-7.751-5.153 6.758-16.84 2.672-0.6787-1.152-2.692 6.203-17.68 22.23-22.05z" fill="#e5baaa"/>
   <path d="m356.2 41.53-3.162-0.4397-15.5 27.22-5.215 1.453 0.7272 0.7157-2.049 0.4012-0.9091 4.609-17.58 20.18-7.751-5.153 2.62-1.336 10.6-24.3-0.8717-1.263 3.751-10.17 20.61-22.88 12.95 10.01z" fill="#a08677"/>
   <path d="m325.5 23.5-1.586-1.847-7.108-6.677 6.289-11.5 5.79-1.746 7.929-2.917 2.611 7.723 9.52 9.592 1.235 2.107 3.374-3.169 1.054-3.379 11.62 8.665 2.94 2.273-2.909 5.243 11.93 6.706 11.31 1.433 3.629 16.74-4.495 3.339-18.06 2.431-6.404-10.16 5.772-3.99-1.749-2.167-8.162-2.115-1.452-1.111-15.9-9.798 0.7435-0.6948-4.695-2.24-7.582-9.816z" fill="#b16b02"/>
   <path d="m351.8 16.65 14.22 11.86-0.8409 1.113-15.59-10.2z" fill="#470f05"/>
   <path d="m354.6 11.69 14.56 10.94 8.161-7.56 6.627-13.45-0.3546-1.811 2.588-1.007 2.291-8.746 2.286-0.8039 2.291-6.389-8.31-4.466-26.99 25.36z" fill="#a75323"/>
   <path d="m368.2 42.21 6.877-4.165 7.597 7.252-3.357 6.977-6.147-0.223 0.9681-2.287 3.059 0.8555 4.331-3.818-6.347-7.101-5.973 3.744z" fill="#7b1e08"/>
   <path d="m328.3 16.58 0.1441-0.0379 2.645-0.1092 1.023-9.476-6.998-0.9381-1.369 7.258 3.212-5.301 3.056 1.258z" fill="#7b1e08"/>
   <path d="m342.7 29.18-1.143 1.388 12.95 10.01 1.771 0.9479 2.32-2.552z" fill="#470f05"/>
  </g>
  <g stroke-opacity=".06275" stroke-width=".2646">
   <path d="m349.8 33.42-41.42 59.83 4.191 2.415 7.879-7.092 0.999 0.1735-18.22 55.08-20.33 0.5472-12.2-13.98 12.22-7.441 22.86-36.69 0.6461-0.0165-1.61 4.264 0.7724 0.1752 1.847-1.511 10.6-24.3-0.8717-1.263 3.751-10.17 22.5-24.96-4.695-2.24-7.582-9.816-2.203 1.204-1.439 0.4925-3.595 3.524-7.108-6.677 6.289-11.5 5.79-1.746 5.553 0.629 0.1847 3.045 12.79 11.51 1.533-0.7818 1.235 2.107 3.374-3.169 4.206-11.32 26.99-25.36 5.414 3.356 0.2754 6.379-4.812-0.2822-3.146 11.67-3.882-0.1934-0.7224 1.898 2.409 0.4617-5.377 9.342-5.931 0.2077 3.456 3.147-2.858 3.55-3.348 2.432 0.9773 1.916-4.016 7.119 0.4166 3.973 13.39 2.426 7.945 7.055 5.441-1.326 0.787 2.174-2.006 9.796-18.35 3.642-6.644-8.765 5.772-3.99-1.749-2.167-8.162-2.115-1.452-1.111-2.32 2.552-8.157-5.579z" fill-opacity=".2"/>
   <path d="m343.3 32.9 0.7595 2.752-10.36 5.326 0.9702-2.99z" fill-opacity=".1"/>
   <path d="m340 43.79-6.051 3.207-1.313 6.183 7.518-6.249z" fill-opacity=".1"/>
  </g>
  <g fill="#4d291a" fill-opacity=".502" stroke-opacity=".06275" stroke-width=".2646">
   <path d="m346.3 20.01 9.873 3.957-1.24-4.774 3.938-3.773 5.426 3.721-1.542 5.681-6.398-0.4931 5.106 11.91-5.717 2.517-12.18-4.443z"/>
   <path d="m338.7 26.25-2.908-15.68-8.191-6.351-3.582 5.697 5.707 1.927 1.393 4.592z"/>
   <path d="m322.6 12.33-4.261 0.483-1.554 2.161 7.108 6.677 1.555-2.001z"/>
   <path d="m360 40.09 5.269-2.768 12.16 3.794 3.677 0.5148 5.881 7.43-7.064 4.85-2.768-3.297 4.331-3.818-3.593-4.204-5.364 4.869-0.1342 9.284-1.616 0.3817-6.644-8.765 5.772-3.99-1.749-2.167z"/>
  </g>
  <g stroke-opacity=".06275" stroke-width=".2646">
   <path d="m-135-2.284-5.997 5.99-6.858 18.71 16.2 21.91 19.37 5.685 14.26-6.98 5.759-6.271z" fill="#898137"/>
   <path d="m-121.2-9.564-13.81 7.28-8.367 21.68 15.08 20.49 19.6 6.167 16.42-9.3 6.909-17.26-12.91-23.25z" fill="#beb03b" fill-opacity=".9775"/>
   <path d="m-132.9-0.0669-5.714 18.2 11.41 17.94 18.71 5.671 14-7.143 5.765-15.95-12.17-19.08-20.41-4.931z" fill="#898137" fill-opacity=".82"/>
   <path d="m-130.9 1.337-5.407 16.22 9.82 15.8 17.58 5.745 12.18-6.853 4.548-15.16-10.23-14.97-18.61-5.219z" fill="#beb03b" fill-opacity=".9775"/>
  </g>
  <g fill="#898137" fill-opacity=".82" stroke-opacity=".06275" stroke-width=".2646">
   <path d="m-127.6 7.347 5.935-5.364 16.24 3.44 6.271 7.214 3.755 0.4269-2.565 1.664 1.526 2.714-3.661-3.35z"/>
   <path d="m-129.4 16.15 1.06-5.628 12.23 2.07z"/>
   <path d="m-129.3 20.45 0.1958-2.625 3.926 0.3114 1.305 2.487 6.368-4.308-0.8035-1.145 4.879-1.438 13.39 2.446-0.7517 8.164-5.617 3.167-0.3154 4.55-3.825-4.841-11.46-2.036-3.096 4.091-0.0422-5.211z"/>
  </g>
  <g stroke-opacity=".06275" stroke-width=".2646">
   <path d="m-118.2 21.05 2.677-2.034 3.524 3.607z" fill="#c5b73d"/>
   <path d="m-110.4 19.2 0.3259-3.247 4.976 1.116-1.024 6.676z" fill="#c5b73d"/>
   <path d="m-115.5 28.97-2.874 2.748-7.265-0.2973 7.83 3.129 1.422-1.722 1.616 2.319 3.955 0.4235 2.947-0.985-6.159-1.856z" fill="#998e2f"/>
   <path d="m-155.4 37.72 0.2245 8.473 8.866 17.84 27.05 3.311 17.45-10.16 4.738-15.15-0.5924-8.494z" fill="#898137"/>
  </g>
  <path d="m-151.1 22.68 2.688-3.596 17.84-11.11 14.51 4.616z" fill-opacity=".2" stroke-opacity=".06275" stroke-width=".2646"/>
  <g stroke-opacity=".06275" stroke-width=".2646">
   <path d="m-151.1 22.68-4.213 15.03 9.988 20.99 25.25 3.142 17.96-9.988 4.539-18.32-7.782-16.89-25.76-6.613z" fill="#bdaf3a"/>
   <path d="m-152.3 37.73 9.285 16.66 20.87 4.047 16.98-9.681 4.444-15.08-7.618-15.16-22.22-4.285-17.62 11.43z" fill="#928a37"/>
   <path d="m-149.9 37.18 8.055 15.08 18.22 3.733 16.26-8.812 3.403-13.56-7.881-13.73-17.9-2.867-16.59 9.919z" fill="#bdaf3a"/>
  </g>
  <g fill="#898137" fill-opacity=".82" stroke-opacity=".06275" stroke-width=".2646">
   <path d="m-143.2 38.91 0.187-7.997 13.67-9.427 9.55 0.4077 2.892-2.432-0.5564 3.006 3.02 0.7585-4.95 0.354z"/>
   <path d="m-138.1 46.3-3.357-4.639 9.913-7.455z"/>
   <path d="m-134.9 49.21-1.771-1.947 2.926-2.636 2.703 0.763 1.251-7.586-1.384-0.2044 2.311-4.531 10.99-8.041 5.41 6.16-1.564 6.256 3.086 3.358-6.145-0.5527-9.356 6.916 0.8412 5.061-3.812-3.553z"/>
  </g>
  <g stroke-opacity=".06275" stroke-width=".2646">
   <path d="m-126.8 41.56 0.3646-3.342 5.043-0.07798z" fill="#c5b73d"/>
   <path d="m-122.8 34.61-2.133-2.47 4.232-2.845 4.143 5.334z" fill="#c5b73d"/>
   <path d="m-119.3 45.06 0.0183 3.976-5.212 5.07 7.657-3.533-0.2722-2.216 2.795 0.4217 3.027-2.58 1.311-2.817-5.584 3.195z" fill="#998e2f"/>
  </g>
  <g stroke-opacity=".06275" stroke-width=".2646">
   <path d="m-124.9 62.49 27.31 3.934 10.47-3.687 8.405-11.32-8.961-37.12-5.627-3.668-20.87-4.16-11.6 6.162-6.869 7.681-6.825 22.66z" fill-opacity=".2"/>
   <path d="m-121.7 12.73-5.947 6.04-6.701 18.76 16.38 21.78 19.42 5.523 14.2-7.099 5.707-6.319z" fill="#898137"/>
   <path d="m-108 5.339-13.75 7.395-8.185 21.75 15.25 20.37 19.65 6.003 16.34-9.437 6.764-17.32-13.1-23.14z" fill="#beb03b" fill-opacity=".9775"/>
   <path d="m-119.6 14.93-5.561 18.25 11.56 17.84 18.75 5.514 13.94-7.259 5.631-16-12.33-18.98-20.45-4.76z" fill="#898137" fill-opacity=".82"/>
   <path d="m-117.5 16.32-5.271 16.26 9.952 15.71 17.63 5.597 12.13-6.955 4.421-15.2-10.35-14.88-18.65-5.063z" fill="#beb03b" fill-opacity=".9775"/>
  </g>
  <g fill="#898137" fill-opacity=".82" stroke-opacity=".06275" stroke-width=".2646">
   <path d="m-114.2 22.3 5.89-5.414 16.27 3.304 6.332 7.161 3.758 0.3955-2.551 1.685 1.549 2.701-3.689-3.319z"/>
   <path d="m-115.9 31.12 1.013-5.636 12.25 1.967z"/>
   <path d="m-115.8 35.42 0.1738-2.626 3.928 0.2785 1.326 2.476 6.332-4.362-0.8131-1.139 4.866-1.479 13.41 2.334-0.6834 8.17-5.591 3.214-0.2772 4.552-3.865-4.809-11.47-1.94-3.061 4.117-0.0858-5.21z"/>
  </g>
  <path d="m-104.7 35.93 2.66-2.056 3.554 3.578z" fill="#beb03b" fill-opacity=".9775" stroke-opacity=".06275" stroke-width=".2646"/>
  <path d="m-96.92 34.01 0.2987-3.25 4.985 1.074-0.9677 6.684z" fill="#beb03b" fill-opacity=".9775" stroke-opacity=".06275" stroke-width=".2646"/>
  <g stroke-opacity=".06275" stroke-width=".2646">
   <path d="m-102 43.83-2.851 2.772-7.267-0.2364 7.856 3.064 1.407-1.734 1.635 2.306 3.958 0.3903 2.939-1.01-6.175-1.805z" fill="#998e2f"/>
   <path d="m247.5 21.68-2.92 7.957-14.1 14.08-26.69-5.504-13.29-15.2 0.3512-15.87 3.275-7.859z" fill="#898137"/>
   <path d="m248.3 6.092-0.8108 15.59-16.17 16.69-24.93-5.09-13.82-15.2 1.551-18.81 12.77-13.52 26.52 1.962z" fill="#bdaf3a"/>
   <path d="m244.6 20.73-14.12 12.82-21.07-2.833-13-14.6 0.6064-15.71 12.06-11.93 22.42 3.039 13.04 16.46z" fill="#928a37"/>
   <path d="m242.4 19.42-12.45 11.71-18.46-2.285-12.59-13.54 1.107-13.94 11.85-10.49 17.88 3.003 12.55 14.7z" fill="#bdaf3a"/>
  </g>
  <g fill="#898137" fill-opacity=".82" stroke-opacity=".06275" stroke-width=".2646">
   <path d="m235.6 18.94 2.378-7.638-9.94-13.3-9.179-2.665-1.963-3.229-0.4333 3.027-3.104-0.2463 4.577 1.917z"/>
   <path d="m228.4 24.3 4.663-3.324-7.011-10.23z"/>
   <path d="m224.4 26.05 2.3-1.279-1.93-3.433-2.805-0.1407 1.238-7.588 1.377 0.2486-0.7425-5.032-7.841-11.13-7.095 4.109-0.5169 6.428-3.997 2.196 5.999 1.44 6.656 9.543-2.414 4.527 4.747-2.149z"/>
  </g>
  <g stroke-opacity=".06275" stroke-width=".2646">
   <path d="m219.2 16.22 0.7225-3.284-4.753-1.685z" fill="#c5b73d"/>
   <path d="m210.9 17.11-1.288 3.762 3.319 6.47-6.127-5.794 0.966-2.013-2.783-0.4935-2.044-3.412-0.3427-3.088 4.27 4.812z" fill="#998e2f"/>
   <path d="m210.7 35.42-27.14-4.998-8.744-6.839-4.348-13.41 20.35-32.31 6.504-1.678 21.1 2.724 9.024 9.546 4.054 9.473-0.7719 23.65z" fill-opacity=".2"/>
   <path d="m223.6-12.73 3.705 7.623 0.3542 19.92-22.48 15.4-20.17-0.9722-11.19-11.26-3.388-7.811z" fill="#898137"/>
   <path d="m212.9-24.13 10.67 11.4 0.8062 23.23-20.96 14.42-20.54-0.5901-12.47-14.16-0.8757-18.57 19.81-17.74z" fill="#beb03b" fill-opacity=".9775"/>
   <path d="m220.9-11.32-0.5609 19.07-16.66 13.21-19.53-0.7668-10.89-11.33-0.2233-16.96 17.75-14.04 20.9 2.024z" fill="#898137" fill-opacity=".82"/>
   <path d="m218.5-10.68-0.2006 17.09-14.45 11.71-18.49-0.3278-9.268-10.46 0.6678-15.82 14.57-10.79 19.29 1.161z" fill="#beb03b" fill-opacity=".9775"/>
   <path d="m210.8 6.886 0.6744-2.544-3.812-0.9912-2.048 1.923-4.606-6.156 1.134-0.8193-4.139-2.956-13.46-2.074-1.963 7.96 4.271 4.832-1.192 4.402 5.199-3.322 11.49 1.827 1.586 4.879 1.746-4.91z" fill="#898137" fill-opacity=".82"/>
  </g>
  <g stroke-opacity=".06275" stroke-width=".2646">
   <path d="m195 10.42 1.816 3.537 6.962 2.098-8.423 0.3931-0.7798-2.092-2.286 1.662-3.876-0.8949-2.462-1.896 6.428 0.2626z" fill="#998e2f"/>
   <path d="m138.1 296.2 77.31-10.75 11.8-1.849 6.375-0.6295 5.883-4.475 45.46-32.18 7.844-18.2 8.326 3.755 5.974-14.54 29.27 26.73 9.414 30.16-4.31 2.472 5.661-0.8363 12.37 19.34z" fill="#d8d0ab"/>
   <path d="m290.7 264.4 12.37-10.86 4.526-2.917 1.71 3.621 8.347-5.23 16.19 11.77-8.045 4.325-6.135-11.36-7.93 7.942-5.902-2.916z" fill="#9c967a"/>
   <path d="m307.1 217.3 22.05 23.18 6.685 4.409 9.956 29.3 3.982-3.84-10.81-27.88-19.49-19.34-2.418 3.698 0.4267-6.969-4.978-6.4-3.556-6.685z" fill="#d8d0ab"/>
  </g>
  <path d="m138.1 296.2 77.31-10.75 11.8-1.849 6.375-0.6295 5.883-4.475 45.46-32.18 7.844-18.2 8.326 3.755 5.974-14.54 29.27 26.73 9.414 30.16-4.31 2.472 5.661-0.8363 12.37 19.34z" fill-opacity=".1" stroke-opacity=".06275" stroke-width=".2646"/>
  <g stroke-opacity=".06275" stroke-width=".2646">
   <path d="m328.4 277 11.16-9.655 6.221 6.881-4.31 2.472z" fill="#8d876e"/>
   <path d="m328.4 277 13.07-0.3017 5.661-0.8363 3.485 8.605z" fill="#8d876e"/>
   <path d="m347.1 275.9 4.409-1.067 7.965 20.41-49.64-27.52-4.054-8.889 4.551-2.489 1.351 5.405 38.9 22.76z" fill="#d8d0ab"/>
   <path d="m303.1 253.6h0.5029l4.023-2.917-7.643-15.99 19.11 7.543 16.49 21.12-6.034-0.4023-9.856-9.152 6.135 11.36 13.78 2.213-10.46-22.73-15.09-8.85-21.22-7.643z" fill="#d8d0ab"/>
   <path d="m215.4 285.5 11.8-1.849 0.4267-3.769 22.69 18.85-27.98 5.76z" fill="#a22121"/>
  </g>
  <path d="m292.8 228.1-7.844 18.2-45.46 32.18-2.917 6.839 34.7 14.88 88.23-5.027-32.14-17.83-59.81 15.63-13.23-14.79 27.31-18.35 2.276-7.111 6.4-1.422 5.262-16.36z" fill-opacity=".1" stroke-opacity=".06275" stroke-width=".2646"/>
  <path d="m229.2 283.3-91.04 12.88 100.6 7.442-4.129-19.65z" fill-opacity=".1" stroke-opacity=".06275" stroke-width=".2646"/>
  <g fill="#ad6c58" fill-opacity=".3" stroke-opacity=".06275" stroke-width=".2646">
   <path d="m250.2 276.2 0.4023 0.5029 18.3 28.16 5.129-6.034-2.514-16.49-17.15-6.255z"/>
   <path d="m262.2 267.3-0.2845 5.689 3.271 2.56 12.02-7.467-7.538-3.556z"/>
   <path d="m279 283.8 8.448-6.587 6.638 1.911-1.559 6.084 3.721 6.788-3.52 0.1005z"/>
  </g>
  <g stroke-opacity=".06275" stroke-width=".2646">
   <path d="m302.4 251.7-0.1508 0.0503-9.403-23.66-5.327 12.54-0.4267 27.31-27.45 12.09-3.982 17.71 103.9-2.56-49.64-27.52-4.054-8.889-15.13 5.634z" fill-opacity=".05"/>
   <path d="m-181.3 201.6 74.61-34.4 8.996 7.408 47.1-19.58 31.22 88.9 84.67 120.6-254.5-51.86z" fill="#e5deb9"/>
   <path d="m-63.75 286.8-0.9823-6.775-6.005-4.14 2.759-2.73 5.567 5.561 1.812 6.846z" fill="#cd5e51"/>
   <path d="m-106.7 167.2 2.117 15.08 53.98-27.25-47.1 19.58z" fill-opacity=".2"/>
  </g>
  <g fill="#cd5e51" stroke-opacity=".06275" stroke-width=".2646">
   <path d="m-81.96 262 2.563 6.347 6.816 2.596-2.032 3.307-6.729-4.08-3.386-6.22z"/>
   <path d="m-82.13 258.2 0.1709-6.843 5.471-4.824-3.064-2.383-4.868 6.183-0.9867 7.013z"/>
   <path d="m-75.18 242 2.204-6.481-3.468-6.417 3.698-1.178 2.432 7.484-1.497 6.922z"/>
   <path d="m-78.2 226.4-3.694-5.763-7.179-1.288 1.384-3.626 7.368 2.763 4.48 5.485z"/>
  </g>
  <path d="m-118.7 184.2 19.05 5.292 7.144 18.92-21.17 13.89-2.381 26.19-31.35 10.98 1.984-69.06z" fill-opacity=".2" stroke-opacity=".06275" stroke-width=".2646"/>
  <path d="m-102.1 208.2 3.77 5.713 7.196 1.193-1.336 3.644-7.404-2.665-4.552-5.425z" fill="#cd5e51" stroke-opacity=".06275" stroke-width=".2646"/>
  <g fill-opacity=".2" stroke-opacity=".06275" stroke-width=".2646">
   <path d="m-71.7 195.6-1.497 3.742 6.735 6.361z"/>
   <path d="m-61.8 200.5-0.5622 2.91 4.266 3.175 1.422-4.399-1.588-1.554z"/>
   <path d="m-62.9 190.5-5.426 2.9 7.484-2.432z"/>
   <path d="m-56.17 237-8.793 10.1 2.432 10.1 6.548 5.613z"/>
   <path d="m-50.59 155 23.79 93.42 92.1 116.1z"/>
   <path d="m-108 230.4-1.123 4.677 3.274 5.285 3.601-12.49-5.145-5.94z"/>
  </g>
  <a transform="translate(-1.747 -.6606)">
   <g fill="#cd5e51" stroke-opacity=".06275" stroke-width=".2646">
    <path d="m-111.8 195.3 3.77 5.713 4.857-5.075 1.938 4.673-6.853 3.401-7.161-5.504z"/>
    <path d="m-103.4 209-4.7-4.977-3.909 5.837-2.716-4.269 6.682-4.567 7.485 4.221z"/>
   </g>
  </a>
  <path d="m-60.46 289.3-2.584 6.339 3.082 6.611-3.762 0.9572-1.985-7.614 1.904-6.821z" fill="#cd5e51" stroke-opacity=".06275" stroke-width=".2646"/>
  <path d="m-156.9 191.8 5.481 0.945 36.26 3.007 7.673 10.05 23.81-1.588 22.49 20.11 1.058 18.26 12.17 13.23 21.08 14.23 9.083 49.8-160.3-17.73z" fill-opacity=".1" stroke-opacity=".06275" stroke-width=".2646"/>
 </g>
</svg>
