<?xml version="1.0" encoding="UTF-8"?>
<svg width="1920" height="1080" version="1.1" viewBox="0 0 1920 1080" xmlns="http://www.w3.org/2000/svg" xmlns:cc="http://creativecommons.org/ns#" xmlns:dc="http://purl.org/dc/elements/1.1/" xmlns:rdf="http://www.w3.org/1999/02/22-rdf-syntax-ns#">
 <metadata>
  <rdf:RDF>
   <cc:Work rdf:about="">
    <dc:format>image/svg+xml</dc:format>
    <dc:type rdf:resource="http://purl.org/dc/dcmitype/StillImage"/>
    <dc:title/>
   </cc:Work>
  </rdf:RDF>
 </metadata>
 <g stroke-opacity=".0627">
  <path d="m0.166 0.791v1080l1923 7.96-2.83-1088z" fill="#6ec3d4"/>
  <path d="m95.2 689 75.9-153 1628-2.83 65.1 279-1202 250z" fill="#457c88"/>
  <path d="m856 535 6.32-158 9.5-10.5 19-82 47.5 4 32 62 56.5 31 18 62 64-43 47 41 70.5 22.5 19.5 71.5z" fill="#436f7c" fill-opacity=".5"/>
  <path d="m572 473v5l17.2 13 19.8 34.2 27.2 19.8 78.8 3.5 22.5-12.2v-18.5l12.8-6.25 2-21-44 3.5-0.5-3 20-4.5-4-20.8 3-7.75-18-5.5 1.25-10.8 19.8 2-6.75-21.2 0.875-19.1-15.1-1.75 0.75-3.5 4.12-0.75 2.5-10.9-6.75 1.38 0.875-3.88-2.88 0.125-0.75 3.62-6-0.875 2 10.5 3 0.125-0.375 4h-15.4l-4.38 38.2 16.4 2.75-0.25 6.62-21.6 39.4-1.5 10 11.8-2-6.25 6.5-12.8-0.25 0.5-14.5 12 4 19.8-44-35.8-3.75 0.25-4.75 23.8-3.25 0.212-30.2-26.4-2.92 5.21-11.2-6.45-0.619-0.296-9.31-3.38 0.875v8.5l-2.62-0.125 0.125 9.38 1.62 1.12 0.375 2-13.6-1.62-6.75 19.4 2.62 14.9 18.8 1.38 0.5 10.5-21.5 0.866-1.94 25.5 4.6 13.4h15.7l-0.177 2.83h2.65l0.53 11-30.1 1.94-12.6-14.3v-2.47l-17.1-4.42 26.7-14 14.8-41.4-42.4 56.2 17.6 3.54z" fill="#436f7c" fill-opacity=".5"/>
  <path d="m490 547 75.7-40-2.83-29 75.7-38.5 31.1 46.3-10.6-97.8 90.5-63.5 14 34.5 112 14 15 87 147 41 53.5-6.5-15.5-43.5 71-23 26 47.5 31.5-0.5 8.5-30.5 69.3 41.6 115 9.19 38.9-11 7.07-47.4 62.2-24 38.9 52-6.72 30.1 58 2.12 14.8-29 109 39.6-110 29-197-0.707z" fill="#fff" fill-opacity=".2"/>
  <path d="m520 568 81-21.5-3.5-19.5 46.5-42 64 55 246-110 47.5 8.5-6.5 60.5 142 38.5 192 4.14 96.5-55.5 49.5 28.6 164 0.726-132 34.5z" fill="#fff" fill-opacity=".2"/>
 </g>
 <g stroke-opacity=".0627">
  <path d="m340 686 384-51.5-22 61-386 33.5z" fill="#4e857f"/>
  <path d="m273 680 166-42.8-55.5-31.8-271-19.5 55.2 93.8z" fill="#849582"/>
  <path d="m322 706 404-67.2 96.2 41.7z" fill="#58a5a1"/>
  <path d="m1620 556-439 5.5 78 57-542-17.7-234-19.1 293 89.1-413 28.8 37.7 12.7 864 106z" fill="#448d93"/>
 </g>
 <path d="m239 505-55.2-262 163-105 156-14.1 59.4 126 163-5.66-33.9-53.7 32.5-65.8 86.3 18.7 93-146 161-2.23 48.2 45.8-24 55.5 6.5 111 98 28.5 120-154 296 35.7-18.4 351 67.2 58-153 11.5-1266 8.3z" fill="#fff" fill-opacity=".4" stroke-opacity=".0627"/>
 <g stroke-opacity=".0627">
  <path d="m479 709 735 40.3 24-73 473-74-91.5-47 46-2-162-14.5 226-1.5-82-21 122-5.5 70 190-222 166-1228 7.78-170-129 138-45.3 58.3 14.5z" fill="#5baaa4"/>
  <path d="m459 797 41 19.8 25.5-3.18 35.7 26.2 311 45.7h628l-200-107-315 30.2-35.5-23.8-360-28.5 114 30z" fill="#7fb2a1"/>
  <path d="m1021 858-13.8 16.5 345 5.85 260-59-2.88-28.1-376 48.9z" fill="#c7d6cf"/>
  <path d="m1021 858 158-12.5-17.8-16.8 139-22 55 7.84 33.9-19.1 91.2-3.54 12.4 8.84 116-7.55-408 62.7z" fill="#b6d1ce"/>
  <path d="m786 883 76.6-20.7 163-11.2 4 8.5-32 34.5z" fill="#c6d9d5"/>
  <path d="m500 836 76-8.25 81.4 13.5 216 28-49.2 5.75-50 10-253-28.8z" fill="#b6cfcc"/>
  <path d="m500 836 27.4 18.3-81.2 11.4-84.8-15z" fill="#c4d8d9"/>
  <path d="m334 722 59.9 11.6 22.3-17.9 62.4-6.01-96.9-0.884z" fill="#9ee0d8"/>
  <path d="m333 711 31.5-16.1 36.2 17.3-19.3 14.8-52-4.42z" fill="#426a74"/>
 </g>
 <path d="m111 392 105-36.8 127 173 168-112 63.6 34.4-43.5 41.5 22 30.5 14-30.5 98.2-3.75 20 26 28.5-53.8 73-12.8 5.5 29.5 49-5-9.5-42.8 114-42.5 78.8 67.8-22 40 54.2 15 14-27 59.5 28.2-10 18.5 131 13.2 105-9.37 258 12.2-1409 6.75z" fill="#fff" fill-opacity=".2" stroke-opacity=".0627"/>
 <g stroke-opacity=".0627">
  <path d="m-16 300 48-17 89.5 118 38 7.5 35.5 69 49.5-8 40 51.5-13 100-286-13.5z" fill="#40616a"/>
  <path d="m-8.13 598h1.41l76.7-8.84 30.8 14.5 56.2-13.4 68.2 3.54 116 28.7 8.5 17.5-57 14.2-64.8-1.25-66.5 14.3 6.53 13.4-52-2.88-136 4.28z" fill="#76887c"/>
  <path d="m470 822 0.884 0.884 29.5 12.6-45.2 3.75-101 1.5 58.2-20.5z" fill="#b5d2cc"/>
  <path d="m-4 674 120 3.12 35.5 46 189-37.9-6 36-64 47 131 15-10.6 13.8 30.4 8.13-38.7 10.1-8.5 20-12.5 3.25 94 0.5 45.2-3.75-127 17.8-170-6.75-216-58.5z" fill="#4a736f"/>
  <path d="m116 738 52.5-12 65 14-36.5 12.5-21.5 67.9-73.5 9.55z" fill="#7f8c7a"/>
  <path d="m582 909 45.3-24-44.9-37.1-68.2 3.54-15.2 5.3-180-5.3z" fill="#c0b28f"/>
  <path d="m316 841 34.5 13.5 146 6.75 101 45-310 61-71.4-97.9z" fill="#a69464"/>
  <path d="m816 962 112-59.5 312 24 246-48 39.5 32.5-390 124z" fill="#d8bb79"/>
  <path d="m375 878 1.06-0.177 120 6.54 41.2 15-33.9 2.47-1.77 7.78-168 15.2-13.8-33.6z" fill="#7b6d48"/>
  <path d="m863 962 152 6 125 82.5z" fill="#a39163"/>
  <path d="m892 973-55.5-25.2-179-39.8-78-8.75-82.8 16.5 128 181z" fill="#cbb174"/>
  <path d="m764 1012 122-44.2 198 58.1-59.7 68.5-216-8.84z" fill="#9c8b60"/>
  <path d="m435 1010 135-80.5 216 24.8-32.5 25.8 98.2 2.75-190 78.8z" fill="#9f8e63"/>
  <path d="m377 895 30.4-3.54-46.7-36.4-75.1 8.84z" fill="#697865"/>
  <path d="m252 881 64.3 21 60.5-6.89-26.5-17.1-64.9-14z" fill="#4c5248"/>
  <path d="m234 891 91.2 5 25.2 28.2-36.8 36.5-116-5.75-0.5-37.2z" fill="#404c48"/>
  <path d="m499 976-63.6 34.3 220 30.4-43.5 54.4-356-9.19 33.2-136 130-12z" fill="#746747"/>
  <path d="m289 986 217-60.2-47.2-29.8-52.5-0.25-127 80.2z" fill="#564a37"/>
  <path d="m321 965 29.5 3.36 15.2 6.99 24.8-16.7 13.6-1.06 50 23 64.3 2.3 51.3-38.7-219-4.42z" fill="#48412f"/>
  <path d="m480 904 67 9.62 22.9 30.7-41.4-1.41z" fill="#828770"/>
  <path d="m528 943-0.5-0.25-48.5-38.9-25.2-4.38-31.6 16.4-27.9-11.5-36.9 3.36-10.5 8 45.2 26.1z" fill="#58604f"/>
  <path d="m464 970 54.5 1.85 50.9-27.8-13.1-4.42-71.3 1.51-58.5-28.5-38.6 20.8-40.6-17.8-54 57.6 123-31.9z" fill="#49534a"/>
  <path d="m70.7 698 25.5 79.2-27.9 80.6 64.3-36.1-12-115z" fill="#36403f"/>
  <path d="m68.2 860v-2.12l35-78.5-32.5-81.3-33.2-7.78-44.5 42.4 5.3 184z" fill="#333d3c"/>
  <path d="m310 945-13.8 48.4-40.3-8.49z" fill="#303634"/>
  <path d="m200 935 37.5-7.78 72.5 17.7-60.1 50.9-97.2-4.24z" fill="#343a36"/>
  <path d="m722 1008 72.1-8.71 66.8 73.5 2.12 13.4-71.8-4.95-70-50.2z" fill="#596251"/>
  <path d="m299 1084 21.5-18 122-50.5 126 58.5 105-63 48.5-4 7.5 23 131 58.5z" fill="#4e5649"/>
  <path d="m502 1084 0.25-1 65.5-45 25.8-7 90.2 47.5 2.5-15.5 87 21.5z" fill="#585340"/>
  <path d="m529 1075 47.3-7.75 28.6 10.9 6.01 6.98 12.4-3.01-23.5-17.3 18.6 6.36-20.3-16.8-53.7 2.65z" fill="#413b2b"/>
  <path d="m555 1061 25.5 6.45 15-12.6-44.3-1.62z" fill="#644d44"/>
  <path d="m615 1081-0.265-1.06-4.77-12.7-11.5-9.28-9.99 0.972 17.6-5.83 2.3-6.36 8.37-2.69-11.2-9.24-5.66 3.71-11.5 20.3-8.04 8.84 17.7-1.06 8.75 4.51z" fill="#59403c"/>
  <path d="m542 1021-4.62 10.5 3.38 1.5-1.25 2.12-1.75 13.9 22.5-5.44-10.6-25.9z" fill="#59403c"/>
  <path d="m1114 1025 18.4-25.5-50.9-7.07 22.3-32.9 222-2.21 34.6 45.5z" fill="#a99767"/>
  <path d="m406 946 58 24.4 21-28.9-58.5-28.5z" fill="#424d47"/>
 </g>
 <g fill="#644542" stroke-opacity=".0627">
  <path d="m554 997-0.088 10.1 14.4-5.48-1.33 10.2-26.6 12.9-3.54-21.3 16.5-18.1 11.5 3.27 6.54 7.87z"/>
  <path d="m594 1022 9.75 14.5 13.1 7.62 6.25-16.9 0.5-21.2-16.8-8.25 5.38 13-2.5 8-4.88-1.5-2.62-9.88z"/>
  <path d="m540 1035-1.75 13.9-1.95 2.35-1.19 9.37-3.93-12.7z"/>
 </g>
 <g stroke-opacity=".0627">
  <path d="m588 1059-8.04 3.71-25-4.24-3.97-4.02 3.53 6.94-9.9-1.5-16.3 16.4 2.56-15.3 10.3-9.19z" fill="#59403c"/>
  <path d="m545 1034 6.75 20.5 29.8 6.5 9.25-2.5 12.8-14.6-1.25-6.25-31.8-12.9z" fill="#644542"/>
  <path d="m603 1055 3.54-11 9.63 12.4 1.15 12.7-4.51-10.3z" fill="#644542"/>
  <path d="m382 816 44.5 6 19.2 15-72.8 0.75 0.562-1.75z" fill="#566f69"/>
  <path d="m329 1093-1.77-2.47-25.5-16.3-6.01 0.707-3.18-11.7 10.3-15.9 109-15.2-58-44.5-180-15.6 23.3-23.7 25.5-4.24-15.9-6.01 75.4-86 106-28.5-90.5-37-146 17-174 104 15.6 187z" fill="#28382d"/>
  <path d="m415 985 1.86 7.51 9.9 3.18 7.87-5.57-0.265-5.48-8.84-5.39z" fill="#a28439"/>
 </g>
 <g fill="#a1998e" stroke-opacity=".0627">
  <path d="m425 929 6.36 3.89 1.59 16.8-11 12.6 10.4 6.19 6.89-10.6 4.42-20.5-9.9-12.2z"/>
  <path d="m437 975 18.2-12.7 3.01-14.7 7.07 4.95-1.06 18-10.3 10.4z"/>
  <path d="m413 973 1.59-2.12-7.96-7.42 3.89-3.89-21-15.4-18.4 7.6 7.96 13.8 17 3.71-6.36-10.4 1.77-4.24 11.7 7.25-10.3 5.66 2.48 1.55z"/>
 </g>
 <g stroke-opacity=".0627">
  <path d="m364 954 1.12 21.1 42.4 2.88 5.73-5.45-33.9-7.42-7.96-13.8z" fill="#766f67"/>
  <path d="m628 885 46.4-25.6-46.1-10.5-45.3-1.06z" fill="#d9cbaa"/>
  <path d="m674 859 100 25.5 50-10-14 8.5 186 2.75 23-21 176 7.25 114-26.8-11.5 19.8 242-43 22.5-16.8 46.8-12-108 77.5 40.2 26-27.7 5.52-28.6-23.8-246 48-312-24-94 50-177-44.2-70.2-5.75 41.1-17.9z" fill="#ded1b1"/>
  <path d="m1084 1026 233-57.8 78-1.03-30.1 122-277-12.7z" fill="#a39065"/>
  <path d="m1542 897h-1l-39.2-26 108-77.5 34-7.25 50-8 91.2 21.8-103 71z" fill="#ab9c71"/>
  <path d="m1688 851-19.9-33.9 100-6.27 30.7-0.728-8.75 20.5z" fill="#a6956a"/>
  <path d="m1688 851-211 61.7 23.2 11.8 225-20.2-36.4-53.4z" fill="#a69466"/>
  <path d="m1492 916 222-15.2-26.5-49.1 120-32.5-42.8 129-263-3.54z" fill="#a19064"/>
  <path d="m1327 920 33.4-7.25 53.9 2.88 71.6-12.2 18.4 20.5 61.2 0.863-9.12 19.6z" fill="#a69466"/>
  <path d="m1451 921-46.8-1.25-45.5 8-41 40.2 40.8 13.5-69 16.5 59.2 14.9 26.3 65.3 119 7z" fill="#a39266"/>
  <path d="m1518 937-13.8-13.2-11.9-0.619-12.9-13.2-58.8 14.5-5.3 16.6-37.8 5.48-9.82 7.68-41.3 2.48 60.9 33.1 107-14.1z" fill="#897955"/>
  <path d="m1617 931 153-21.2-2.25 102-159-64.5z" fill="#827451"/>
  <path d="m1731 992-1.75-1.62-29.8-34.6 71.5 36.1z" fill="#726344"/>
  <path d="m1425 978 42.4-35.2 60.5-9.97-0.884-4.86 41.7 0.834-20.5 43.2z" fill="#786b4b"/>
  <path d="m1395 999-2.62 2.5-50.4-10.2 1.5-3.88-9.38 9.12 10.2 16.4 24.4 5.12 18.5 12.5 68.5-4z" fill="#897955"/>
  <path d="m1396 1064 50.4 20-72.5-1.77z" fill="#918964"/>
  <path d="m1450 1082-13.8-12.2 10.8-9.5-40.5-18.8-19-11.5 136-20.5 98-4.24-84 62.2z" fill="#786b4b"/>
  <path d="m1614 1010-76.2 40.2-39-2.75-10.2 20-47.2 15.5 261 3.25z" fill="#69583c"/>
  <path d="m1615 950 67.5 14.8 50.2 26.5 34.3-0.354 84.1 8.49-14.5 54.1-78.5 32.2-96.5-10.6-34.3-24.7-17.7-35.4z" fill="#786b4b"/>
  <path d="m1497 1084-7.75-19.8 23.5-7.5 189 30z" fill="#938459"/>
  <path d="m1607 1008 2.65 7.07 32.7-12.2 35.2-4.95-9.9-17.3-10.4-5.13-49.8-1.2-12 16.2z" fill="#6c5c40"/>
  <path d="m1545 952 58.3 18.5 2.3 14.8-5.83 5.83z" fill="#92855e"/>
  <path d="m1610 976 47.6-1.05-31.6-10.5-13.2-1.5z" fill="#5b4a33"/>
  <path d="m1616 967 13 0.188 5.06-9.94-18.2 8.4z" fill="#443324"/>
  <path d="m1616 966 13.2-0.53 5.04-7.87-9.37-6.01z" fill="#af8939"/>
  <path d="m1605 987 1.46-0.0221 26.5-49.8-37.7-26.2-47.9-3.71 1.77 46.8 27 12.6 5.66 4.07z" fill="#424843"/>
  <path d="m1580 915-32.4-7.6 37.1 2.65z" fill="#5f6560"/>
  <path d="m1579 812 0.145-6.64 3.91-3.22 48.2 6.33 3.14 6.41-1.96 3.98-19.9 2.87-14 119-21.6 0.354 8.28-63.2 11.3-53.2 0.354-4.24z" fill="#594732"/>
  <path d="m1579 812-0.088 5.21 18 3.01-0.354 4.24 7.07-4.68-0.078 4.02 0.343 57.7-12.9 59.3-14 0.0884 7.96 7.6 13.6-7.95 14-119 18.6 2.3 1.31-5.17-10.3-0.188-24.4-3.12z" fill="#4a3a2b"/>
  <path d="m1658 975 11.2 9.55 9.38-0.125 6.62-6.62-3.55-8.28z" fill="#57451f"/>
  <path d="m1589 1043 4-2.62 82-24.4 1.62 2.25 6.12 1.62-25.4 44.2-20.5-14.8z" fill="#443325"/>
  <path d="m1637 1051 36.1-28.6 9.55-4.95 14.8 8.13-38 35.4-6.35-3.05-0.125-3.69-2.75 2.75z" fill="#957b54"/>
  <path d="m1826 1035 43.8-68.5 59.5 51-5.99 71.2-184 0.75z" fill="#555634"/>
  <path d="m1827 923 35.9-34.1 59.2 39.4 6.72 88.9-67.9-37.5z" fill="#594f43"/>
  <path d="m1688 778 92.3 28.6-11.8 4.42 27.4 4.77 57.8-55.5-41.4-50.7z" fill="#7b6c4b"/>
  <path d="m1831 927 36.8-34.5-29.2-11.2z" fill="#8f7055"/>
  <path d="m1785 600-116 15.2 141 50.2-168 120 50-8 136-69.5 15.5-116z" fill="#51716c"/>
  <path d="m1850 768-42.5-26.5 28.3-134 89.8-60.8 6.01 153z" fill="#414e47"/>
  <path d="m1762 855 3.12-19.9 115-107 1.75-32.8 41.8-43.8 5.06 286z" fill="#303a3b"/>
  <path d="m1790 874-3.88 25.6 6.97-0.966 19.6 12.2 2.56 19.4 16.1-2.65 11-46.1-2.83-16.3-5.59-5.12-12.6 10.1z" fill="#37322d"/>
  <path d="m1833 981 41 9.16 14.5-15.9 3.54-23.3-14.5-20.9-32.2-3.18z" fill="#483b32"/>
  <path d="m1773 990 17.7 31.8 72.8-11.7 5.15-23.7-18.6-17z" fill="#5c4d34"/>
  <path d="m1814 926 37-7 13 15.8 11.2 28-8.5 21-37 7.5-22.6-9.58z" fill="#2e2b26"/>
 </g>
 <path d="m1753 988 42 26.8 32.2 3.18 24.2-18.9-11.5-21.9-25.8-14.7z" fill="#0f0d0d" fill-opacity=".704" stroke-opacity=".0627"/>
 <g stroke-opacity=".0627">
  <path d="m1748 978-3.52-6.94-2.34-35.6 2.61-10.7 11.5 4.62 6.88 54.4z" fill="#6b644f"/>
  <path d="m1759 980-1.88-17-9.28-10.8 3.45-11.6 2.83-9.15 31.4 5.5 8.66 28-9.9 21.9z" fill="#5a5440"/>
  <path d="m1788 938-3.25 22.8 0.25 7.12-1.88 22.1 24.7-7.42 3.36-6.89 3.54-12.4 1.62-17.4 1.04-16.5-0.177-3.54-1.48-5.43z" fill="#4c4938"/>
  <path d="m1751 931 0.625 21.5 2.88-20.9 16.1 3.38-0.625 22 2.75-22.2 13.1 2.38-1.12 30.1 3-29.9 20.1-8.75 0.25 26.5 0.875-28.2 6.5-7.12-2.4-8.89z" fill="#2b2a23"/>
  <path d="m1773 867 17.4 6.88-3.88 25.6-20.8 0.5-2.68 1.54 1.77-10.3 1.98-11.8z" fill="#594d41"/>
  <path d="m1749 909 16.5-8.43 27.7-1.47 19.6 12.2-8.13 9.99-22.1 8.84-30.5-6.06-4.81-10.6z" fill="#756d58"/>
  <path d="m1751 907-0.5 2.75 41.7-10.3-41 12.6 4.81 6.94 34.5-8-33.1 9.25 23.5 4.88 22.1-6.06 8.25-9.12-6.94 9.94-23.2 7.75-28.7-4-4.81-10.6 1.72-4.44z" fill="#5a5742"/>
  <path d="m1756 854-9.22 24.9 2.12 29.5 9.72-3.8 3.98-14.9 3.83-10.3 2.88-13-5.56-1.94z" fill="#7e6448"/>
  <path d="m1834 860-12.6 10.1-31.4 3.75-26.2-9.38-7.75-10.5 22.1-12.6 22.1 0.875z" fill="#866b4d"/>
  <path d="m1764 862-0.188-0.375-1.81-6 17.9-10 18.4-0.688 10.1 6.06-27.1-0.5z" fill="#564e42"/>
  <path d="m1648 1066 56-48.5 64 60.5z" fill="#19241c"/>
  <path d="m1648 506 128 101h60.1l89.8-60.8-190-74.2z" fill="#345a5b"/>
  <path d="m1721 486-73.2 19.1-2.83-168 29-65.1z" fill="#343a3a"/>
  <path d="m1721 486 215 59.5-11.6-552-166 1.06-41 180-37.5 5.66-22.6 115z" fill="#324040"/>
  <path d="m1637 456-40-51.3 26.2-159 141-61.3 54.1-3.18 52.4-79.7 57.5-1-6.5 392-18.6-18.1-40.4-66.8 4.24 83.8-66.8-70-1.41-46-35.4 40.3-17 85.6-25.5-14.8-50.6-187z" fill="#233529"/>
  <path d="m1716 404-25.5 41.5 240 184 1-49.5z" fill="#504434"/>
  <path d="m1622 306 68 140 25.5-41.5-85.5-141z" fill="#393826"/>
  <path d="m1664 206-36.5 108 1.5 11.5-18 6 17 8 3.5 116-78-148 75.5-99z" fill="#2f4924"/>
  <path d="m1374 390 48.9-68.3-9.5-20.5 19 11 133-124-96.9-17.4-8.13 7.16-58.5 83.9z" fill="#426d35"/>
  <path d="m1539 29 40.2-12.8-12.5 26.8z" fill="#294a34"/>
  <path d="m1250 150 50.5-95 133-40-10.5-15.5 85.5 1.5 9.5 11.5-192 96.5z" fill="#76ab51"/>
  <path d="m1383 133-2.47-0.354-23.7-8.49 8.13-34.6-26.2 27.2-13.4-7.78 28.6-40.7 79.9-44.9 5.3-9.19 75.7-8.13 35 23.7 64.1 67.5z" fill="#356241"/>
  <path d="m1497 178-100-90.5 81-28 148 38z" fill="#315730"/>
  <path d="m1629 207-176 47.5 74.5-92 91-73.5z" fill="#2f4f3a"/>
  <path d="m1779 326-11-162-81-20.5 60.1-11 69.3 53-56.2-100-102-22.2-48.1 26.1 18.8 118 32 6.5 25-13-12.5 22.5 22 7 28.5-19-14.5 23 6.03 2.26z" fill="#30523a"/>
  <path d="m1880 325-10.8 48.5 55.8 85.4-1.31-54.3z" fill="#3e3f2f"/>
  <path d="m1880 325 43.6 79.6 4.24-93.3-31.8-43.8z" fill="#383927"/>
  <path d="m1869 373 26.9-106-37.8-267-40 134z" fill="#333b2e"/>
  <path d="m1680 64.1 3 88.8 82.2-101 3.75-49.2-22.2-0.75z" fill="#2b4335"/>
  <path d="m1601 82.1 13.2 14.8 52.5-37.8 42.4-48.2-70.9 3.36z" fill="#2b4333"/>
  <path d="m1764 0.26-15.9 35.1 35.4 4 15.5 189 40.2-147-16-46 21.5 18.5 14-53.5z" fill="#2a412f"/>
  <path d="m1748 35.4 50.9 193-15.5-189z" fill="#2f5234"/>
  <path d="m1640 26.6 120-17-42.4-9.9-138 0.354-49.5 100z" fill="#305333"/>
  <path d="m1530 100 6.36 53.4-59.4 35.4 36.4-0.354 23.7-32.9 1.77 21.9 101-151z" fill="#538844"/>
  <path d="m1671 44.1 0.177 27.9 102-73.7-66.1 1.41z" fill="#263c25"/>
  <path d="m1497 178-37-0.25-40.2 13-8.25-36-9.5 41.5-25.2 6.75-12.8-17.8 5.5 24.2-46 64.8-7.25-58.2 80.2-128z" fill="#386e3a"/>
  <path d="m1374 242 27.6 19.8 58.5-83.9z" fill="#65884a"/>
  <path d="m1374 242-0.354 148 27.9-129z" fill="#98ad57"/>
  <path d="m1639 199-99 142-32.5-14.5 21.5 32.5-5 5.5 3 17.5-28-16 26.5 35.5-4.5 51-24.5-4 21.5 23-6.5 83.5-66-274 8-27z" fill="#366c3a"/>
  <path d="m1446 282v158l66 116z" fill="#92bc7c"/>
  <path d="m1716 404 3.5 35 212 140-1.5-44.5z" fill="#5f5343"/>
  <path d="m1606 1084 18.5-14.5 115 8 13 10 20-2-69-67 154 17.5 48 49z" fill="#28382d"/>
  <path d="m1867 862 58.8 48.2-2.25-27.5-26-22.8z" fill="#27342a"/>
  <path d="m1837 863 30.2-1 58.8 48.2-2.75 37z" fill="#273e2c"/>
  <path d="m1898 860-59-23-0.53 10.3-60.1-8.49 58.9 24.2 30.2-1z" fill="#305835"/>
  <path d="m1898 860-51.6-12.5 21.1 14.5z" fill="#2a402d"/>
  <path d="m1778 839 47.5-7.81 13.1 6.04-0.53 10.3z" fill="#55773f"/>
  <path d="m1892 977-17.9 13.6-5.81-3.88 8.46-14.5z" fill="#283f2b"/>
  <path d="m1892 977-1.24 16.3-39.3 17.7 16.9-24.2 5.81 3.88z" fill="#2d4c2c"/>
  <path d="m1746 876 0.125-0.438 3.94-8.12 21.9 14.5 46.6 2.39 21.8-13.8 4.77 9.63-21.8 12.5-59-1.5z" fill="#352d2a"/>
  <path d="m1769 867-2.88 13 6.19-12.4z" fill="#2d2a22"/>
  <path d="m1763 890-3.98 14.9 4.07-3.09 1.77-10.3z" fill="#2d2a22"/>
  <path d="m1648 817 12.2-22.5 48-5.5 5-5.5 22.8 2 16.2 40.5-66.2 6z" fill="#595b4e"/>
 </g>
 <g fill="#5a645c" stroke-opacity=".0627">
  <path d="m1747 913-3.69 11.7 7.12 6.31 22.9-4.44-21.5-2.94z"/>
  <path d="m1742 930-0.486 4.6 9.72 6.05 4.24 0.619 3.62-1.77-7.2-1.64z"/>
  <path d="m1743 951 0.044 8.09 9.19 3.31 5.13 0.884-2.08-6.01-3.89-1.77z"/>
 </g>
 <g stroke-opacity=".0627">
  <path d="m1753 980-2.25-9.5 1.5-9.38 0.625 9.75 2.62 10 16.4 2.75-4.25-10.8 0.875-8.38 0.875 8.75 4.12 10.5 8.75 0.875 2.12-17.1-0.75 17.4 17.2-1.75 4.62-26.1-2.25 24.5-3 3.25-43.6 2z" fill="#2b2a23"/>
  <path d="m1748 978 5.06 10.8 21.9 6.19-16-14.2z" fill="#5a645c"/>
  <path d="m1756 942 30.5 4.29 23.2-8.49 7.6-8.49-0.177-3.54-9.02 9.37-21.4 8.13-27-3.05z" fill="#2b2a23"/>
  <path d="m1757 963 28.8 1.94 19.6-8.38 9.62-7.62 0.625-3.88-10.5 8-21.1 6.88-29.1-2.95z" fill="#2b2a23"/>
  <path d="m1857 925-9.25-2.25-43.8 21.4-8 22.8 23.2-16.2 31.9-2.62 16.4-20z" fill="#315432"/>
  <path d="m1867 928-10.5-3.03-14.2 14 18.6-2.5z" fill="#2b432d"/>
  <path d="m1922 1044-24.7-15.7 5.13-31.8-11.5-3.36 1.24-16.3-15.2-4.77 12.6-6.54-38.5-17.9 16.4-20 53.2 16.4z" fill="#263329"/>
  <path d="m1759 980 23.8 2.97 19.1-3.18 8.66-4.95-3.36 15.6-5.48 1.77-16.6 2.47-10.1-0.451z" fill="#2b2a23"/>
  <path d="m1590 1041 6.36-7.25 19.1-10.6 36.9-8.93 24.1 0.265-3.89 7.96-36.1 28.6-13.3-6.36-0.177-6.54-5.3 4.07z" fill="#ad9162"/>
  <path d="m1643 1012 6.01-3.54-1.59-10.4-14.5-3.89-6.36 6.54 3.54 8.13z" fill="#a58536"/>
  <path d="m1616 1024 5.48 12.6 9.9 0.177 21.5-21.7-21.8-11-5.83 10.8z" fill="#927954"/>
  <path d="m1658 975 9.72 7.6 10.1 0.707 6.54-7.25-2.65-6.54-9.55-4.24-12.9 3.89z" fill="#a58536"/>
 </g>
 <g fill="#9e9087" stroke-opacity=".0627">
  <path d="m1586 813 2.19-10.9 26 3.62 1.62 9.06 3.5-8.5 6.94 1.25-4.5 11.1-13.2-0.25-7.62-12.6-3.56 9.69z"/>
  <path d="m1595 826-3.88 14.5 12.4 3.38-0.125-20.1z"/>
  <path d="m1590 854 1.81-8.12 11.6-0.688 0.125 9.06z"/>
 </g>
 <g stroke-opacity=".0627">
  <path d="m1615 928 11.3 9.19-20.5 49.5-23.2-16.3 7.6-17.7 8.13-1.94z" fill="#5f6560"/>
  <path d="m1545 952-15.8 66.7 78.3-10.3-7.78-17.3z" fill="#564531"/>
  <path d="m1545 952-47.1 3.5-41.8 15.8-21.5 16.6-32.9 6.12-6.38 5.25 43.4 28.6 47.5-11.1 35.8 3.25 8.37-1.41z" fill="#433222"/>
  <path d="m1406 1042 29.2 20 26.2 3.75-19.5-18.8z" fill="#6d5c3e"/>
  <path d="m1402 994 19.9-15.2 34.5-7.5-21.5 16.6z" fill="#6d5c3e"/>
  <path d="m1391 1025 0.972 9.02 12.7 3.98 9.19-4.95 0.088-6.89-11.6-6.54z" fill="#a18438"/>
  <path d="m1411 968 14.4 4.03 8.75-8.25-5.5-9.12z" fill="#4e3c29"/>
  <path d="m1408 959 3.18 9.37 11.7 0.796 7.16-4.33-0.265-11-15.3-2.83z" fill="#a48635"/>
  <path d="m1394 1053-47-34.6-79.9 3.54-71 35.5-112-31.5-33.8 14-19-5-48.2 51 286-0.5-44-17.8 17.9-9.31z" fill="#897a55"/>
  <path d="m1298 1018 7.07 15.2 93.3 42.4-21.9 8.49-84.5-1.41-48.1-24.4 24-36.4z" fill="#4d5549"/>
  <path d="m1298 1018 50.9-4.95 47.7 51.3 1.77 11.3-93.3-42.4z" fill="#596152"/>
  <path d="m1344 987 13-14.5 68.8-0.125-4 5.75-28.9 23-50.4-10.2z" fill="#a8956a"/>
  <path d="m1483 901 1.41 6.98-7.78 4.68-12.3-3.18z" fill="#4e3b19"/>
  <path d="m1465 901-0.354 8.4 15 0.354 3.62-8.84-9.72-5.04z" fill="#b0913f"/>
  <path d="m1446 877 6.05 5.69 13.4-4.68-6.01-5.48z" fill="#756546"/>
  <path d="m1446 877 5.94 4.06 6.31-1.81-0.031-5.19-2.94-2.34-6.19 0.406z" fill="#b0913f"/>
  <path d="m1410 870 3.71 4.95 10.3-2.12-3.36-8.44-6.41 1.37z" fill="#ba9a50"/>
  <path d="m1446 843-0.812 5.75 2.88 1.25 7.06-1.19 1-2.31-1.38-4.12z" fill="#ba9a50"/>
  <path d="m21.2 676-0.375 3.75 39.6 12.9 34.8-3.25-13-50.5-35.6 0.25z" fill="#436974"/>
  <path d="m382 816 38.7-10.1 28.6-4.24 39.2 32.5-42.9 2.82-19.2-15z" fill="#758c7a"/>
  <path d="m210 696 10-17.5 40.5-37.5 5.75 11.8-3.5 30.2 10-2.75-3.95 16.4z" fill="#436974"/>
  <path d="m261 641 4-2.75 18 7.5-9.75 34.5-10 2.75 3.5-30.2z" fill="#4c8787"/>
  <path d="m213 588 19.8 31.5 59 9.19 8.13-7.42 87.7 8.49-22.6-56.2-41-22.3-36.8 21.9-4.6-4.6z" fill="#436974"/>
  <path d="m882 846-2.5 5.5 24.9 7.5 21.5-17z" fill="#c6d9d5"/>
  <path d="m1152 788 13.5 6.25-69.5 19.2 44.8 25.8-81.5-28.8z" fill="#86bbb5"/>
 </g>
 <g fill="#a0c9c3" stroke-opacity=".0627">
  <path d="m1247 783 96.9-15.2 35 4.24z"/>
  <path d="m1416 770 8.49-4.95 10.3 0.354-1.77 6.72z"/>
  <path d="m1413 757 0.354-1.77 140-34.6 43.1 13.8z"/>
  <path d="m1237 692 170-14.8 35.5 25.8z"/>
  <path d="m1215 725 23.8-40.8-10.2 41.5z"/>
  <path d="m1501 624 33.4 20.5-157-3.18z"/>
 </g>
 <g stroke-opacity=".0627">
  <path d="m760 342 3.36 17.5 62.5-80 67-28-57-12-51 19z" fill="#fff" fill-opacity=".1"/>
  <path d="m757 474 20.5-269 215-42.4 46.7 84.1 226 83.4 2.12 43.1 235-42.4 102 213-1186 1.73 94.9-68.2 53 29.7 192-33.2z" fill-opacity=".05"/>
  <path d="m244 580 49.5-102 38-36 7.78-49.9-12 3.54-27.2 59-7.07-17.7 6.01-42.1 10.3-12-36.8-3.89-27.2 21.6 14.1-36.1 31.5-7.78-18-10.8-26.9-3.01 23.5-14.7 37.8 8.84-18.3-28.7-24.5-2.25 16.8-13.5 39.5 2.25 28.5 41.2 33.8-16.8 28 21-16.8 14.8 49.8 24.9 4.42 42.4-9.02-8.84-38-16.8 0.635 31.5-7.88 10.2-22.2-10.8-0.25-3.62 6.88-4.5-8.38-1.12-5.75-7.75 8.25-9.38-11.6 1.75-7.38-10.4-7.88 45.1 16.5-13.4 30.5 9.25 9.5 17.2 15-13.4 26 6.71 3.89 16.4 3.36-3.36 31.6 35.5-5 34.5-13-26.2-12.2-6 6.75 27.5-11 37.5-17.8-39.2-12.8 25.2-14.2 8.75 2.5-50-19-8.5-10.3 21.3-88.9 59.2 11.8-36.9 65.1-29 8.13-17.9-5.66-0.354-22.3 8.31 13.4-22.6-6.01-0.884-26 14 10.8-24.9 34.3-12-9.91-13.5-15 0.25-1.62 13.8-38.8 31.2-10.5 93.9z" fill="#436f7c"/>
 </g>
</svg>
